<svg version="1.1" viewBox="0.0 0.0 600.0 371.0" fill="none" stroke="none" stroke-linecap="square" stroke-miterlimit="10" width="600" height="371" xmlns:xlink="http://www.w3.org/1999/xlink" xmlns="http://www.w3.org/2000/svg"><path fill="#ffffff" d="M0 0L600.0 0L600.0 371.0L0 371.0L0 0Z" fill-rule="nonzero"/><path stroke="#333333" stroke-width="1.0" stroke-linecap="butt" d="M84.5 300.5L581.5 300.5" fill-rule="nonzero"/><path stroke="#cccccc" stroke-width="1.0" stroke-linecap="butt" d="M84.5 252.5L581.5 252.5" fill-rule="nonzero"/><path stroke="#cccccc" stroke-width="1.0" stroke-linecap="butt" d="M84.5 205.5L581.5 205.5" fill-rule="nonzero"/><path stroke="#cccccc" stroke-width="1.0" stroke-linecap="butt" d="M84.5 157.5L581.5 157.5" fill-rule="nonzero"/><path stroke="#cccccc" stroke-width="1.0" stroke-linecap="butt" d="M84.5 109.5L581.5 109.5" fill-rule="nonzero"/><path stroke="#cccccc" stroke-width="1.0" stroke-linecap="butt" d="M84.5 61.5L581.5 61.5" fill-rule="nonzero"/><path stroke="#e6e6e6" stroke-width="1.0" stroke-linecap="butt" d="M84.5 276.5L581.5 276.5" fill-rule="nonzero"/><path stroke="#e6e6e6" stroke-width="1.0" stroke-linecap="butt" d="M84.5 228.5L581.5 228.5" fill-rule="nonzero"/><path stroke="#e6e6e6" stroke-width="1.0" stroke-linecap="butt" d="M84.5 181.5L581.5 181.5" fill-rule="nonzero"/><path stroke="#e6e6e6" stroke-width="1.0" stroke-linecap="butt" d="M84.5 133.5L581.5 133.5" fill-rule="nonzero"/><path stroke="#e6e6e6" stroke-width="1.0" stroke-linecap="butt" d="M84.5 85.5L581.5 85.5" fill-rule="nonzero"/><clipPath id="id_0"><path d="M84.55 61.916668L581.45 61.916668L581.45 300.45L84.55 300.45L84.55 61.916668Z" clip-rule="nonzero"/></clipPath><path stroke="#000000" stroke-width="2.0" stroke-linecap="butt" stroke-opacity="0.0" clip-path="url(#id_0)" d="M109.0 300.0L93.0 300.0L93.0 111.0C93.0 109.89543 93.89543 109.0 95.0 109.0L107.0 109.0C108.10457 109.0 109.0 109.89543 109.0 111.0Z" fill-rule="nonzero"/><path fill="#4285f4" clip-path="url(#id_0)" d="M109.0 300.0L93.0 300.0L93.0 111.0C93.0 109.89543 93.89543 109.0 95.0 109.0L107.0 109.0C108.10457 109.0 109.0 109.89543 109.0 111.0Z" fill-rule="nonzero"/><path stroke="#000000" stroke-width="2.0" stroke-linecap="butt" stroke-opacity="0.0" clip-path="url(#id_0)" d="M133.0 300.0L117.0 300.0L117.0 107.0C117.0 105.89543 117.89543 105.0 119.0 105.0L131.0 105.0C132.10457 105.0 133.0 105.89543 133.0 107.0Z" fill-rule="nonzero"/><path fill="#4285f4" clip-path="url(#id_0)" d="M133.0 300.0L117.0 300.0L117.0 107.0C117.0 105.89543 117.89543 105.0 119.0 105.0L131.0 105.0C132.10457 105.0 133.0 105.89543 133.0 107.0Z" fill-rule="nonzero"/><path stroke="#000000" stroke-width="2.0" stroke-linecap="butt" stroke-opacity="0.0" clip-path="url(#id_0)" d="M158.0 300.0L142.0 300.0L142.0 118.0C142.0 116.89543 142.89543 116.0 144.0 116.0L156.0 116.0C157.10457 116.0 158.0 116.89543 158.0 118.0Z" fill-rule="nonzero"/><path fill="#4285f4" clip-path="url(#id_0)" d="M158.0 300.0L142.0 300.0L142.0 118.0C142.0 116.89543 142.89543 116.0 144.0 116.0L156.0 116.0C157.10457 116.0 158.0 116.89543 158.0 118.0Z" fill-rule="nonzero"/><path stroke="#000000" stroke-width="2.0" stroke-linecap="butt" stroke-opacity="0.0" clip-path="url(#id_0)" d="M182.0 300.0L166.0 300.0L166.0 111.0C166.0 109.89543 166.89543 109.0 168.0 109.0L180.0 109.0C181.10457 109.0 182.0 109.89543 182.0 111.0Z" fill-rule="nonzero"/><path fill="#4285f4" clip-path="url(#id_0)" d="M182.0 300.0L166.0 300.0L166.0 111.0C166.0 109.89543 166.89543 109.0 168.0 109.0L180.0 109.0C181.10457 109.0 182.0 109.89543 182.0 111.0Z" fill-rule="nonzero"/><path stroke="#000000" stroke-width="2.0" stroke-linecap="butt" stroke-opacity="0.0" clip-path="url(#id_0)" d="M207.0 300.0L191.0 300.0L191.0 113.0C191.0 111.89543 191.89543 111.0 193.0 111.0L205.0 111.0C206.10457 111.0 207.0 111.89543 207.0 113.0Z" fill-rule="nonzero"/><path fill="#4285f4" clip-path="url(#id_0)" d="M207.0 300.0L191.0 300.0L191.0 113.0C191.0 111.89543 191.89543 111.0 193.0 111.0L205.0 111.0C206.10457 111.0 207.0 111.89543 207.0 113.0Z" fill-rule="nonzero"/><path stroke="#000000" stroke-width="2.0" stroke-linecap="butt" stroke-opacity="0.0" clip-path="url(#id_0)" d="M231.0 300.0L215.0 300.0L215.0 107.0C215.0 105.89543 215.89543 105.0 217.0 105.0L229.0 105.0C230.10457 105.0 231.0 105.89543 231.0 107.0Z" fill-rule="nonzero"/><path fill="#4285f4" clip-path="url(#id_0)" d="M231.0 300.0L215.0 300.0L215.0 107.0C215.0 105.89543 215.89543 105.0 217.0 105.0L229.0 105.0C230.10457 105.0 231.0 105.89543 231.0 107.0Z" fill-rule="nonzero"/><path stroke="#000000" stroke-width="2.0" stroke-linecap="butt" stroke-opacity="0.0" clip-path="url(#id_0)" d="M256.0 300.0L240.0 300.0L240.0 112.0C240.0 110.89543 240.89543 110.0 242.0 110.0L254.0 110.0C255.10457 110.0 256.0 110.89543 256.0 112.0Z" fill-rule="nonzero"/><path fill="#4285f4" clip-path="url(#id_0)" d="M256.0 300.0L240.0 300.0L240.0 112.0C240.0 110.89543 240.89543 110.0 242.0 110.0L254.0 110.0C255.10457 110.0 256.0 110.89543 256.0 112.0Z" fill-rule="nonzero"/><path stroke="#000000" stroke-width="2.0" stroke-linecap="butt" stroke-opacity="0.0" clip-path="url(#id_0)" d="M280.0 300.0L264.0 300.0L264.0 110.0C264.0 108.89543 264.89542 108.0 266.0 108.0L278.0 108.0C279.10458 108.0 280.0 108.89543 280.0 110.0Z" fill-rule="nonzero"/><path fill="#4285f4" clip-path="url(#id_0)" d="M280.0 300.0L264.0 300.0L264.0 110.0C264.0 108.89543 264.89542 108.0 266.0 108.0L278.0 108.0C279.10458 108.0 280.0 108.89543 280.0 110.0Z" fill-rule="nonzero"/><path stroke="#000000" stroke-width="2.0" stroke-linecap="butt" stroke-opacity="0.0" clip-path="url(#id_0)" d="M304.0 300.0L288.0 300.0L288.0 111.0C288.0 109.89543 288.89542 109.0 290.0 109.0L302.0 109.0C303.10458 109.0 304.0 109.89543 304.0 111.0Z" fill-rule="nonzero"/><path fill="#4285f4" clip-path="url(#id_0)" d="M304.0 300.0L288.0 300.0L288.0 111.0C288.0 109.89543 288.89542 109.0 290.0 109.0L302.0 109.0C303.10458 109.0 304.0 109.89543 304.0 111.0Z" fill-rule="nonzero"/><path stroke="#000000" stroke-width="2.0" stroke-linecap="butt" stroke-opacity="0.0" clip-path="url(#id_0)" d="M329.0 300.0L313.0 300.0L313.0 117.0C313.0 115.89543 313.89542 115.0 315.0 115.0L327.0 115.0C328.10458 115.0 329.0 115.89543 329.0 117.0Z" fill-rule="nonzero"/><path fill="#4285f4" clip-path="url(#id_0)" d="M329.0 300.0L313.0 300.0L313.0 117.0C313.0 115.89543 313.89542 115.0 315.0 115.0L327.0 115.0C328.10458 115.0 329.0 115.89543 329.0 117.0Z" fill-rule="nonzero"/><path stroke="#000000" stroke-width="2.0" stroke-linecap="butt" stroke-opacity="0.0" clip-path="url(#id_0)" d="M353.0 300.0L337.0 300.0L337.0 116.0C337.0 114.89543 337.89542 114.0 339.0 114.0L351.0 114.0C352.10458 114.0 353.0 114.89543 353.0 116.0Z" fill-rule="nonzero"/><path fill="#4285f4" clip-path="url(#id_0)" d="M353.0 300.0L337.0 300.0L337.0 116.0C337.0 114.89543 337.89542 114.0 339.0 114.0L351.0 114.0C352.10458 114.0 353.0 114.89543 353.0 116.0Z" fill-rule="nonzero"/><path stroke="#000000" stroke-width="2.0" stroke-linecap="butt" stroke-opacity="0.0" clip-path="url(#id_0)" d="M378.0 300.0L362.0 300.0L362.0 118.0C362.0 116.89543 362.89542 116.0 364.0 116.0L376.0 116.0C377.10458 116.0 378.0 116.89543 378.0 118.0Z" fill-rule="nonzero"/><path fill="#4285f4" clip-path="url(#id_0)" d="M378.0 300.0L362.0 300.0L362.0 118.0C362.0 116.89543 362.89542 116.0 364.0 116.0L376.0 116.0C377.10458 116.0 378.0 116.89543 378.0 118.0Z" fill-rule="nonzero"/><path stroke="#000000" stroke-width="2.0" stroke-linecap="butt" stroke-opacity="0.0" clip-path="url(#id_0)" d="M402.0 300.0L386.0 300.0L386.0 104.0C386.0 102.89543 386.89542 102.0 388.0 102.0L400.0 102.0C401.10458 102.0 402.0 102.89543 402.0 104.0Z" fill-rule="nonzero"/><path fill="#4285f4" clip-path="url(#id_0)" d="M402.0 300.0L386.0 300.0L386.0 104.0C386.0 102.89543 386.89542 102.0 388.0 102.0L400.0 102.0C401.10458 102.0 402.0 102.89543 402.0 104.0Z" fill-rule="nonzero"/><path stroke="#000000" stroke-width="2.0" stroke-linecap="butt" stroke-opacity="0.0" clip-path="url(#id_0)" d="M426.0 300.0L410.0 300.0L410.0 108.0C410.0 106.89543 410.89542 106.0 412.0 106.0L424.0 106.0C425.10458 106.0 426.0 106.89543 426.0 108.0Z" fill-rule="nonzero"/><path fill="#4285f4" clip-path="url(#id_0)" d="M426.0 300.0L410.0 300.0L410.0 108.0C410.0 106.89543 410.89542 106.0 412.0 106.0L424.0 106.0C425.10458 106.0 426.0 106.89543 426.0 108.0Z" fill-rule="nonzero"/><path stroke="#000000" stroke-width="2.0" stroke-linecap="butt" stroke-opacity="0.0" clip-path="url(#id_0)" d="M451.0 300.0L435.0 300.0L435.0 111.0C435.0 109.89543 435.89542 109.0 437.0 109.0L449.0 109.0C450.10458 109.0 451.0 109.89543 451.0 111.0Z" fill-rule="nonzero"/><path fill="#4285f4" clip-path="url(#id_0)" d="M451.0 300.0L435.0 300.0L435.0 111.0C435.0 109.89543 435.89542 109.0 437.0 109.0L449.0 109.0C450.10458 109.0 451.0 109.89543 451.0 111.0Z" fill-rule="nonzero"/><path stroke="#000000" stroke-width="2.0" stroke-linecap="butt" stroke-opacity="0.0" clip-path="url(#id_0)" d="M475.0 300.0L459.0 300.0L459.0 117.0C459.0 115.89543 459.89542 115.0 461.0 115.0L473.0 115.0C474.10458 115.0 475.0 115.89543 475.0 117.0Z" fill-rule="nonzero"/><path fill="#4285f4" clip-path="url(#id_0)" d="M475.0 300.0L459.0 300.0L459.0 117.0C459.0 115.89543 459.89542 115.0 461.0 115.0L473.0 115.0C474.10458 115.0 475.0 115.89543 475.0 117.0Z" fill-rule="nonzero"/><path stroke="#000000" stroke-width="2.0" stroke-linecap="butt" stroke-opacity="0.0" clip-path="url(#id_0)" d="M500.0 300.0L484.0 300.0L484.0 111.0C484.0 109.89543 484.89542 109.0 486.0 109.0L498.0 109.0C499.10458 109.0 500.0 109.89543 500.0 111.0Z" fill-rule="nonzero"/><path fill="#4285f4" clip-path="url(#id_0)" d="M500.0 300.0L484.0 300.0L484.0 111.0C484.0 109.89543 484.89542 109.0 486.0 109.0L498.0 109.0C499.10458 109.0 500.0 109.89543 500.0 111.0Z" fill-rule="nonzero"/><path stroke="#000000" stroke-width="2.0" stroke-linecap="butt" stroke-opacity="0.0" clip-path="url(#id_0)" d="M524.0 300.0L508.0 300.0L508.0 108.0C508.0 106.89543 508.89542 106.0 510.0 106.0L522.0 106.0C523.10455 106.0 524.0 106.89543 524.0 108.0Z" fill-rule="nonzero"/><path fill="#4285f4" clip-path="url(#id_0)" d="M524.0 300.0L508.0 300.0L508.0 108.0C508.0 106.89543 508.89542 106.0 510.0 106.0L522.0 106.0C523.10455 106.0 524.0 106.89543 524.0 108.0Z" fill-rule="nonzero"/><path stroke="#000000" stroke-width="2.0" stroke-linecap="butt" stroke-opacity="0.0" clip-path="url(#id_0)" d="M549.0 300.0L533.0 300.0L533.0 110.0C533.0 108.89543 533.89545 108.0 535.0 108.0L547.0 108.0C548.10455 108.0 549.0 108.89543 549.0 110.0Z" fill-rule="nonzero"/><path fill="#4285f4" clip-path="url(#id_0)" d="M549.0 300.0L533.0 300.0L533.0 110.0C533.0 108.89543 533.89545 108.0 535.0 108.0L547.0 108.0C548.10455 108.0 549.0 108.89543 549.0 110.0Z" fill-rule="nonzero"/><path stroke="#000000" stroke-width="2.0" stroke-linecap="butt" stroke-opacity="0.0" clip-path="url(#id_0)" d="M573.0 300.0L557.0 300.0L557.0 111.0C557.0 109.89543 557.89545 109.0 559.0 109.0L571.0 109.0C572.10455 109.0 573.0 109.89543 573.0 111.0Z" fill-rule="nonzero"/><path fill="#4285f4" clip-path="url(#id_0)" d="M573.0 300.0L557.0 300.0L557.0 111.0C557.0 109.89543 557.89545 109.0 559.0 109.0L571.0 109.0C572.10455 109.0 573.0 109.89543 573.0 111.0Z" fill-rule="nonzero"/><path fill="#000000" d="M290.45312 349.45L290.45312 340.85626L296.65625 340.85626L296.65625 341.8719L291.59375 341.8719L291.59375 344.4969L296.34375 344.4969L296.34375 345.5125L291.59375 345.5125L291.59375 348.4344L296.85938 348.4344L296.85938 349.45L290.45312 349.45ZM298.29688 349.45L298.29688 343.23126L299.23438 343.23126L299.23438 344.10626Q299.92188 343.09064 301.21875 343.09064Q301.78125 343.09064 302.25 343.29376Q302.73438 343.4969 302.96875 343.825Q303.20312 344.15314 303.29688 344.59064Q303.34375 344.8875 303.34375 345.6219L303.34375 349.45L302.29688 349.45L302.29688 345.66876Q302.29688 345.0125 302.17188 344.7Q302.04688 344.3875 301.73438 344.2Q301.42188 343.9969 301.0 343.9969Q300.32812 343.9969 299.82812 344.4344Q299.34375 344.85626 299.34375 346.04376L299.34375 349.45L298.29688 349.45ZM307.59375 348.5125L307.75 349.4344Q307.29688 349.52814 306.95312 349.52814Q306.375 349.52814 306.0625 349.35626Q305.75 349.16876 305.60938 348.8719Q305.48438 348.575 305.48438 347.6219L305.48438 344.04376L304.71875 344.04376L304.71875 343.23126L305.48438 343.23126L305.48438 341.6844L306.53125 341.0594L306.53125 343.23126L307.59375 343.23126L307.59375 344.04376L306.53125 344.04376L306.53125 347.6844Q306.53125 348.1375 306.57812 348.2625Q306.64062 348.3875 306.76562 348.46564Q306.89062 348.54376 307.125 348.54376Q307.3125 348.54376 307.59375 348.5125ZM308.28125 349.45L308.28125 343.23126L309.23438 343.23126L309.23438 344.16876Q309.59375 343.5125 309.89062 343.3094Q310.20312 343.09064 310.57812 343.09064Q311.10938 343.09064 311.65625 343.41876L311.29688 344.40314Q310.90625 344.16876 310.53125 344.16876Q310.17188 344.16876 309.89062 344.3875Q309.625 344.59064 309.51562 344.96564Q309.32812 345.52814 309.32812 346.1844L309.32812 349.45L308.28125 349.45ZM316.35938 348.6844Q315.76562 349.1844 315.21875 349.3875Q314.6875 349.59064 314.0625 349.59064Q313.03125 349.59064 312.48438 349.09064Q311.9375 348.59064 311.9375 347.8094Q311.9375 347.35626 312.14062 346.98126Q312.34375 346.59064 312.6875 346.3719Q313.03125 346.1375 313.45312 346.02814Q313.75 345.9344 314.39062 345.85626Q315.65625 345.71564 316.26562 345.4969Q316.26562 345.27814 316.26562 345.23126Q316.26562 344.575 315.96875 344.3094Q315.5625 343.96564 314.76562 343.96564Q314.03125 343.96564 313.67188 344.23126Q313.3125 344.48126 313.14062 345.1375L312.10938 344.9969Q312.25 344.34064 312.57812 343.9344Q312.90625 343.52814 313.51562 343.3094Q314.125 343.09064 314.92188 343.09064Q315.71875 343.09064 316.21875 343.27814Q316.71875 343.46564 316.95312 343.7469Q317.1875 344.02814 317.28125 344.46564Q317.32812 344.73126 317.32812 345.4344L317.32812 346.84064Q317.32812 348.3094 317.39062 348.7Q317.46875 349.09064 317.67188 349.45L316.5625 349.45Q316.40625 349.1219 316.35938 348.6844ZM316.26562 346.325Q315.6875 346.5594 314.54688 346.73126Q313.89062 346.825 313.625 346.95Q313.35938 347.0594 313.20312 347.27814Q313.0625 347.4969 313.0625 347.77814Q313.0625 348.2 313.375 348.48126Q313.70312 348.7625 314.3125 348.7625Q314.92188 348.7625 315.39062 348.4969Q315.875 348.23126 316.09375 347.7625Q316.26562 347.40314 316.26562 346.71564L316.26562 346.325ZM319.29688 349.45L319.29688 343.23126L320.23438 343.23126L320.23438 344.10626Q320.92188 343.09064 322.21875 343.09064Q322.78125 343.09064 323.25 343.29376Q323.73438 343.4969 323.96875 343.825Q324.20312 344.15314 324.29688 344.59064Q324.34375 344.8875 324.34375 345.6219L324.34375 349.45L323.29688 349.45L323.29688 345.66876Q323.29688 345.0125 323.17188 344.7Q323.04688 344.3875 322.73438 344.2Q322.42188 343.9969 322.0 343.9969Q321.32812 343.9969 320.82812 344.4344Q320.34375 344.85626 320.34375 346.04376L320.34375 349.45L319.29688 349.45ZM328.59375 348.5125L328.75 349.4344Q328.29688 349.52814 327.95312 349.52814Q327.375 349.52814 327.0625 349.35626Q326.75 349.16876 326.60938 348.8719Q326.48438 348.575 326.48438 347.6219L326.48438 344.04376L325.71875 344.04376L325.71875 343.23126L326.48438 343.23126L326.48438 341.6844L327.53125 341.0594L327.53125 343.23126L328.59375 343.23126L328.59375 344.04376L327.53125 344.04376L327.53125 347.6844Q327.53125 348.1375 327.57812 348.2625Q327.64062 348.3875 327.76562 348.46564Q327.89062 348.54376 328.125 348.54376Q328.3125 348.54376 328.59375 348.5125ZM332.42188 349.45L332.42188 340.85626L333.57812 340.85626L338.09375 347.60626L338.09375 340.85626L339.1875 340.85626L339.1875 349.45L338.01562 349.45L333.5 342.7L333.5 349.45L332.42188 349.45ZM345.375 349.45L345.375 348.52814Q344.64062 349.59064 343.39062 349.59064Q342.84375 349.59064 342.35938 349.3875Q341.89062 349.16876 341.65625 348.85626Q341.42188 348.52814 341.32812 348.0594Q341.26562 347.7625 341.26562 347.075L341.26562 343.23126L342.32812 343.23126L342.32812 346.6844Q342.32812 347.4969 342.39062 347.79376Q342.48438 348.2 342.79688 348.45Q343.125 348.6844 343.60938 348.6844Q344.07812 348.6844 344.48438 348.45Q344.90625 348.2 345.07812 347.77814Q345.26562 347.35626 345.26562 346.5594L345.26562 343.23126L346.3125 343.23126L346.3125 349.45L345.375 349.45ZM348.29688 349.45L348.29688 343.23126L349.23438 343.23126L349.23438 344.10626Q349.53125 343.6375 350.01562 343.3719Q350.5 343.09064 351.125 343.09064Q351.8125 343.09064 352.25 343.3719Q352.70312 343.65314 352.875 344.16876Q353.625 343.09064 354.79688 343.09064Q355.73438 343.09064 356.21875 343.60626Q356.71875 344.10626 356.71875 345.1844L356.71875 349.45L355.67188 349.45L355.67188 345.52814Q355.67188 344.90314 355.5625 344.6219Q355.46875 344.34064 355.20312 344.16876Q354.9375 343.9969 354.5625 343.9969Q353.90625 343.9969 353.46875 344.4344Q353.04688 344.8719 353.04688 345.84064L353.04688 349.45L351.98438 349.45L351.98438 345.40314Q351.98438 344.7 351.71875 344.35626Q351.46875 343.9969 350.89062 343.9969Q350.4375 343.9969 350.0625 344.23126Q349.6875 344.46564 349.51562 344.91876Q349.34375 345.3719 349.34375 346.21564L349.34375 349.45L348.29688 349.45ZM360.26562 349.45L359.28125 349.45L359.28125 340.85626L360.34375 340.85626L360.34375 343.91876Q361.01562 343.09064 362.04688 343.09064Q362.625 343.09064 363.125 343.325Q363.64062 343.54376 363.96875 343.96564Q364.3125 344.3875 364.5 344.98126Q364.6875 345.575 364.6875 346.2469Q364.6875 347.84064 363.89062 348.71564Q363.09375 349.59064 362.0 349.59064Q360.89062 349.59064 360.26562 348.66876L360.26562 349.45ZM360.25 346.29376Q360.25 347.40314 360.5625 347.90314Q361.0625 348.71564 361.90625 348.71564Q362.59375 348.71564 363.09375 348.1219Q363.60938 347.52814 363.60938 346.325Q363.60938 345.10626 363.125 344.52814Q362.64062 343.95 361.95312 343.95Q361.26562 343.95 360.75 344.5594Q360.25 345.15314 360.25 346.29376ZM370.54688 347.45L371.64062 347.575Q371.39062 348.52814 370.6875 349.0594Q369.98438 349.59064 368.90625 349.59064Q367.54688 349.59064 366.73438 348.7469Q365.9375 347.90314 365.9375 346.3875Q365.9375 344.825 366.75 343.96564Q367.5625 343.09064 368.84375 343.09064Q370.09375 343.09064 370.875 343.9344Q371.67188 344.77814 371.67188 346.325Q371.67188 346.41876 371.67188 346.60626L367.03125 346.60626Q367.09375 347.6375 367.60938 348.1844Q368.125 348.71564 368.90625 348.71564Q369.48438 348.71564 369.89062 348.41876Q370.3125 348.10626 370.54688 347.45ZM367.09375 345.7469L370.5625 345.7469Q370.5 344.95 370.17188 344.5594Q369.65625 343.95 368.85938 343.95Q368.125 343.95 367.625 344.4344Q367.14062 344.91876 367.09375 345.7469ZM373.28125 349.45L373.28125 343.23126L374.23438 343.23126L374.23438 344.16876Q374.59375 343.5125 374.89062 343.3094Q375.20312 343.09064 375.57812 343.09064Q376.10938 343.09064 376.65625 343.41876L376.29688 344.40314Q375.90625 344.16876 375.53125 344.16876Q375.17188 344.16876 374.89062 344.3875Q374.625 344.59064 374.51562 344.96564Q374.32812 345.52814 374.32812 346.1844L374.32812 349.45L373.28125 349.45Z" fill-rule="nonzero"/><path fill="#000000" d="M29.550013 261.26147L20.956263 261.26147L20.956263 260.10522L27.706263 255.58958L20.956263 255.58958L20.956263 254.49583L29.550013 254.49583L29.550013 255.66771L22.800013 260.18335L29.550013 260.18335L29.550013 261.26147ZM29.550013 248.30833L28.628138 248.30833Q29.690638 249.04271 29.690638 250.29271Q29.690638 250.83958 29.487513 251.32396Q29.268763 251.79271 28.956263 252.02708Q28.628138 252.26146 28.159388 252.35521Q27.862513 252.41771 27.175013 252.41771L23.331263 252.41771L23.331263 251.35521L26.784388 251.35521Q27.596888 251.35521 27.893763 251.29271Q28.300013 251.19896 28.550013 250.88646Q28.784388 250.55833 28.784388 250.07396Q28.784388 249.60521 28.550013 249.19896Q28.300013 248.77708 27.878138 248.60521Q27.456263 248.41771 26.659388 248.41771L23.331263 248.41771L23.331263 247.37083L29.550013 247.37083L29.550013 248.30833ZM29.550013 245.38646L23.331263 245.38646L23.331263 244.44896L24.206263 244.44896Q23.737513 244.15208 23.471888 243.66771Q23.190638 243.18333 23.190638 242.55833Q23.190638 241.87083 23.471888 241.43333Q23.753138 240.98021 24.268763 240.80833Q23.190638 240.05833 23.190638 238.88646Q23.190638 237.94896 23.706263 237.46458Q24.206263 236.96458 25.284388 236.96458L29.550013 236.96458L29.550013 238.01146L25.628138 238.01146Q25.003138 238.01146 24.721888 238.12083Q24.440638 238.21458 24.268763 238.48021Q24.096888 238.74583 24.096888 239.12083Q24.096888 239.77708 24.534388 240.21458Q24.971888 240.63646 25.940638 240.63646L29.550013 240.63646L29.550013 241.69896L25.503138 241.69896Q24.800013 241.69896 24.456263 241.96458Q24.096888 242.21458 24.096888 242.79271Q24.096888 243.24583 24.331263 243.62083Q24.565638 243.99583 25.018763 244.16771Q25.471888 244.33958 26.315638 244.33958L29.550013 244.33958L29.550013 245.38646ZM29.550013 233.41771L29.550013 234.40208L20.956263 234.40208L20.956263 233.33958L24.018763 233.33958Q23.190638 232.66771 23.190638 231.63646Q23.190638 231.05833 23.425013 230.55833Q23.643763 230.04271 24.065638 229.71458Q24.487513 229.37083 25.081263 229.18333Q25.675013 228.99583 26.346888 228.99583Q27.940638 228.99583 28.815638 229.79271Q29.690638 230.58958 29.690638 231.68333Q29.690638 232.79271 28.768763 233.41771L29.550013 233.41771ZM26.393763 233.43333Q27.503138 233.43333 28.003138 233.12083Q28.815638 232.62083 28.815638 231.77708Q28.815638 231.08958 28.221888 230.58958Q27.628138 230.07396 26.425013 230.07396Q25.206263 230.07396 24.628138 230.55833Q24.050013 231.04271 24.050013 231.73021Q24.050013 232.41771 24.659388 232.93333Q25.253138 233.43333 26.393763 233.43333ZM27.550013 223.13646L27.675013 222.04271Q28.628138 222.29271 29.159388 222.99583Q29.690638 223.69896 29.690638 224.77708Q29.690638 226.13646 28.846888 226.94896Q28.003138 227.74583 26.487513 227.74583Q24.925013 227.74583 24.065638 226.93333Q23.190638 226.12083 23.190638 224.83958Q23.190638 223.58958 24.034388 222.80833Q24.878138 222.01146 26.425013 222.01146Q26.518763 222.01146 26.706263 222.01146L26.706263 226.65208Q27.737513 226.58958 28.284388 226.07396Q28.815638 225.55833 28.815638 224.77708Q28.815638 224.19896 28.518763 223.79271Q28.206263 223.37083 27.550013 223.13646ZM25.846888 226.58958L25.846888 223.12083Q25.050013 223.18333 24.659388 223.51146Q24.050013 224.02708 24.050013 224.82396Q24.050013 225.55833 24.534388 226.05833Q25.018763 226.54271 25.846888 226.58958ZM29.550013 220.40208L23.331263 220.40208L23.331263 219.44896L24.268763 219.44896Q23.612513 219.08958 23.409388 218.79271Q23.190638 218.48021 23.190638 218.10521Q23.190638 217.57396 23.518763 217.02708L24.503138 217.38646Q24.268763 217.77708 24.268763 218.15208Q24.268763 218.51146 24.487513 218.79271Q24.690638 219.05833 25.065638 219.16771Q25.628138 219.35521 26.284388 219.35521L29.550013 219.35521L29.550013 220.40208ZM25.362513 213.60521Q23.221888 213.60521 22.018763 212.46458Q20.800013 211.30833 20.800013 209.49583Q20.800013 208.29271 21.378138 207.33958Q21.940638 206.38646 22.956263 205.88646Q23.971888 205.38646 25.268763 205.38646Q26.565638 205.38646 27.596888 205.91771Q28.628138 206.44896 29.159388 207.41771Q29.690638 208.37083 29.690638 209.49583Q29.690638 210.71458 29.112513 211.66771Q28.518763 212.62083 27.518763 213.12083Q26.503138 213.60521 25.362513 213.60521ZM25.378138 212.43333Q26.940638 212.43333 27.831263 211.60521Q28.721888 210.76146 28.721888 209.49583Q28.721888 208.21458 27.831263 207.38646Q26.925013 206.55833 25.253138 206.55833Q24.206263 206.55833 23.425013 206.91771Q22.643763 207.26146 22.221888 207.94896Q21.784388 208.63646 21.784388 209.48021Q21.784388 210.68333 22.612513 211.55833Q23.440638 212.43333 25.378138 212.43333ZM29.550013 204.13646L24.143763 204.13646L24.143763 205.07396L23.331263 205.07396L23.331263 204.13646L22.659388 204.13646Q22.034388 204.13646 21.737513 204.02708Q21.315638 203.87083 21.065638 203.49583Q20.815638 203.10521 20.815638 202.41771Q20.815638 201.96458 20.925013 201.43333L21.831263 201.58958Q21.784388 201.91771 21.784388 202.21458Q21.784388 202.69896 21.987513 202.90208Q22.190638 203.08958 22.753138 203.08958L23.331263 203.08958L23.331263 201.87083L24.143763 201.87083L24.143763 203.08958L29.550013 203.08958L29.550013 204.13646ZM29.550013 196.07396L21.971888 196.07396L21.971888 198.90208L20.956263 198.90208L20.956263 192.08958L21.971888 192.08958L21.971888 194.93333L29.550013 194.93333L29.550013 196.07396ZM22.175013 191.38646L20.956263 191.38646L20.956263 190.32396L22.175013 190.32396L22.175013 191.38646ZM29.550013 191.38646L23.331263 191.38646L23.331263 190.32396L29.550013 190.32396L29.550013 191.38646ZM29.550013 188.38646L23.331263 188.38646L23.331263 187.44896L24.206263 187.44896Q23.737513 187.15208 23.471888 186.66771Q23.190638 186.18333 23.190638 185.55833Q23.190638 184.87083 23.471888 184.43333Q23.753138 183.98021 24.268763 183.80833Q23.190638 183.05833 23.190638 181.88646Q23.190638 180.94896 23.706263 180.46458Q24.206263 179.96458 25.284388 179.96458L29.550013 179.96458L29.550013 181.01146L25.628138 181.01146Q25.003138 181.01146 24.721888 181.12083Q24.440638 181.21458 24.268763 181.48021Q24.096888 181.74583 24.096888 182.12083Q24.096888 182.77708 24.534388 183.21458Q24.971888 183.63646 25.940638 183.63646L29.550013 183.63646L29.550013 184.69896L25.503138 184.69896Q24.800013 184.69896 24.456263 184.96458Q24.096888 185.21458 24.096888 185.79271Q24.096888 186.24583 24.331263 186.62083Q24.565638 186.99583 25.018763 187.16771Q25.471888 187.33958 26.315638 187.33958L29.550013 187.33958L29.550013 188.38646ZM27.550013 173.13646L27.675013 172.04271Q28.628138 172.29271 29.159388 172.99583Q29.690638 173.69896 29.690638 174.77708Q29.690638 176.13646 28.846888 176.94896Q28.003138 177.74583 26.487513 177.74583Q24.925013 177.74583 24.065638 176.93333Q23.190638 176.12083 23.190638 174.83958Q23.190638 173.58958 24.034388 172.80833Q24.878138 172.01146 26.425013 172.01146Q26.518763 172.01146 26.706263 172.01146L26.706263 176.65208Q27.737513 176.58958 28.284388 176.07396Q28.815638 175.55833 28.815638 174.77708Q28.815638 174.19896 28.518763 173.79271Q28.206263 173.37083 27.550013 173.13646ZM25.846888 176.58958L25.846888 173.12083Q25.050013 173.18333 24.659388 173.51146Q24.050013 174.02708 24.050013 174.82396Q24.050013 175.55833 24.534388 176.05833Q25.018763 176.54271 25.846888 176.58958ZM27.690638 170.80833L27.534388 169.77708Q28.159388 169.68333 28.487513 169.29271Q28.815638 168.88646 28.815638 168.15208Q28.815638 167.43333 28.534388 167.08958Q28.237513 166.73021 27.831263 166.73021Q27.471888 166.73021 27.268763 167.04271Q27.128138 167.26146 26.909388 168.12083Q26.612513 169.27708 26.409388 169.73021Q26.190638 170.16771 25.815638 170.40208Q25.440638 170.63646 24.971888 170.63646Q24.565638 170.63646 24.206263 170.44896Q23.846888 170.26146 23.612513 169.93333Q23.440638 169.68333 23.315638 169.26146Q23.190638 168.83958 23.190638 168.33958Q23.190638 167.62083 23.409388 167.07396Q23.612513 166.51146 23.971888 166.24583Q24.331263 165.98021 24.925013 165.88646L25.065638 166.91771Q24.596888 166.98021 24.331263 167.32396Q24.050013 167.65208 24.050013 168.27708Q24.050013 168.99583 24.300013 169.30833Q24.534388 169.62083 24.862513 169.62083Q25.065638 169.62083 25.221888 169.49583Q25.393763 169.35521 25.503138 169.08958Q25.565638 168.93333 25.768763 168.15208Q26.081263 167.02708 26.268763 166.58958Q26.456263 166.15208 26.815638 165.90208Q27.175013 165.65208 27.721888 165.65208Q28.253138 165.65208 28.721888 165.96458Q29.175013 166.26146 29.440638 166.83958Q29.690638 167.41771 29.690638 168.15208Q29.690638 169.37083 29.190638 170.01146Q28.675013 170.63646 27.690638 170.80833ZM26.784388 160.63646L26.690638 159.57396Q27.346888 159.49583 27.753138 159.21458Q28.159388 158.93333 28.425013 158.35521Q28.675013 157.76146 28.675013 157.02708Q28.675013 156.38646 28.487513 155.88646Q28.284388 155.38646 27.956263 155.15208Q27.612513 154.90208 27.221888 154.90208Q26.815638 154.90208 26.518763 155.13646Q26.206263 155.37083 26.003138 155.90208Q25.862513 156.26146 25.581263 157.44896Q25.300013 158.62083 25.050013 159.08958Q24.721888 159.71458 24.253138 160.01146Q23.768763 160.30833 23.175013 160.30833Q22.534388 160.30833 21.971888 159.94896Q21.393763 159.57396 21.112513 158.87083Q20.815638 158.15208 20.815638 157.29271Q20.815638 156.33958 21.128138 155.60521Q21.425013 154.87083 22.034388 154.48021Q22.628138 154.08958 23.378138 154.05833L23.456263 155.15208Q22.643763 155.24583 22.237513 155.76146Q21.815638 156.26146 21.815638 157.24583Q21.815638 158.27708 22.190638 158.74583Q22.565638 159.21458 23.096888 159.21458Q23.565638 159.21458 23.862513 158.88646Q24.159388 158.55833 24.471888 157.18333Q24.784388 155.79271 25.018763 155.27708Q25.378138 154.52708 25.909388 154.16771Q26.425013 153.80833 27.128138 153.80833Q27.815638 153.80833 28.425013 154.19896Q29.018763 154.58958 29.362513 155.32396Q29.690638 156.05833 29.690638 156.98021Q29.690638 158.15208 29.362513 158.94896Q29.018763 159.73021 28.331263 160.18333Q27.643763 160.62083 26.784388 160.63646ZM27.550013 148.13646L27.675013 147.04271Q28.628138 147.29271 29.159388 147.99583Q29.690638 148.69896 29.690638 149.77708Q29.690638 151.13646 28.846888 151.94896Q28.003138 152.74583 26.487513 152.74583Q24.925013 152.74583 24.065638 151.93333Q23.190638 151.12083 23.190638 149.83958Q23.190638 148.58958 24.034388 147.80833Q24.878138 147.01146 26.425013 147.01146Q26.518763 147.01146 26.706263 147.01146L26.706263 151.65208Q27.737513 151.58958 28.284388 151.07396Q28.815638 150.55833 28.815638 149.77708Q28.815638 149.19896 28.518763 148.79271Q28.206263 148.37083 27.550013 148.13646ZM25.846888 151.58958L25.846888 148.12083Q25.050013 148.18333 24.659388 148.51146Q24.050013 149.02708 24.050013 149.82396Q24.050013 150.55833 24.534388 151.05833Q25.018763 151.54271 25.846888 151.58958ZM29.550013 145.41771L20.956263 145.41771L20.956263 144.35521L29.550013 144.35521L29.550013 145.41771ZM27.550013 138.13646L27.675013 137.04271Q28.628138 137.29271 29.159388 137.99583Q29.690638 138.69896 29.690638 139.77708Q29.690638 141.13646 28.846888 141.94896Q28.003138 142.74583 26.487513 142.74583Q24.925013 142.74583 24.065638 141.93333Q23.190638 141.12083 23.190638 139.83958Q23.190638 138.58958 24.034388 137.80833Q24.878138 137.01146 26.425013 137.01146Q26.518763 137.01146 26.706263 137.01146L26.706263 141.65208Q27.737513 141.58958 28.284388 141.07396Q28.815638 140.55833 28.815638 139.77708Q28.815638 139.19896 28.518763 138.79271Q28.206263 138.37083 27.550013 138.13646ZM25.846888 141.58958L25.846888 138.12083Q25.050013 138.18333 24.659388 138.51146Q24.050013 139.02708 24.050013 139.82396Q24.050013 140.55833 24.534388 141.05833Q25.018763 141.54271 25.846888 141.58958ZM27.268763 131.32396L27.409388 130.29271Q28.471888 130.46458 29.081263 131.16771Q29.690638 131.87083 29.690638 132.88646Q29.690638 134.16771 28.862513 134.94896Q28.018763 135.71458 26.456263 135.71458Q25.456263 135.71458 24.706263 135.38646Q23.940638 135.04271 23.565638 134.37083Q23.190638 133.68333 23.190638 132.87083Q23.190638 131.87083 23.706263 131.23021Q24.206263 130.57396 25.159388 130.38646L25.315638 131.41771Q24.690638 131.55833 24.378138 131.93333Q24.050013 132.30833 24.050013 132.83958Q24.050013 133.63646 24.628138 134.13646Q25.190638 134.63646 26.425013 134.63646Q27.690638 134.63646 28.253138 134.15208Q28.815638 133.66771 28.815638 132.90208Q28.815638 132.27708 28.440638 131.87083Q28.065638 131.44896 27.268763 131.32396ZM28.612513 127.089584L29.534388 126.933334Q29.628138 127.38646 29.628138 127.73021Q29.628138 128.30833 29.456263 128.62083Q29.268763 128.93333 28.971888 129.07396Q28.675013 129.19896 27.721888 129.19896L24.143763 129.19896L24.143763 129.96458L23.331263 129.96458L23.331263 129.19896L21.784388 129.19896L21.159388 128.15208L23.331263 128.15208L23.331263 127.089584L24.143763 127.089584L24.143763 128.15208L27.784388 128.15208Q28.237513 128.15208 28.362513 128.10521Q28.487513 128.04271 28.565638 127.91771Q28.643763 127.79271 28.643763 127.558334Q28.643763 127.370834 28.612513 127.089584ZM27.550013 122.13646L27.675013 121.04271Q28.628138 121.29271 29.159388 121.995834Q29.690638 122.69896 29.690638 123.777084Q29.690638 125.13646 28.846888 125.94896Q28.003138 126.745834 26.487513 126.745834Q24.925013 126.745834 24.065638 125.933334Q23.190638 125.120834 23.190638 123.839584Q23.190638 122.589584 24.034388 121.808334Q24.878138 121.01146 26.425013 121.01146Q26.518763 121.01146 26.706263 121.01146L26.706263 125.652084Q27.737513 125.589584 28.284388 125.07396Q28.815638 124.558334 28.815638 123.777084Q28.815638 123.19896 28.518763 122.79271Q28.206263 122.370834 27.550013 122.13646ZM25.846888 125.589584L25.846888 122.120834Q25.050013 122.183334 24.659388 122.51146Q24.050013 123.027084 24.050013 123.82396Q24.050013 124.558334 24.534388 125.058334Q25.018763 125.54271 25.846888 125.589584ZM29.550013 115.35521L28.768763 115.35521Q29.690638 115.94896 29.690638 117.089584Q29.690638 117.839584 29.284388 118.464584Q28.862513 119.089584 28.128138 119.433334Q27.393763 119.777084 26.440638 119.777084Q25.518763 119.777084 24.753138 119.464584Q23.987513 119.152084 23.596888 118.527084Q23.190638 117.902084 23.190638 117.13646Q23.190638 116.57396 23.425013 116.13646Q23.659388 115.69896 24.034388 115.41771L20.956263 115.41771L20.956263 114.370834L29.550013 114.370834L29.550013 115.35521ZM26.440638 118.683334Q27.643763 118.683334 28.237513 118.183334Q28.815638 117.683334 28.815638 116.995834Q28.815638 116.308334 28.253138 115.82396Q27.690638 115.339584 26.534388 115.339584Q25.253138 115.339584 24.659388 115.839584Q24.065638 116.32396 24.065638 117.04271Q24.065638 117.745834 24.643763 118.214584Q25.206263 118.683334 26.440638 118.683334Z" fill-rule="nonzero"/><path fill="#000000" d="M72.05 300.21564Q72.05 298.6844 72.3625 297.7625Q72.675 296.825 73.28438 296.325Q73.90938 295.825 74.84688 295.825Q75.53438 295.825 76.05 296.10626Q76.58125 296.3875 76.925 296.91876Q77.26875 297.4344 77.45625 298.1844Q77.64375 298.9344 77.64375 300.21564Q77.64375 301.73126 77.33125 302.65314Q77.03438 303.575 76.40938 304.09064Q75.8 304.59064 74.84688 304.59064Q73.6125 304.59064 72.89375 303.7Q72.05 302.6375 72.05 300.21564ZM73.12813 300.21564Q73.12813 302.325 73.62813 303.02814Q74.12813 303.73126 74.84688 303.73126Q75.58125 303.73126 76.06563 303.02814Q76.56563 302.325 76.56563 300.21564Q76.56563 298.09064 76.06563 297.40314Q75.58125 296.7 74.83125 296.7Q74.1125 296.7 73.675 297.3094Q73.12813 298.09064 73.12813 300.21564Z" fill-rule="nonzero"/><path fill="#000000" d="M55.01875 256.74335L53.971874 256.74335L53.971874 250.0246Q53.58125 250.38397 52.95625 250.75897Q52.346874 251.11835 51.8625 251.29022L51.8625 250.2746Q52.7375 249.85272 53.39375 249.2746Q54.065624 248.68085 54.346874 248.11835L55.01875 248.11835L55.01875 256.74335ZM58.05 252.50897Q58.05 250.97772 58.3625 250.05585Q58.675 249.11835 59.284374 248.61835Q59.909374 248.11835 60.846874 248.11835Q61.534374 248.11835 62.05 248.3996Q62.58125 248.68085 62.925 249.2121Q63.26875 249.72772 63.45625 250.47772Q63.64375 251.22772 63.64375 252.50897Q63.64375 254.0246 63.33125 254.94647Q63.034374 255.86835 62.409374 256.38397Q61.8 256.88397 60.846874 256.88397Q59.6125 256.88397 58.89375 255.99335Q58.05 254.93085 58.05 252.50897ZM59.128124 252.50897Q59.128124 254.61835 59.628124 255.32147Q60.128124 256.0246 60.846874 256.0246Q61.58125 256.0246 62.065624 255.32147Q62.565624 254.61835 62.565624 252.50897Q62.565624 250.38397 62.065624 249.69647Q61.58125 248.99335 60.83125 248.99335Q60.1125 248.99335 59.675 249.60272Q59.128124 250.38397 59.128124 252.50897ZM65.05 252.50897Q65.05 250.97772 65.3625 250.05585Q65.675 249.11835 66.28438 248.61835Q66.90938 248.11835 67.84688 248.11835Q68.53438 248.11835 69.05 248.3996Q69.58125 248.68085 69.925 249.2121Q70.26875 249.72772 70.45625 250.47772Q70.64375 251.22772 70.64375 252.50897Q70.64375 254.0246 70.33125 254.94647Q70.03438 255.86835 69.40938 256.38397Q68.8 256.88397 67.84688 256.88397Q66.6125 256.88397 65.89375 255.99335Q65.05 254.93085 65.05 252.50897ZM66.12813 252.50897Q66.12813 254.61835 66.62813 255.32147Q67.12813 256.0246 67.84688 256.0246Q68.58125 256.0246 69.06563 255.32147Q69.56563 254.61835 69.56563 252.50897Q69.56563 250.38397 69.06563 249.69647Q68.58125 248.99335 67.83125 248.99335Q67.1125 248.99335 66.675 249.60272Q66.12813 250.38397 66.12813 252.50897ZM72.05 252.50897Q72.05 250.97772 72.3625 250.05585Q72.675 249.11835 73.28438 248.61835Q73.90938 248.11835 74.84688 248.11835Q75.53438 248.11835 76.05 248.3996Q76.58125 248.68085 76.925 249.2121Q77.26875 249.72772 77.45625 250.47772Q77.64375 251.22772 77.64375 252.50897Q77.64375 254.0246 77.33125 254.94647Q77.03438 255.86835 76.40938 256.38397Q75.8 256.88397 74.84688 256.88397Q73.6125 256.88397 72.89375 255.99335Q72.05 254.93085 72.05 252.50897ZM73.12813 252.50897Q73.12813 254.61835 73.62813 255.32147Q74.12813 256.0246 74.84688 256.0246Q75.58125 256.0246 76.06563 255.32147Q76.56563 254.61835 76.56563 252.50897Q76.56563 250.38397 76.06563 249.69647Q75.58125 248.99335 74.83125 248.99335Q74.1125 248.99335 73.675 249.60272Q73.12813 250.38397 73.12813 252.50897Z" fill-rule="nonzero"/><path fill="#000000" d="M56.596874 208.02104L56.596874 209.03667L50.909374 209.03667Q50.909374 208.66167 51.034374 208.30229Q51.253124 207.72417 51.721874 207.16167Q52.20625 206.59917 53.1125 205.86479Q54.51875 204.70854 55.003124 204.03667Q55.503124 203.36479 55.503124 202.77104Q55.503124 202.14604 55.05 201.72417Q54.596874 201.28667 53.878124 201.28667Q53.1125 201.28667 52.659374 201.73979Q52.20625 202.19292 52.190624 203.00542L51.1125 202.89604Q51.221874 201.67729 51.940624 201.05229Q52.675 200.41167 53.909374 200.41167Q55.14375 200.41167 55.8625 201.09917Q56.58125 201.78667 56.58125 202.80229Q56.58125 203.31792 56.3625 203.81792Q56.159374 204.30229 55.659374 204.86479Q55.175 205.41167 54.05 206.36479Q53.096874 207.16167 52.815624 207.45854Q52.55 207.73979 52.378124 208.02104L56.596874 208.02104ZM58.05 204.80229Q58.05 203.27104 58.3625 202.34917Q58.675 201.41167 59.284374 200.91167Q59.909374 200.41167 60.846874 200.41167Q61.534374 200.41167 62.05 200.69292Q62.58125 200.97417 62.925 201.50542Q63.26875 202.02104 63.45625 202.77104Q63.64375 203.52104 63.64375 204.80229Q63.64375 206.31792 63.33125 207.23979Q63.034374 208.16167 62.409374 208.67729Q61.8 209.17729 60.846874 209.17729Q59.6125 209.17729 58.89375 208.28667Q58.05 207.22417 58.05 204.80229ZM59.128124 204.80229Q59.128124 206.91167 59.628124 207.61479Q60.128124 208.31792 60.846874 208.31792Q61.58125 208.31792 62.065624 207.61479Q62.565624 206.91167 62.565624 204.80229Q62.565624 202.67729 62.065624 201.98979Q61.58125 201.28667 60.83125 201.28667Q60.1125 201.28667 59.675 201.89604Q59.128124 202.67729 59.128124 204.80229ZM65.05 204.80229Q65.05 203.27104 65.3625 202.34917Q65.675 201.41167 66.28438 200.91167Q66.90938 200.41167 67.84688 200.41167Q68.53438 200.41167 69.05 200.69292Q69.58125 200.97417 69.925 201.50542Q70.26875 202.02104 70.45625 202.77104Q70.64375 203.52104 70.64375 204.80229Q70.64375 206.31792 70.33125 207.23979Q70.03438 208.16167 69.40938 208.67729Q68.8 209.17729 67.84688 209.17729Q66.6125 209.17729 65.89375 208.28667Q65.05 207.22417 65.05 204.80229ZM66.12813 204.80229Q66.12813 206.91167 66.62813 207.61479Q67.12813 208.31792 67.84688 208.31792Q68.58125 208.31792 69.06563 207.61479Q69.56563 206.91167 69.56563 204.80229Q69.56563 202.67729 69.06563 201.98979Q68.58125 201.28667 67.83125 201.28667Q67.1125 201.28667 66.675 201.89604Q66.12813 202.67729 66.12813 204.80229ZM72.05 204.80229Q72.05 203.27104 72.3625 202.34917Q72.675 201.41167 73.28438 200.91167Q73.90938 200.41167 74.84688 200.41167Q75.53438 200.41167 76.05 200.69292Q76.58125 200.97417 76.925 201.50542Q77.26875 202.02104 77.45625 202.77104Q77.64375 203.52104 77.64375 204.80229Q77.64375 206.31792 77.33125 207.23979Q77.03438 208.16167 76.40938 208.67729Q75.8 209.17729 74.84688 209.17729Q73.6125 209.17729 72.89375 208.28667Q72.05 207.22417 72.05 204.80229ZM73.12813 204.80229Q73.12813 206.91167 73.62813 207.61479Q74.12813 208.31792 74.84688 208.31792Q75.58125 208.31792 76.06563 207.61479Q76.56563 206.91167 76.56563 204.80229Q76.56563 202.67729 76.06563 201.98979Q75.58125 201.28667 74.83125 201.28667Q74.1125 201.28667 73.675 201.89604Q73.12813 202.67729 73.12813 204.80229Z" fill-rule="nonzero"/><path fill="#000000" d="M51.05 159.06438L52.1125 158.92375Q52.284374 159.81438 52.721874 160.22063Q53.159374 160.61125 53.784374 160.61125Q54.534374 160.61125 55.05 160.09563Q55.565624 159.58 55.565624 158.81438Q55.565624 158.09563 55.08125 157.62688Q54.6125 157.1425 53.878124 157.1425Q53.58125 157.1425 53.128124 157.2675L53.253124 156.33Q53.3625 156.34563 53.425 156.34563Q54.096874 156.34563 54.628124 156.00188Q55.175 155.6425 55.175 154.90813Q55.175 154.33 54.784374 153.955Q54.39375 153.56438 53.76875 153.56438Q53.159374 153.56438 52.7375 153.955Q52.33125 154.34563 52.221874 155.11125L51.159374 154.92375Q51.346874 153.87688 52.034374 153.29875Q52.721874 152.705 53.7375 152.705Q54.440624 152.705 55.034374 153.0175Q55.628124 153.31438 55.940624 153.83Q56.253124 154.34563 56.253124 154.93938Q56.253124 155.48625 55.95625 155.955Q55.659374 156.40813 55.08125 156.67375Q55.83125 156.84563 56.253124 157.40813Q56.675 157.955 56.675 158.79875Q56.675 159.92375 55.846874 160.705Q55.034374 161.48625 53.784374 161.48625Q52.659374 161.48625 51.909374 160.81438Q51.159374 160.12688 51.05 159.06438ZM58.05 157.09563Q58.05 155.56438 58.3625 154.6425Q58.675 153.705 59.284374 153.205Q59.909374 152.705 60.846874 152.705Q61.534374 152.705 62.05 152.98625Q62.58125 153.2675 62.925 153.79875Q63.26875 154.31438 63.45625 155.06438Q63.64375 155.81438 63.64375 157.09563Q63.64375 158.61125 63.33125 159.53313Q63.034374 160.455 62.409374 160.97063Q61.8 161.47063 60.846874 161.47063Q59.6125 161.47063 58.89375 160.58Q58.05 159.5175 58.05 157.09563ZM59.128124 157.09563Q59.128124 159.205 59.628124 159.90813Q60.128124 160.61125 60.846874 160.61125Q61.58125 160.61125 62.065624 159.90813Q62.565624 159.205 62.565624 157.09563Q62.565624 154.97063 62.065624 154.28313Q61.58125 153.58 60.83125 153.58Q60.1125 153.58 59.675 154.18938Q59.128124 154.97063 59.128124 157.09563ZM65.05 157.09563Q65.05 155.56438 65.3625 154.6425Q65.675 153.705 66.28438 153.205Q66.90938 152.705 67.84688 152.705Q68.53438 152.705 69.05 152.98625Q69.58125 153.2675 69.925 153.79875Q70.26875 154.31438 70.45625 155.06438Q70.64375 155.81438 70.64375 157.09563Q70.64375 158.61125 70.33125 159.53313Q70.03438 160.455 69.40938 160.97063Q68.8 161.47063 67.84688 161.47063Q66.6125 161.47063 65.89375 160.58Q65.05 159.5175 65.05 157.09563ZM66.12813 157.09563Q66.12813 159.205 66.62813 159.90813Q67.12813 160.61125 67.84688 160.61125Q68.58125 160.61125 69.06563 159.90813Q69.56563 159.205 69.56563 157.09563Q69.56563 154.97063 69.06563 154.28313Q68.58125 153.58 67.83125 153.58Q67.1125 153.58 66.675 154.18938Q66.12813 154.97063 66.12813 157.09563ZM72.05 157.09563Q72.05 155.56438 72.3625 154.6425Q72.675 153.705 73.28438 153.205Q73.90938 152.705 74.84688 152.705Q75.53438 152.705 76.05 152.98625Q76.58125 153.2675 76.925 153.79875Q77.26875 154.31438 77.45625 155.06438Q77.64375 155.81438 77.64375 157.09563Q77.64375 158.61125 77.33125 159.53313Q77.03438 160.455 76.40938 160.97063Q75.8 161.47063 74.84688 161.47063Q73.6125 161.47063 72.89375 160.58Q72.05 159.5175 72.05 157.09563ZM73.12813 157.09563Q73.12813 159.205 73.62813 159.90813Q74.12813 160.61125 74.84688 160.61125Q75.58125 160.61125 76.06563 159.90813Q76.56563 159.205 76.56563 157.09563Q76.56563 154.97063 76.06563 154.28313Q75.58125 153.58 74.83125 153.58Q74.1125 153.58 73.675 154.18938Q73.12813 154.97063 73.12813 157.09563Z" fill-rule="nonzero"/><path fill="#000000" d="M54.425 113.62334L54.425 111.56084L50.70625 111.56084L50.70625 110.59209L54.628124 105.02959L55.4875 105.02959L55.4875 110.59209L56.64375 110.59209L56.64375 111.56084L55.4875 111.56084L55.4875 113.62334L54.425 113.62334ZM54.425 110.59209L54.425 106.73271L51.7375 110.59209L54.425 110.59209ZM58.05 109.38896Q58.05 107.85771 58.3625 106.93584Q58.675 105.99834 59.284374 105.49834Q59.909374 104.99834 60.846874 104.99834Q61.534374 104.99834 62.05 105.27959Q62.58125 105.56084 62.925 106.09209Q63.26875 106.60771 63.45625 107.35771Q63.64375 108.10771 63.64375 109.38896Q63.64375 110.90459 63.33125 111.82646Q63.034374 112.74834 62.409374 113.26396Q61.8 113.76396 60.846874 113.76396Q59.6125 113.76396 58.89375 112.87334Q58.05 111.81084 58.05 109.38896ZM59.128124 109.38896Q59.128124 111.49834 59.628124 112.20146Q60.128124 112.90459 60.846874 112.90459Q61.58125 112.90459 62.065624 112.20146Q62.565624 111.49834 62.565624 109.38896Q62.565624 107.26396 62.065624 106.57646Q61.58125 105.87334 60.83125 105.87334Q60.1125 105.87334 59.675 106.48271Q59.128124 107.26396 59.128124 109.38896ZM65.05 109.38896Q65.05 107.85771 65.3625 106.93584Q65.675 105.99834 66.28438 105.49834Q66.90938 104.99834 67.84688 104.99834Q68.53438 104.99834 69.05 105.27959Q69.58125 105.56084 69.925 106.09209Q70.26875 106.60771 70.45625 107.35771Q70.64375 108.10771 70.64375 109.38896Q70.64375 110.90459 70.33125 111.82646Q70.03438 112.74834 69.40938 113.26396Q68.8 113.76396 67.84688 113.76396Q66.6125 113.76396 65.89375 112.87334Q65.05 111.81084 65.05 109.38896ZM66.12813 109.38896Q66.12813 111.49834 66.62813 112.20146Q67.12813 112.90459 67.84688 112.90459Q68.58125 112.90459 69.06563 112.20146Q69.56563 111.49834 69.56563 109.38896Q69.56563 107.26396 69.06563 106.57646Q68.58125 105.87334 67.83125 105.87334Q67.1125 105.87334 66.675 106.48271Q66.12813 107.26396 66.12813 109.38896ZM72.05 109.38896Q72.05 107.85771 72.3625 106.93584Q72.675 105.99834 73.28438 105.49834Q73.90938 104.99834 74.84688 104.99834Q75.53438 104.99834 76.05 105.27959Q76.58125 105.56084 76.925 106.09209Q77.26875 106.60771 77.45625 107.35771Q77.64375 108.10771 77.64375 109.38896Q77.64375 110.90459 77.33125 111.82646Q77.03438 112.74834 76.40938 113.26396Q75.8 113.76396 74.84688 113.76396Q73.6125 113.76396 72.89375 112.87334Q72.05 111.81084 72.05 109.38896ZM73.12813 109.38896Q73.12813 111.49834 73.62813 112.20146Q74.12813 112.90459 74.84688 112.90459Q75.58125 112.90459 76.06563 112.20146Q76.56563 111.49834 76.56563 109.38896Q76.56563 107.26396 76.06563 106.57646Q75.58125 105.87334 74.83125 105.87334Q74.1125 105.87334 73.675 106.48271Q73.12813 107.26396 73.12813 109.38896Z" fill-rule="nonzero"/><path fill="#000000" d="M51.05 63.666664L52.159374 63.572914Q52.284374 64.385414 52.721874 64.791664Q53.175 65.197914 53.815624 65.197914Q54.565624 65.197914 55.096874 64.61979Q55.628124 64.041664 55.628124 63.104164Q55.628124 62.197914 55.1125 61.68229Q54.6125 61.15104 53.784374 61.15104Q53.284374 61.15104 52.8625 61.385414Q52.45625 61.61979 52.221874 61.979164L51.2375 61.854164L52.065624 57.447914L56.346874 57.447914L56.346874 58.447914L52.909374 58.447914L52.45625 60.760414Q53.221874 60.21354 54.065624 60.21354Q55.190624 60.21354 55.95625 60.99479Q56.7375 61.77604 56.7375 63.010414Q56.7375 64.166664 56.065624 65.02604Q55.2375 66.05729 53.815624 66.05729Q52.64375 66.05729 51.89375 65.40104Q51.159374 64.74479 51.05 63.666664ZM58.05 61.68229Q58.05 60.15104 58.3625 59.229164Q58.675 58.291664 59.284374 57.791664Q59.909374 57.291664 60.846874 57.291664Q61.534374 57.291664 62.05 57.572914Q62.58125 57.854164 62.925 58.385414Q63.26875 58.90104 63.45625 59.65104Q63.64375 60.40104 63.64375 61.68229Q63.64375 63.197914 63.33125 64.11979Q63.034374 65.041664 62.409374 65.55729Q61.8 66.05729 60.846874 66.05729Q59.6125 66.05729 58.89375 65.166664Q58.05 64.104164 58.05 61.68229ZM59.128124 61.68229Q59.128124 63.791664 59.628124 64.49479Q60.128124 65.197914 60.846874 65.197914Q61.58125 65.197914 62.065624 64.49479Q62.565624 63.791664 62.565624 61.68229Q62.565624 59.55729 62.065624 58.86979Q61.58125 58.166664 60.83125 58.166664Q60.1125 58.166664 59.675 58.77604Q59.128124 59.55729 59.128124 61.68229ZM65.05 61.68229Q65.05 60.15104 65.3625 59.229164Q65.675 58.291664 66.28438 57.791664Q66.90938 57.291664 67.84688 57.291664Q68.53438 57.291664 69.05 57.572914Q69.58125 57.854164 69.925 58.385414Q70.26875 58.90104 70.45625 59.65104Q70.64375 60.40104 70.64375 61.68229Q70.64375 63.197914 70.33125 64.11979Q70.03438 65.041664 69.40938 65.55729Q68.8 66.05729 67.84688 66.05729Q66.6125 66.05729 65.89375 65.166664Q65.05 64.104164 65.05 61.68229ZM66.12813 61.68229Q66.12813 63.791664 66.62813 64.49479Q67.12813 65.197914 67.84688 65.197914Q68.58125 65.197914 69.06563 64.49479Q69.56563 63.791664 69.56563 61.68229Q69.56563 59.55729 69.06563 58.86979Q68.58125 58.166664 67.83125 58.166664Q67.1125 58.166664 66.675 58.77604Q66.12813 59.55729 66.12813 61.68229ZM72.05 61.68229Q72.05 60.15104 72.3625 59.229164Q72.675 58.291664 73.28438 57.791664Q73.90938 57.291664 74.84688 57.291664Q75.53438 57.291664 76.05 57.572914Q76.58125 57.854164 76.925 58.385414Q77.26875 58.90104 77.45625 59.65104Q77.64375 60.40104 77.64375 61.68229Q77.64375 63.197914 77.33125 64.11979Q77.03438 65.041664 76.40938 65.55729Q75.8 66.05729 74.84688 66.05729Q73.6125 66.05729 72.89375 65.166664Q72.05 64.104164 72.05 61.68229ZM73.12813 61.68229Q73.12813 63.791664 73.62813 64.49479Q74.12813 65.197914 74.84688 65.197914Q75.58125 65.197914 76.06563 64.49479Q76.56563 63.791664 76.56563 61.68229Q76.56563 59.55729 76.06563 58.86979Q75.58125 58.166664 74.83125 58.166664Q74.1125 58.166664 73.675 58.77604Q73.12813 59.55729 73.12813 61.68229Z" fill-rule="nonzero"/><path fill="#000000" d="M102.000694 317.45L100.95382 317.45L100.95382 310.73126Q100.563194 311.09064 99.938194 311.46564Q99.32882 311.825 98.844444 311.9969L98.844444 310.98126Q99.719444 310.5594 100.375694 309.98126Q101.04757 309.3875 101.32882 308.825L102.000694 308.825L102.000694 317.45Z" fill-rule="nonzero"/><path fill="#000000" d="M127.996506 316.4344L127.996506 317.45L122.309006 317.45Q122.309006 317.075 122.434006 316.71564Q122.652756 316.1375 123.121506 315.575Q123.60588 315.0125 124.51213 314.27814Q125.91838 313.1219 126.402756 312.45Q126.902756 311.77814 126.902756 311.1844Q126.902756 310.5594 126.44963 310.1375Q125.996506 309.7 125.277756 309.7Q124.51213 309.7 124.059006 310.15314Q123.60588 310.60626 123.590256 311.41876L122.51213 311.3094Q122.621506 310.09064 123.340256 309.46564Q124.07463 308.825 125.309006 308.825Q126.54338 308.825 127.26213 309.5125Q127.98088 310.2 127.98088 311.21564Q127.98088 311.73126 127.76213 312.23126Q127.559006 312.71564 127.059006 313.27814Q126.57463 313.825 125.44963 314.77814Q124.496506 315.575 124.215256 315.8719Q123.94963 316.15314 123.777756 316.4344L127.996506 316.4344Z" fill-rule="nonzero"/><path fill="#000000" d="M146.86732 315.1844L147.92982 315.04376Q148.1017 315.9344 148.5392 316.34064Q148.9767 316.73126 149.6017 316.73126Q150.3517 316.73126 150.86732 316.21564Q151.38295 315.7 151.38295 314.9344Q151.38295 314.21564 150.89857 313.7469Q150.42982 313.2625 149.69545 313.2625Q149.39857 313.2625 148.94545 313.3875L149.07045 312.45Q149.17982 312.46564 149.24232 312.46564Q149.9142 312.46564 150.44545 312.1219Q150.99232 311.7625 150.99232 311.02814Q150.99232 310.45 150.6017 310.075Q150.21107 309.6844 149.58607 309.6844Q148.9767 309.6844 148.55482 310.075Q148.14857 310.46564 148.0392 311.23126L146.9767 311.04376Q147.1642 309.9969 147.8517 309.41876Q148.5392 308.825 149.55482 308.825Q150.25795 308.825 150.8517 309.1375Q151.44545 309.4344 151.75795 309.95Q152.07045 310.46564 152.07045 311.0594Q152.07045 311.60626 151.77357 312.075Q151.4767 312.52814 150.89857 312.79376Q151.64857 312.96564 152.07045 313.52814Q152.49232 314.075 152.49232 314.91876Q152.49232 316.04376 151.6642 316.825Q150.8517 317.60626 149.6017 317.60626Q148.4767 317.60626 147.7267 316.9344Q146.9767 316.2469 146.86732 315.1844Z" fill-rule="nonzero"/><path fill="#000000" d="M174.66002 317.45L174.66002 315.3875L170.94127 315.3875L170.94127 314.41876L174.86314 308.85626L175.72252 308.85626L175.72252 314.41876L176.87877 314.41876L176.87877 315.3875L175.72252 315.3875L175.72252 317.45L174.66002 317.45ZM174.66002 314.41876L174.66002 310.5594L171.97252 314.41876L174.66002 314.41876Z" fill-rule="nonzero"/><path fill="#000000" d="M195.7027 315.2L196.81207 315.10626Q196.93707 315.91876 197.37457 316.325Q197.8277 316.73126 198.46832 316.73126Q199.21832 316.73126 199.74957 316.15314Q200.28082 315.575 200.28082 314.6375Q200.28082 313.73126 199.7652 313.21564Q199.2652 312.6844 198.43707 312.6844Q197.93707 312.6844 197.5152 312.91876Q197.10895 313.15314 196.87457 313.5125L195.8902 313.3875L196.71832 308.98126L200.99957 308.98126L200.99957 309.98126L197.56207 309.98126L197.10895 312.29376Q197.87457 311.7469 198.71832 311.7469Q199.84332 311.7469 200.60895 312.52814Q201.3902 313.3094 201.3902 314.54376Q201.3902 315.7 200.71832 316.5594Q199.8902 317.59064 198.46832 317.59064Q197.29645 317.59064 196.54645 316.9344Q195.81207 316.27814 195.7027 315.2Z" fill-rule="nonzero"/><path fill="#000000" d="M225.58914 310.96564L224.54227 311.04376Q224.40164 310.41876 224.15164 310.1375Q223.71414 309.6844 223.08914 309.6844Q222.58914 309.6844 222.19852 309.96564Q221.71414 310.34064 221.41727 311.04376Q221.13602 311.73126 221.12039 313.0125Q221.49539 312.4344 222.04227 312.15314Q222.60477 311.8719 223.21414 311.8719Q224.26102 311.8719 224.99539 312.65314Q225.74539 313.4344 225.74539 314.65314Q225.74539 315.46564 225.38602 316.16876Q225.04227 316.85626 224.43289 317.23126Q223.82352 317.59064 223.05789 317.59064Q221.72977 317.59064 220.90164 316.6219Q220.07352 315.65314 220.07352 313.4344Q220.07352 310.9344 220.99539 309.8094Q221.79227 308.825 223.15164 308.825Q224.16727 308.825 224.80789 309.40314Q225.46414 309.96564 225.58914 310.96564ZM221.29227 314.66876Q221.29227 315.21564 221.51102 315.71564Q221.74539 316.2 222.15164 316.46564Q222.57352 316.73126 223.04227 316.73126Q223.69852 316.73126 224.18289 316.2Q224.66727 315.65314 224.66727 314.73126Q224.66727 313.84064 224.18289 313.325Q223.71414 312.8094 222.99539 312.8094Q222.27664 312.8094 221.77664 313.325Q221.29227 313.84064 221.29227 314.66876Z" fill-rule="nonzero"/><path fill="#000000" d="M244.60059 309.98126L244.60059 308.96564L250.16309 308.96564L250.16309 309.79376Q249.35059 310.66876 248.53809 312.1219Q247.74121 313.5594 247.30371 315.09064Q246.97559 316.16876 246.89746 317.45L245.80371 317.45Q245.81934 316.4344 246.19434 314.9969Q246.58496 313.5594 247.28809 312.23126Q248.00684 310.90314 248.81934 309.98126L244.60059 309.98126Z" fill-rule="nonzero"/><path fill="#000000" d="M270.58078 312.79376Q269.92453 312.54376 269.5964 312.10626Q269.2839 311.65314 269.2839 311.04376Q269.2839 310.10626 269.95578 309.46564Q270.64328 308.825 271.75266 308.825Q272.87766 308.825 273.56516 309.48126Q274.25266 310.1375 274.25266 311.075Q274.25266 311.66876 273.94016 312.10626Q273.62766 312.54376 272.98703 312.79376Q273.7839 313.04376 274.19016 313.6219Q274.5964 314.2 274.5964 314.9969Q274.5964 316.09064 273.81516 316.84064Q273.04953 317.59064 271.76828 317.59064Q270.50266 317.59064 269.7214 316.84064Q268.94016 316.09064 268.94016 314.96564Q268.94016 314.1219 269.36203 313.5594Q269.79953 312.9969 270.58078 312.79376ZM270.36203 310.9969Q270.36203 311.60626 270.75266 311.9969Q271.1589 312.3875 271.7839 312.3875Q272.39328 312.3875 272.7839 312.0125Q273.17453 311.6219 273.17453 311.0594Q273.17453 310.48126 272.76828 310.09064Q272.36203 309.6844 271.76828 309.6844Q271.1589 309.6844 270.75266 310.075Q270.36203 310.46564 270.36203 310.9969ZM270.0339 314.96564Q270.0339 315.41876 270.23703 315.84064Q270.45578 316.2625 270.87766 316.4969Q271.29953 316.73126 271.7839 316.73126Q272.5339 316.73126 273.01828 316.2469Q273.51828 315.7625 273.51828 315.0125Q273.51828 314.2469 273.01828 313.7469Q272.51828 313.2469 271.75266 313.2469Q271.00266 313.2469 270.51828 313.7469Q270.0339 314.23126 270.0339 314.96564Z" fill-rule="nonzero"/><path fill="#000000" d="M293.52972 315.46564L294.54535 315.3719Q294.67035 316.09064 295.02972 316.41876Q295.40472 316.73126 295.96722 316.73126Q296.4516 316.73126 296.81097 316.5125Q297.18597 316.27814 297.42035 315.91876Q297.65472 315.54376 297.81097 314.91876Q297.96722 314.27814 297.96722 313.6219Q297.96722 313.54376 297.96722 313.40314Q297.65472 313.90314 297.10785 314.23126Q296.56097 314.54376 295.92035 314.54376Q294.84222 314.54376 294.10785 313.77814Q293.37347 312.9969 293.37347 311.73126Q293.37347 310.41876 294.1391 309.6219Q294.92035 308.825 296.0766 308.825Q296.90472 308.825 297.59222 309.27814Q298.29535 309.73126 298.65472 310.575Q299.0141 311.40314 299.0141 312.98126Q299.0141 314.6219 298.65472 315.60626Q298.31097 316.575 297.59222 317.09064Q296.8891 317.59064 295.9516 317.59064Q294.93597 317.59064 294.29535 317.04376Q293.65472 316.48126 293.52972 315.46564ZM297.84222 311.66876Q297.84222 310.7625 297.35785 310.23126Q296.8891 309.7 296.2016 309.7Q295.49847 309.7 294.96722 310.27814Q294.4516 310.84064 294.4516 311.7625Q294.4516 312.575 294.9516 313.09064Q295.4516 313.60626 296.17035 313.60626Q296.90472 313.60626 297.37347 313.09064Q297.84222 312.575 297.84222 311.66876Z" fill-rule="nonzero"/><path fill="#000000" d="M318.25992 317.45L317.21304 317.45L317.21304 310.73126Q316.82242 311.09064 316.19742 311.46564Q315.58804 311.825 315.10367 311.9969L315.10367 310.98126Q315.97867 310.5594 316.63492 309.98126Q317.3068 309.3875 317.58804 308.825L318.25992 308.825L318.25992 317.45ZM321.29117 313.21564Q321.29117 311.6844 321.60367 310.7625Q321.91617 309.825 322.52554 309.325Q323.15054 308.825 324.08804 308.825Q324.77554 308.825 325.29117 309.10626Q325.82242 309.3875 326.16617 309.91876Q326.50992 310.4344 326.69742 311.1844Q326.88492 311.9344 326.88492 313.21564Q326.88492 314.73126 326.57242 315.65314Q326.27554 316.575 325.65054 317.09064Q325.04117 317.59064 324.08804 317.59064Q322.85367 317.59064 322.13492 316.7Q321.29117 315.6375 321.29117 313.21564ZM322.3693 313.21564Q322.3693 315.325 322.8693 316.02814Q323.3693 316.73126 324.08804 316.73126Q324.82242 316.73126 325.3068 316.02814Q325.8068 315.325 325.8068 313.21564Q325.8068 311.09064 325.3068 310.40314Q324.82242 309.7 324.07242 309.7Q323.35367 309.7 322.91617 310.3094Q322.3693 311.09064 322.3693 313.21564Z" fill-rule="nonzero"/><path fill="#000000" d="M342.67758 317.45L341.6307 317.45L341.6307 310.73126Q341.24008 311.09064 340.61508 311.46564Q340.0057 311.825 339.52133 311.9969L339.52133 310.98126Q340.39633 310.5594 341.05258 309.98126Q341.72446 309.3875 342.0057 308.825L342.67758 308.825L342.67758 317.45ZM349.67758 317.45L348.6307 317.45L348.6307 310.73126Q348.24008 311.09064 347.61508 311.46564Q347.0057 311.825 346.52133 311.9969L346.52133 310.98126Q347.39633 310.5594 348.05258 309.98126Q348.72446 309.3875 349.0057 308.825L349.67758 308.825L349.67758 317.45Z" fill-rule="nonzero"/><path fill="#000000" d="M367.09528 317.45L366.0484 317.45L366.0484 310.73126Q365.65778 311.09064 365.03278 311.46564Q364.4234 311.825 363.93903 311.9969L363.93903 310.98126Q364.81403 310.5594 365.47028 309.98126Q366.14215 309.3875 366.4234 308.825L367.09528 308.825L367.09528 317.45ZM375.6734 316.4344L375.6734 317.45L369.9859 317.45Q369.9859 317.075 370.1109 316.71564Q370.32965 316.1375 370.7984 315.575Q371.28278 315.0125 372.18903 314.27814Q373.59528 313.1219 374.07965 312.45Q374.57965 311.77814 374.57965 311.1844Q374.57965 310.5594 374.12653 310.1375Q373.6734 309.7 372.95465 309.7Q372.18903 309.7 371.7359 310.15314Q371.28278 310.60626 371.26715 311.41876L370.18903 311.3094Q370.2984 310.09064 371.01715 309.46564Q371.75153 308.825 372.9859 308.825Q374.22028 308.825 374.93903 309.5125Q375.65778 310.2 375.65778 311.21564Q375.65778 311.73126 375.43903 312.23126Q375.2359 312.71564 374.7359 313.27814Q374.25153 313.825 373.12653 314.77814Q372.1734 315.575 371.89215 315.8719Q371.62653 316.15314 371.45465 316.4344L375.6734 316.4344Z" fill-rule="nonzero"/><path fill="#000000" d="M391.51297 317.45L390.4661 317.45L390.4661 310.73126Q390.07547 311.09064 389.45047 311.46564Q388.8411 311.825 388.35672 311.9969L388.35672 310.98126Q389.23172 310.5594 389.88797 309.98126Q390.55984 309.3875 390.8411 308.825L391.51297 308.825L391.51297 317.45ZM394.54422 315.1844L395.60672 315.04376Q395.7786 315.9344 396.2161 316.34064Q396.6536 316.73126 397.2786 316.73126Q398.0286 316.73126 398.54422 316.21564Q399.05984 315.7 399.05984 314.9344Q399.05984 314.21564 398.57547 313.7469Q398.10672 313.2625 397.37234 313.2625Q397.07547 313.2625 396.62234 313.3875L396.74734 312.45Q396.85672 312.46564 396.91922 312.46564Q397.5911 312.46564 398.12234 312.1219Q398.66922 311.7625 398.66922 311.02814Q398.66922 310.45 398.2786 310.075Q397.88797 309.6844 397.26297 309.6844Q396.6536 309.6844 396.23172 310.075Q395.82547 310.46564 395.7161 311.23126L394.6536 311.04376Q394.8411 309.9969 395.5286 309.41876Q396.2161 308.825 397.23172 308.825Q397.93484 308.825 398.5286 309.1375Q399.12234 309.4344 399.43484 309.95Q399.74734 310.46564 399.74734 311.0594Q399.74734 311.60626 399.45047 312.075Q399.1536 312.52814 398.57547 312.79376Q399.32547 312.96564 399.74734 313.52814Q400.16922 314.075 400.16922 314.91876Q400.16922 316.04376 399.3411 316.825Q398.5286 317.60626 397.2786 317.60626Q396.1536 317.60626 395.4036 316.9344Q394.6536 316.2469 394.54422 315.1844Z" fill-rule="nonzero"/><path fill="#000000" d="M415.93066 317.45L414.8838 317.45L414.8838 310.73126Q414.49316 311.09064 413.86816 311.46564Q413.2588 311.825 412.7744 311.9969L412.7744 310.98126Q413.6494 310.5594 414.30566 309.98126Q414.97754 309.3875 415.2588 308.825L415.93066 308.825L415.93066 317.45ZM422.3369 317.45L422.3369 315.3875L418.61816 315.3875L418.61816 314.41876L422.54004 308.85626L423.3994 308.85626L423.3994 314.41876L424.55566 314.41876L424.55566 315.3875L423.3994 315.3875L423.3994 317.45L422.3369 317.45ZM422.3369 314.41876L422.3369 310.5594L419.6494 314.41876L422.3369 314.41876Z" fill-rule="nonzero"/><path fill="#000000" d="M440.34836 317.45L439.30148 317.45L439.30148 310.73126Q438.91086 311.09064 438.28586 311.46564Q437.67648 311.825 437.1921 311.9969L437.1921 310.98126Q438.0671 310.5594 438.72336 309.98126Q439.39523 309.3875 439.67648 308.825L440.34836 308.825L440.34836 317.45ZM443.3796 315.2L444.48898 315.10626Q444.61398 315.91876 445.05148 316.325Q445.5046 316.73126 446.14523 316.73126Q446.89523 316.73126 447.42648 316.15314Q447.95773 315.575 447.95773 314.6375Q447.95773 313.73126 447.4421 313.21564Q446.9421 312.6844 446.11398 312.6844Q445.61398 312.6844 445.1921 312.91876Q444.78586 313.15314 444.55148 313.5125L443.5671 313.3875L444.39523 308.98126L448.67648 308.98126L448.67648 309.98126L445.23898 309.98126L444.78586 312.29376Q445.55148 311.7469 446.39523 311.7469Q447.52023 311.7469 448.28586 312.52814Q449.0671 313.3094 449.0671 314.54376Q449.0671 315.7 448.39523 316.5594Q447.5671 317.59064 446.14523 317.59064Q444.97336 317.59064 444.22336 316.9344Q443.48898 316.27814 443.3796 315.2Z" fill-rule="nonzero"/><path fill="#000000" d="M464.76605 317.45L463.71918 317.45L463.71918 310.73126Q463.32855 311.09064 462.70355 311.46564Q462.09418 311.825 461.6098 311.9969L461.6098 310.98126Q462.4848 310.5594 463.14105 309.98126Q463.81293 309.3875 464.09418 308.825L464.76605 308.825L464.76605 317.45ZM473.26605 310.96564L472.21918 311.04376Q472.07855 310.41876 471.82855 310.1375Q471.39105 309.6844 470.76605 309.6844Q470.26605 309.6844 469.87543 309.96564Q469.39105 310.34064 469.09418 311.04376Q468.81293 311.73126 468.7973 313.0125Q469.1723 312.4344 469.71918 312.15314Q470.28168 311.8719 470.89105 311.8719Q471.93793 311.8719 472.6723 312.65314Q473.4223 313.4344 473.4223 314.65314Q473.4223 315.46564 473.06293 316.16876Q472.71918 316.85626 472.1098 317.23126Q471.50043 317.59064 470.7348 317.59064Q469.40668 317.59064 468.57855 316.6219Q467.75043 315.65314 467.75043 313.4344Q467.75043 310.9344 468.6723 309.8094Q469.46918 308.825 470.82855 308.825Q471.84418 308.825 472.4848 309.40314Q473.14105 309.96564 473.26605 310.96564ZM468.96918 314.66876Q468.96918 315.21564 469.18793 315.71564Q469.4223 316.2 469.82855 316.46564Q470.25043 316.73126 470.71918 316.73126Q471.37543 316.73126 471.8598 316.2Q472.34418 315.65314 472.34418 314.73126Q472.34418 313.84064 471.8598 313.325Q471.39105 312.8094 470.6723 312.8094Q469.95355 312.8094 469.45355 313.325Q468.96918 313.84064 468.96918 314.66876Z" fill-rule="nonzero"/><path fill="#000000" d="M489.18375 317.45L488.13687 317.45L488.13687 310.73126Q487.74625 311.09064 487.12125 311.46564Q486.51187 311.825 486.0275 311.9969L486.0275 310.98126Q486.9025 310.5594 487.55875 309.98126Q488.23062 309.3875 488.51187 308.825L489.18375 308.825L489.18375 317.45ZM492.2775 309.98126L492.2775 308.96564L497.84 308.96564L497.84 309.79376Q497.0275 310.66876 496.215 312.1219Q495.41812 313.5594 494.98062 315.09064Q494.6525 316.16876 494.57437 317.45L493.48062 317.45Q493.49625 316.4344 493.87125 314.9969Q494.26187 313.5594 494.965 312.23126Q495.68375 310.90314 496.49625 309.98126L492.2775 309.98126Z" fill-rule="nonzero"/><path fill="#000000" d="M513.60144 317.45L512.55457 317.45L512.55457 310.73126Q512.16394 311.09064 511.53894 311.46564Q510.92957 311.825 510.4452 311.9969L510.4452 310.98126Q511.3202 310.5594 511.97644 309.98126Q512.6483 309.3875 512.92957 308.825L513.60144 308.825L513.60144 317.45ZM518.2577 312.79376Q517.60144 312.54376 517.2733 312.10626Q516.9608 311.65314 516.9608 311.04376Q516.9608 310.10626 517.6327 309.46564Q518.3202 308.825 519.42957 308.825Q520.55457 308.825 521.24207 309.48126Q521.92957 310.1375 521.92957 311.075Q521.92957 311.66876 521.61707 312.10626Q521.30457 312.54376 520.66394 312.79376Q521.4608 313.04376 521.86707 313.6219Q522.2733 314.2 522.2733 314.9969Q522.2733 316.09064 521.49207 316.84064Q520.72644 317.59064 519.4452 317.59064Q518.17957 317.59064 517.3983 316.84064Q516.61707 316.09064 516.61707 314.96564Q516.61707 314.1219 517.03894 313.5594Q517.47644 312.9969 518.2577 312.79376ZM518.03894 310.9969Q518.03894 311.60626 518.42957 311.9969Q518.8358 312.3875 519.4608 312.3875Q520.0702 312.3875 520.4608 312.0125Q520.85144 311.6219 520.85144 311.0594Q520.85144 310.48126 520.4452 310.09064Q520.03894 309.6844 519.4452 309.6844Q518.8358 309.6844 518.42957 310.075Q518.03894 310.46564 518.03894 310.9969ZM517.7108 314.96564Q517.7108 315.41876 517.91394 315.84064Q518.1327 316.2625 518.55457 316.4969Q518.97644 316.73126 519.4608 316.73126Q520.2108 316.73126 520.6952 316.2469Q521.1952 315.7625 521.1952 315.0125Q521.1952 314.2469 520.6952 313.7469Q520.1952 313.2469 519.42957 313.2469Q518.67957 313.2469 518.1952 313.7469Q517.7108 314.23126 517.7108 314.96564Z" fill-rule="nonzero"/><path fill="#000000" d="M538.0191 317.45L536.9722 317.45L536.9722 310.73126Q536.5816 311.09064 535.9566 311.46564Q535.3472 311.825 534.86285 311.9969L534.86285 310.98126Q535.73785 310.5594 536.3941 309.98126Q537.066 309.3875 537.3472 308.825L538.0191 308.825L538.0191 317.45ZM541.2066 315.46564L542.2222 315.3719Q542.3472 316.09064 542.7066 316.41876Q543.0816 316.73126 543.6441 316.73126Q544.1285 316.73126 544.48785 316.5125Q544.86285 316.27814 545.0972 315.91876Q545.3316 315.54376 545.48785 314.91876Q545.6441 314.27814 545.6441 313.6219Q545.6441 313.54376 545.6441 313.40314Q545.3316 313.90314 544.7847 314.23126Q544.23785 314.54376 543.5972 314.54376Q542.5191 314.54376 541.7847 313.77814Q541.05035 312.9969 541.05035 311.73126Q541.05035 310.41876 541.816 309.6219Q542.5972 308.825 543.7535 308.825Q544.5816 308.825 545.2691 309.27814Q545.9722 309.73126 546.3316 310.575Q546.691 311.40314 546.691 312.98126Q546.691 314.6219 546.3316 315.60626Q545.98785 316.575 545.2691 317.09064Q544.566 317.59064 543.6285 317.59064Q542.61285 317.59064 541.9722 317.04376Q541.3316 316.48126 541.2066 315.46564ZM545.5191 311.66876Q545.5191 310.7625 545.0347 310.23126Q544.566 309.7 543.8785 309.7Q543.17535 309.7 542.6441 310.27814Q542.1285 310.84064 542.1285 311.7625Q542.1285 312.575 542.6285 313.09064Q543.1285 313.60626 543.8472 313.60626Q544.5816 313.60626 545.05035 313.09064Q545.5191 312.575 545.5191 311.66876Z" fill-rule="nonzero"/><path fill="#000000" d="M564.01495 316.4344L564.01495 317.45L558.32745 317.45Q558.32745 317.075 558.45245 316.71564Q558.6712 316.1375 559.13995 315.575Q559.6243 315.0125 560.5306 314.27814Q561.9368 313.1219 562.4212 312.45Q562.9212 311.77814 562.9212 311.1844Q562.9212 310.5594 562.4681 310.1375Q562.01495 309.7 561.2962 309.7Q560.5306 309.7 560.07745 310.15314Q559.6243 310.60626 559.6087 311.41876L558.5306 311.3094Q558.63995 310.09064 559.3587 309.46564Q560.0931 308.825 561.32745 308.825Q562.5618 308.825 563.2806 309.5125Q563.9993 310.2 563.9993 311.21564Q563.9993 311.73126 563.7806 312.23126Q563.57745 312.71564 563.07745 313.27814Q562.5931 313.825 561.4681 314.77814Q560.51495 315.575 560.2337 315.8719Q559.9681 316.15314 559.7962 316.4344L564.01495 316.4344ZM565.4681 313.21564Q565.4681 311.6844 565.7806 310.7625Q566.0931 309.825 566.70245 309.325Q567.32745 308.825 568.26495 308.825Q568.95245 308.825 569.4681 309.10626Q569.9993 309.3875 570.3431 309.91876Q570.6868 310.4344 570.8743 311.1844Q571.0618 311.9344 571.0618 313.21564Q571.0618 314.73126 570.7493 315.65314Q570.45245 316.575 569.82745 317.09064Q569.2181 317.59064 568.26495 317.59064Q567.0306 317.59064 566.3118 316.7Q565.4681 315.6375 565.4681 313.21564ZM566.5462 313.21564Q566.5462 315.325 567.0462 316.02814Q567.5462 316.73126 568.26495 316.73126Q568.9993 316.73126 569.4837 316.02814Q569.9837 315.325 569.9837 313.21564Q569.9837 311.09064 569.4837 310.40314Q568.9993 309.7 568.2493 309.7Q567.5306 309.7 567.0931 310.3094Q566.5462 311.09064 566.5462 313.21564Z" fill-rule="nonzero"/><path fill="#757575" d="M20.08125 37.55L20.08125 23.2375L22.01875 23.2375L29.534374 34.471874L29.534374 23.2375L31.346874 23.2375L31.346874 37.55L29.409374 37.55L21.89375 26.3L21.89375 37.55L20.08125 37.55ZM39.659374 37.55L39.659374 36.01875Q38.45625 37.784374 36.378124 37.784374Q35.45625 37.784374 34.659374 37.440624Q33.8625 37.08125 33.471874 36.55Q33.096874 36.01875 32.940624 35.2375Q32.83125 34.721874 32.83125 33.596874L32.83125 27.175L34.58125 27.175L34.58125 32.925Q34.58125 34.3 34.690624 34.784374Q34.8625 35.471874 35.39375 35.878124Q35.940624 36.26875 36.721874 36.26875Q37.51875 36.26875 38.20625 35.8625Q38.909374 35.45625 39.190624 34.76875Q39.4875 34.065624 39.4875 32.7375L39.4875 27.175L41.2375 27.175L41.2375 37.55L39.659374 37.55ZM42.8625 37.55L42.8625 27.175L44.440624 27.175L44.440624 28.628124Q44.925 27.878124 45.7375 27.409374Q46.55 26.940624 47.58125 26.940624Q48.7375 26.940624 49.471874 27.425Q50.20625 27.89375 50.51875 28.753124Q51.753124 26.940624 53.721874 26.940624Q55.26875 26.940624 56.096874 27.8Q56.925 28.659374 56.925 30.425L56.925 37.55L55.175 37.55L55.175 31.01875Q55.175 29.95625 55.003124 29.503124Q54.83125 29.034374 54.378124 28.753124Q53.940624 28.471874 53.33125 28.471874Q52.2375 28.471874 51.503124 29.20625Q50.784374 29.925 50.784374 31.51875L50.784374 37.55L49.034374 37.55L49.034374 30.815624Q49.034374 29.64375 48.596874 29.065624Q48.175 28.471874 47.190624 28.471874Q46.45625 28.471874 45.815624 28.8625Q45.190624 29.253124 44.909374 30.003124Q44.628124 30.753124 44.628124 32.175L44.628124 37.55L42.8625 37.55ZM60.4875 37.55L58.8625 37.55L58.8625 23.2375L60.6125 23.2375L60.6125 28.346874Q61.7375 26.940624 63.45625 26.940624Q64.40938 26.940624 65.26875 27.33125Q66.12813 27.721874 66.675 28.425Q67.22188 29.1125 67.53438 30.096874Q67.84688 31.08125 67.84688 32.20625Q67.84688 34.878124 66.53438 36.33125Q65.22188 37.784374 63.378124 37.784374Q61.534374 37.784374 60.4875 36.253124L60.4875 37.55ZM60.471874 32.284374Q60.471874 34.14375 60.971874 34.9875Q61.815624 36.33125 63.221874 36.33125Q64.37813 36.33125 65.20625 35.33125Q66.05 34.33125 66.05 32.346874Q66.05 30.315624 65.2375 29.3625Q64.44063 28.39375 63.3 28.39375Q62.14375 28.39375 61.3 29.39375Q60.471874 30.39375 60.471874 32.284374ZM76.97188 34.20625L78.78438 34.440624Q78.3625 36.01875 77.19063 36.909374Q76.03438 37.784374 74.22188 37.784374Q71.95625 37.784374 70.6125 36.39375Q69.28438 34.9875 69.28438 32.45625Q69.28438 29.83125 70.62813 28.39375Q71.97188 26.940624 74.12813 26.940624Q76.20625 26.940624 77.51875 28.3625Q78.84688 29.76875 78.84688 32.346874Q78.84688 32.503124 78.83125 32.815624L71.09688 32.815624Q71.19063 34.51875 72.06563 35.425Q72.94063 36.33125 74.2375 36.33125Q75.20625 36.33125 75.87813 35.83125Q76.56563 35.315624 76.97188 34.20625ZM71.19063 31.3625L76.9875 31.3625Q76.87813 30.065624 76.33125 29.409374Q75.4875 28.39375 74.14375 28.39375Q72.94063 28.39375 72.1125 29.20625Q71.28438 30.003124 71.19063 31.3625ZM80.84688 37.55L80.84688 27.175L82.425 27.175L82.425 28.753124Q83.03438 27.64375 83.55 27.3Q84.06563 26.940624 84.675 26.940624Q85.56563 26.940624 86.4875 27.503124L85.87813 29.14375Q85.2375 28.753124 84.59688 28.753124Q84.01875 28.753124 83.55 29.1125Q83.09688 29.45625 82.89375 30.065624Q82.6125 31.003124 82.6125 32.1125L82.6125 37.55L80.84688 37.55ZM93.51875 30.58125Q93.51875 27.01875 95.425 25.003124Q97.34688 22.971874 100.37813 22.971874Q102.3625 22.971874 103.94063 23.925Q105.53438 24.878124 106.3625 26.58125Q107.20625 28.26875 107.20625 30.409374Q107.20625 32.58125 106.33125 34.3Q105.45625 36.01875 103.83125 36.909374Q102.22188 37.8 100.3625 37.8Q98.34688 37.8 96.75313 36.83125Q95.15938 35.846874 94.33125 34.159374Q93.51875 32.45625 93.51875 30.58125ZM95.47188 30.6125Q95.47188 33.190624 96.8625 34.690624Q98.25313 36.175 100.34688 36.175Q102.4875 36.175 103.8625 34.675Q105.25313 33.159374 105.25313 30.39375Q105.25313 28.659374 104.65938 27.3625Q104.08125 26.05 102.94063 25.33125Q101.8 24.6125 100.37813 24.6125Q98.37813 24.6125 96.925 26.003124Q95.47188 27.378124 95.47188 30.6125ZM110.28438 37.55L110.28438 28.55L108.7375 28.55L108.7375 27.175L110.28438 27.175L110.28438 26.08125Q110.28438 25.034374 110.47188 24.51875Q110.72188 23.83125 111.3625 23.409374Q112.00313 22.9875 113.15938 22.9875Q113.90938 22.9875 114.8 23.159374L114.53438 24.690624Q113.9875 24.596874 113.50313 24.596874Q112.70625 24.596874 112.3625 24.940624Q112.03438 25.284374 112.03438 26.221874L112.03438 27.175L114.06563 27.175L114.06563 28.55L112.03438 28.55L112.03438 37.55L110.28438 37.55ZM125.7375 37.55L125.7375 24.925L121.01875 24.925L121.01875 23.2375L132.3625 23.2375L132.3625 24.925L127.62813 24.925L127.62813 37.55L125.7375 37.55ZM133.87813 25.253124L133.87813 23.2375L135.64375 23.2375L135.64375 25.253124L133.87813 25.253124ZM133.87813 37.55L133.87813 27.175L135.64375 27.175L135.64375 37.55L133.87813 37.55ZM137.8625 37.55L137.8625 27.175L139.44063 27.175L139.44063 28.628124Q139.925 27.878124 140.7375 27.409374Q141.55 26.940624 142.58125 26.940624Q143.7375 26.940624 144.47188 27.425Q145.20625 27.89375 145.51875 28.753124Q146.75313 26.940624 148.72188 26.940624Q150.26875 26.940624 151.09688 27.8Q151.925 28.659374 151.925 30.425L151.925 37.55L150.175 37.55L150.175 31.01875Q150.175 29.95625 150.00313 29.503124Q149.83125 29.034374 149.37813 28.753124Q148.94063 28.471874 148.33125 28.471874Q147.2375 28.471874 146.50313 29.20625Q145.78438 29.925 145.78438 31.51875L145.78438 37.55L144.03438 37.55L144.03438 30.815624Q144.03438 29.64375 143.59688 29.065624Q143.175 28.471874 142.19063 28.471874Q141.45625 28.471874 140.81563 28.8625Q140.19063 29.253124 139.90938 30.003124Q139.62813 30.753124 139.62813 32.175L139.62813 37.55L137.8625 37.55ZM160.97188 34.20625L162.78438 34.440624Q162.3625 36.01875 161.19063 36.909374Q160.03438 37.784374 158.22188 37.784374Q155.95625 37.784374 154.6125 36.39375Q153.28438 34.9875 153.28438 32.45625Q153.28438 29.83125 154.62813 28.39375Q155.97188 26.940624 158.12813 26.940624Q160.20625 26.940624 161.51875 28.3625Q162.84688 29.76875 162.84688 32.346874Q162.84688 32.503124 162.83125 32.815624L155.09688 32.815624Q155.19063 34.51875 156.06563 35.425Q156.94063 36.33125 158.2375 36.33125Q159.20625 36.33125 159.87813 35.83125Q160.56563 35.315624 160.97188 34.20625ZM155.19063 31.3625L160.9875 31.3625Q160.87813 30.065624 160.33125 29.409374Q159.4875 28.39375 158.14375 28.39375Q156.94063 28.39375 156.1125 29.20625Q155.28438 30.003124 155.19063 31.3625ZM164.15938 34.45625L165.90938 34.175Q166.05 35.221874 166.72188 35.784374Q167.39375 36.33125 168.59688 36.33125Q169.8 36.33125 170.37813 35.846874Q170.97188 35.346874 170.97188 34.690624Q170.97188 34.096874 170.45625 33.753124Q170.09688 33.51875 168.65938 33.159374Q166.72188 32.659374 165.97188 32.315624Q165.2375 31.95625 164.84688 31.33125Q164.45625 30.690624 164.45625 29.925Q164.45625 29.2375 164.76875 28.64375Q165.09688 28.05 165.64375 27.659374Q166.05 27.3625 166.75313 27.159374Q167.47188 26.940624 168.28438 26.940624Q169.50313 26.940624 170.425 27.3Q171.34688 27.64375 171.78438 28.253124Q172.22188 28.846874 172.39375 29.846874L170.675 30.08125Q170.55 29.284374 169.9875 28.846874Q169.425 28.39375 168.40938 28.39375Q167.19063 28.39375 166.675 28.8Q166.15938 29.190624 166.15938 29.721874Q166.15938 30.065624 166.37813 30.346874Q166.58125 30.628124 167.05 30.815624Q167.31563 30.909374 168.59688 31.253124Q170.47188 31.753124 171.20625 32.08125Q171.94063 32.39375 172.3625 33.003124Q172.78438 33.596874 172.78438 34.503124Q172.78438 35.378124 172.26875 36.159374Q171.75313 36.940624 170.78438 37.3625Q169.81563 37.784374 168.59688 37.784374Q166.58125 37.784374 165.51875 36.940624Q164.45625 36.096874 164.15938 34.45625ZM181.09688 37.55L181.09688 23.2375L186.4875 23.2375Q187.925 23.2375 188.675 23.3625Q189.72188 23.55 190.44063 24.05Q191.15938 24.534374 191.58125 25.425Q192.01875 26.315624 192.01875 27.378124Q192.01875 29.20625 190.84688 30.471874Q189.69063 31.721874 186.65938 31.721874L182.9875 31.721874L182.9875 37.55L181.09688 37.55ZM182.9875 30.034374L186.69063 30.034374Q188.51875 30.034374 189.28438 29.3625Q190.06563 28.675 190.06563 27.425Q190.06563 26.534374 189.6125 25.89375Q189.15938 25.253124 188.425 25.05Q187.94063 24.925 186.64375 24.925L182.9875 24.925L182.9875 30.034374ZM200.64375 36.26875Q199.65938 37.096874 198.75313 37.440624Q197.84688 37.784374 196.81563 37.784374Q195.1125 37.784374 194.19063 36.95625Q193.26875 36.1125 193.26875 34.815624Q193.26875 34.05 193.6125 33.425Q193.97188 32.8 194.53438 32.425Q195.09688 32.034374 195.8 31.83125Q196.31563 31.70625 197.3625 31.565624Q199.4875 31.315624 200.4875 30.971874Q200.50313 30.6125 200.50313 30.503124Q200.50313 29.440624 200.00313 28.9875Q199.33125 28.39375 198.00313 28.39375Q196.75313 28.39375 196.15938 28.83125Q195.58125 29.26875 195.3 30.378124L193.58125 30.14375Q193.81563 29.034374 194.34688 28.3625Q194.87813 27.675 195.89375 27.315624Q196.90938 26.940624 198.25313 26.940624Q199.58125 26.940624 200.40938 27.253124Q201.2375 27.565624 201.62813 28.05Q202.01875 28.51875 202.175 29.2375Q202.26875 29.690624 202.26875 30.8625L202.26875 33.20625Q202.26875 35.659374 202.37813 36.315624Q202.4875 36.95625 202.83125 37.55L200.9875 37.55Q200.72188 37.003124 200.64375 36.26875ZM200.4875 32.346874Q199.53438 32.7375 197.6125 33.003124Q196.53438 33.159374 196.08125 33.3625Q195.64375 33.55 195.39375 33.925Q195.14375 34.3 195.14375 34.76875Q195.14375 35.471874 195.675 35.940624Q196.20625 36.409374 197.2375 36.409374Q198.25313 36.409374 199.03438 35.971874Q199.83125 35.51875 200.20625 34.753124Q200.4875 34.14375 200.4875 32.9875L200.4875 32.346874ZM204.84688 37.55L204.84688 27.175L206.425 27.175L206.425 28.753124Q207.03438 27.64375 207.55 27.3Q208.06563 26.940624 208.675 26.940624Q209.56563 26.940624 210.4875 27.503124L209.87813 29.14375Q209.2375 28.753124 208.59688 28.753124Q208.01875 28.753124 207.55 29.1125Q207.09688 29.45625 206.89375 30.065624Q206.6125 31.003124 206.6125 32.1125L206.6125 37.55L204.84688 37.55ZM215.70625 35.971874L215.95625 37.534374Q215.22188 37.690624 214.62813 37.690624Q213.675 37.690624 213.14375 37.39375Q212.62813 37.08125 212.40938 36.596874Q212.19063 36.096874 212.19063 34.51875L212.19063 28.55L210.90938 28.55L210.90938 27.175L212.19063 27.175L212.19063 24.6125L213.94063 23.55L213.94063 27.175L215.70625 27.175L215.70625 28.55L213.94063 28.55L213.94063 34.6125Q213.94063 35.3625 214.03438 35.58125Q214.12813 35.784374 214.33125 35.925Q214.55 36.05 214.94063 36.05Q215.22188 36.05 215.70625 35.971874ZM217.87813 25.253124L217.87813 23.2375L219.64375 23.2375L219.64375 25.253124L217.87813 25.253124ZM217.87813 37.55L217.87813 27.175L219.64375 27.175L219.64375 37.55L217.87813 37.55ZM228.64375 33.753124L230.3625 33.971874Q230.08125 35.76875 228.90938 36.784374Q227.75313 37.784374 226.05 37.784374Q223.925 37.784374 222.62813 36.39375Q221.33125 35.003124 221.33125 32.409374Q221.33125 30.721874 221.87813 29.471874Q222.44063 28.20625 223.58125 27.58125Q224.72188 26.940624 226.06563 26.940624Q227.75313 26.940624 228.81563 27.8Q229.89375 28.659374 230.20625 30.221874L228.4875 30.4875Q228.25313 29.440624 227.62813 28.925Q227.00313 28.39375 226.12813 28.39375Q224.8 28.39375 223.97188 29.346874Q223.14375 30.3 223.14375 32.346874Q223.14375 34.440624 223.94063 35.39375Q224.7375 36.33125 226.03438 36.33125Q227.06563 36.33125 227.75313 35.70625Q228.45625 35.065624 228.64375 33.753124ZM231.87813 25.253124L231.87813 23.2375L233.64375 23.2375L233.64375 25.253124L231.87813 25.253124ZM231.87813 37.55L231.87813 27.175L233.64375 27.175L233.64375 37.55L231.87813 37.55ZM235.8625 41.51875L235.8625 27.175L237.47188 27.175L237.47188 28.51875Q238.03438 27.7375 238.7375 27.346874Q239.45625 26.940624 240.47188 26.940624Q241.8 26.940624 242.81563 27.628124Q243.83125 28.315624 244.34688 29.565624Q244.87813 30.8 244.87813 32.284374Q244.87813 33.878124 244.3 35.159374Q243.7375 36.425 242.64375 37.1125Q241.55 37.784374 240.34688 37.784374Q239.47188 37.784374 238.76875 37.409374Q238.08125 37.034374 237.62813 36.471874L237.62813 41.51875L235.8625 41.51875ZM237.45625 32.425Q237.45625 34.425 238.26875 35.378124Q239.08125 36.33125 240.2375 36.33125Q241.40938 36.33125 242.2375 35.346874Q243.08125 34.3625 243.08125 32.26875Q243.08125 30.3 242.25313 29.315624Q241.44063 28.315624 240.31563 28.315624Q239.19063 28.315624 238.31563 29.378124Q237.45625 30.425 237.45625 32.425ZM253.64375 36.26875Q252.65938 37.096874 251.75313 37.440624Q250.84688 37.784374 249.81563 37.784374Q248.1125 37.784374 247.19063 36.95625Q246.26875 36.1125 246.26875 34.815624Q246.26875 34.05 246.6125 33.425Q246.97188 32.8 247.53438 32.425Q248.09688 32.034374 248.8 31.83125Q249.31563 31.70625 250.3625 31.565624Q252.4875 31.315624 253.4875 30.971874Q253.50313 30.6125 253.50313 30.503124Q253.50313 29.440624 253.00313 28.9875Q252.33125 28.39375 251.00313 28.39375Q249.75313 28.39375 249.15938 28.83125Q248.58125 29.26875 248.3 30.378124L246.58125 30.14375Q246.81563 29.034374 247.34688 28.3625Q247.87813 27.675 248.89375 27.315624Q249.90938 26.940624 251.25313 26.940624Q252.58125 26.940624 253.40938 27.253124Q254.2375 27.565624 254.62813 28.05Q255.01875 28.51875 255.175 29.2375Q255.26875 29.690624 255.26875 30.8625L255.26875 33.20625Q255.26875 35.659374 255.37813 36.315624Q255.4875 36.95625 255.83125 37.55L253.9875 37.55Q253.72188 37.003124 253.64375 36.26875ZM253.4875 32.346874Q252.53438 32.7375 250.6125 33.003124Q249.53438 33.159374 249.08125 33.3625Q248.64375 33.55 248.39375 33.925Q248.14375 34.3 248.14375 34.76875Q248.14375 35.471874 248.675 35.940624Q249.20625 36.409374 250.2375 36.409374Q251.25313 36.409374 252.03438 35.971874Q252.83125 35.51875 253.20625 34.753124Q253.4875 34.14375 253.4875 32.9875L253.4875 32.346874ZM257.8625 37.55L257.8625 27.175L259.45624 27.175L259.45624 28.659374Q260.59686 26.940624 262.7531 26.940624Q263.6906 26.940624 264.47186 27.284374Q265.26874 27.6125 265.65936 28.159374Q266.05 28.70625 266.20624 29.45625Q266.3 29.95625 266.3 31.175L266.3 37.55L264.53436 37.55L264.53436 31.2375Q264.53436 30.159374 264.33124 29.628124Q264.1281 29.096874 263.59686 28.784374Q263.08124 28.471874 262.3781 28.471874Q261.2531 28.471874 260.4406 29.190624Q259.6281 29.89375 259.6281 31.878124L259.6281 37.55L257.8625 37.55ZM271.70624 35.971874L271.95624 37.534374Q271.22186 37.690624 270.6281 37.690624Q269.675 37.690624 269.14374 37.39375Q268.6281 37.08125 268.40936 36.596874Q268.1906 36.096874 268.1906 34.51875L268.1906 28.55L266.90936 28.55L266.90936 27.175L268.1906 27.175L268.1906 24.6125L269.9406 23.55L269.9406 27.175L271.70624 27.175L271.70624 28.55L269.9406 28.55L269.9406 34.6125Q269.9406 35.3625 270.03436 35.58125Q270.1281 35.784374 270.33124 35.925Q270.55 36.05 270.9406 36.05Q271.22186 36.05 271.70624 35.971874ZM282.59686 37.55L278.8 23.2375L280.7375 23.2375L282.90936 32.6125Q283.26874 34.096874 283.51874 35.55Q284.0656 33.253124 284.15936 32.89375L286.89374 23.2375L289.175 23.2375L291.22186 30.471874Q292.0031 33.175 292.34686 35.55Q292.6125 34.190624 293.05 32.425L295.3 23.2375L297.20624 23.2375L293.28436 37.55L291.45624 37.55L288.4406 26.64375Q288.05 25.26875 287.9875 24.95625Q287.7531 25.940624 287.5656 26.64375L284.53436 37.55L282.59686 37.55ZM305.64374 36.26875Q304.65936 37.096874 303.7531 37.440624Q302.84686 37.784374 301.8156 37.784374Q300.1125 37.784374 299.1906 36.95625Q298.26874 36.1125 298.26874 34.815624Q298.26874 34.05 298.6125 33.425Q298.97186 32.8 299.53436 32.425Q300.09686 32.034374 300.8 31.83125Q301.3156 31.70625 302.3625 31.565624Q304.4875 31.315624 305.4875 30.971874Q305.5031 30.6125 305.5031 30.503124Q305.5031 29.440624 305.0031 28.9875Q304.33124 28.39375 303.0031 28.39375Q301.7531 28.39375 301.15936 28.83125Q300.58124 29.26875 300.3 30.378124L298.58124 30.14375Q298.8156 29.034374 299.34686 28.3625Q299.8781 27.675 300.89374 27.315624Q301.90936 26.940624 303.2531 26.940624Q304.58124 26.940624 305.40936 27.253124Q306.2375 27.565624 306.6281 28.05Q307.01874 28.51875 307.175 29.2375Q307.26874 29.690624 307.26874 30.8625L307.26874 33.20625Q307.26874 35.659374 307.3781 36.315624Q307.4875 36.95625 307.83124 37.55L305.9875 37.55Q305.72186 37.003124 305.64374 36.26875ZM305.4875 32.346874Q304.53436 32.7375 302.6125 33.003124Q301.53436 33.159374 301.08124 33.3625Q300.64374 33.55 300.39374 33.925Q300.14374 34.3 300.14374 34.76875Q300.14374 35.471874 300.675 35.940624Q301.20624 36.409374 302.2375 36.409374Q303.2531 36.409374 304.03436 35.971874Q304.83124 35.51875 305.20624 34.753124Q305.4875 34.14375 305.4875 32.9875L305.4875 32.346874ZM309.15936 34.45625L310.90936 34.175Q311.05 35.221874 311.72186 35.784374Q312.39374 36.33125 313.59686 36.33125Q314.8 36.33125 315.3781 35.846874Q315.97186 35.346874 315.97186 34.690624Q315.97186 34.096874 315.45624 33.753124Q315.09686 33.51875 313.65936 33.159374Q311.72186 32.659374 310.97186 32.315624Q310.2375 31.95625 309.84686 31.33125Q309.45624 30.690624 309.45624 29.925Q309.45624 29.2375 309.76874 28.64375Q310.09686 28.05 310.64374 27.659374Q311.05 27.3625 311.7531 27.159374Q312.47186 26.940624 313.28436 26.940624Q314.5031 26.940624 315.425 27.3Q316.34686 27.64375 316.78436 28.253124Q317.22186 28.846874 317.39374 29.846874L315.675 30.08125Q315.55 29.284374 314.9875 28.846874Q314.425 28.39375 313.40936 28.39375Q312.1906 28.39375 311.675 28.8Q311.15936 29.190624 311.15936 29.721874Q311.15936 30.065624 311.3781 30.346874Q311.58124 30.628124 312.05 30.815624Q312.3156 30.909374 313.59686 31.253124Q315.47186 31.753124 316.20624 32.08125Q316.9406 32.39375 317.3625 33.003124Q317.78436 33.596874 317.78436 34.503124Q317.78436 35.378124 317.26874 36.159374Q316.7531 36.940624 315.78436 37.3625Q314.8156 37.784374 313.59686 37.784374Q311.58124 37.784374 310.51874 36.940624Q309.45624 36.096874 309.15936 34.45625ZM326.1281 37.55L326.1281 23.2375L332.47186 23.2375Q334.3781 23.2375 335.3781 23.628124Q336.3781 24.003124 336.97186 24.9875Q337.5656 25.95625 337.5656 27.14375Q337.5656 28.659374 336.58124 29.70625Q335.59686 30.753124 333.53436 31.034374Q334.28436 31.39375 334.675 31.753124Q335.5031 32.503124 336.2531 33.659374L338.7375 37.55L336.3625 37.55L334.45624 34.565624Q333.6281 33.284374 333.09686 32.596874Q332.5656 31.909374 332.1281 31.64375Q331.70624 31.3625 331.26874 31.253124Q330.9406 31.190624 330.22186 31.190624L328.01874 31.190624L328.01874 37.55L326.1281 37.55ZM328.01874 29.55L332.09686 29.55Q333.39374 29.55 334.1125 29.284374Q334.84686 29.01875 335.22186 28.425Q335.6125 27.83125 335.6125 27.14375Q335.6125 26.128124 334.8781 25.471874Q334.14374 24.815624 332.55 24.815624L328.01874 24.815624L328.01874 29.55ZM346.64374 36.26875Q345.65936 37.096874 344.7531 37.440624Q343.84686 37.784374 342.8156 37.784374Q341.1125 37.784374 340.1906 36.95625Q339.26874 36.1125 339.26874 34.815624Q339.26874 34.05 339.6125 33.425Q339.97186 32.8 340.53436 32.425Q341.09686 32.034374 341.8 31.83125Q342.3156 31.70625 343.3625 31.565624Q345.4875 31.315624 346.4875 30.971874Q346.5031 30.6125 346.5031 30.503124Q346.5031 29.440624 346.0031 28.9875Q345.33124 28.39375 344.0031 28.39375Q342.7531 28.39375 342.15936 28.83125Q341.58124 29.26875 341.3 30.378124L339.58124 30.14375Q339.8156 29.034374 340.34686 28.3625Q340.8781 27.675 341.89374 27.315624Q342.90936 26.940624 344.2531 26.940624Q345.58124 26.940624 346.40936 27.253124Q347.2375 27.565624 347.6281 28.05Q348.01874 28.51875 348.175 29.2375Q348.26874 29.690624 348.26874 30.8625L348.26874 33.20625Q348.26874 35.659374 348.3781 36.315624Q348.4875 36.95625 348.83124 37.55L346.9875 37.55Q346.72186 37.003124 346.64374 36.26875ZM346.4875 32.346874Q345.53436 32.7375 343.6125 33.003124Q342.53436 33.159374 342.08124 33.3625Q341.64374 33.55 341.39374 33.925Q341.14374 34.3 341.14374 34.76875Q341.14374 35.471874 341.675 35.940624Q342.20624 36.409374 343.2375 36.409374Q344.2531 36.409374 345.03436 35.971874Q345.83124 35.51875 346.20624 34.753124Q346.4875 34.14375 346.4875 32.9875L346.4875 32.346874ZM350.8625 37.55L350.8625 27.175L352.45624 27.175L352.45624 28.659374Q353.59686 26.940624 355.7531 26.940624Q356.6906 26.940624 357.47186 27.284374Q358.26874 27.6125 358.65936 28.159374Q359.05 28.70625 359.20624 29.45625Q359.3 29.95625 359.3 31.175L359.3 37.55L357.53436 37.55L357.53436 31.2375Q357.53436 30.159374 357.33124 29.628124Q357.1281 29.096874 356.59686 28.784374Q356.08124 28.471874 355.3781 28.471874Q354.2531 28.471874 353.4406 29.190624Q352.6281 29.89375 352.6281 31.878124L352.6281 37.55L350.8625 37.55ZM367.59686 37.55L367.59686 36.2375Q366.6125 37.784374 364.6906 37.784374Q363.45624 37.784374 362.40936 37.096874Q361.3781 36.409374 360.8 35.190624Q360.2375 33.971874 360.2375 32.378124Q360.2375 30.815624 360.7531 29.55Q361.26874 28.284374 362.3 27.6125Q363.34686 26.940624 364.6125 26.940624Q365.55 26.940624 366.28436 27.346874Q367.01874 27.7375 367.4875 28.3625L367.4875 23.2375L369.22186 23.2375L369.22186 37.55L367.59686 37.55ZM362.03436 32.378124Q362.03436 34.3625 362.8781 35.346874Q363.72186 36.33125 364.8625 36.33125Q366.01874 36.33125 366.8156 35.39375Q367.6281 34.45625 367.6281 32.51875Q367.6281 30.39375 366.8 29.39375Q365.9875 28.39375 364.78436 28.39375Q363.6125 28.39375 362.8156 29.3625Q362.03436 30.315624 362.03436 32.378124ZM371.22186 32.3625Q371.22186 29.4875 372.8156 28.096874Q374.15936 26.940624 376.08124 26.940624Q378.22186 26.940624 379.5656 28.346874Q380.925 29.753124 380.925 32.221874Q380.925 34.221874 380.33124 35.378124Q379.7375 36.51875 378.58124 37.159374Q377.4406 37.784374 376.08124 37.784374Q373.89374 37.784374 372.55 36.39375Q371.22186 34.9875 371.22186 32.3625ZM373.01874 32.3625Q373.01874 34.3625 373.8781 35.346874Q374.7531 36.33125 376.08124 36.33125Q377.39374 36.33125 378.2531 35.346874Q379.1281 34.346874 379.1281 32.3Q379.1281 30.378124 378.2531 29.39375Q377.3781 28.39375 376.08124 28.39375Q374.7531 28.39375 373.8781 29.39375Q373.01874 30.378124 373.01874 32.3625ZM382.8625 37.55L382.8625 27.175L384.4406 27.175L384.4406 28.628124Q384.925 27.878124 385.7375 27.409374Q386.55 26.940624 387.58124 26.940624Q388.7375 26.940624 389.47186 27.425Q390.20624 27.89375 390.51874 28.753124Q391.7531 26.940624 393.72186 26.940624Q395.26874 26.940624 396.09686 27.8Q396.925 28.659374 396.925 30.425L396.925 37.55L395.175 37.55L395.175 31.01875Q395.175 29.95625 395.0031 29.503124Q394.83124 29.034374 394.3781 28.753124Q393.9406 28.471874 393.33124 28.471874Q392.2375 28.471874 391.5031 29.20625Q390.78436 29.925 390.78436 31.51875L390.78436 37.55L389.03436 37.55L389.03436 30.815624Q389.03436 29.64375 388.59686 29.065624Q388.175 28.471874 387.1906 28.471874Q386.45624 28.471874 385.8156 28.8625Q385.1906 29.253124 384.90936 30.003124Q384.6281 30.753124 384.6281 32.175L384.6281 37.55L382.8625 37.55ZM398.83124 37.55L398.83124 23.2375L400.58124 23.2375L400.58124 37.55L398.83124 37.55ZM402.78436 41.55L402.59686 39.89375Q403.175 40.05 403.59686 40.05Q404.1906 40.05 404.53436 39.846874Q404.89374 39.659374 405.1125 39.315624Q405.28436 39.05 405.65936 38.003124Q405.70624 37.846874 405.8156 37.565624L401.8781 27.175L403.76874 27.175L405.925 33.190624Q406.34686 34.33125 406.675 35.58125Q406.9875 34.378124 407.39374 33.221874L409.6125 27.175L411.3781 27.175L407.425 37.721874Q406.8 39.440624 406.4406 40.08125Q405.97186 40.95625 405.3625 41.346874Q404.76874 41.753124 403.925 41.753124Q403.40936 41.753124 402.78436 41.55ZM418.45624 32.95625L420.2375 32.8Q420.3625 33.8625 420.8156 34.55Q421.28436 35.2375 422.2531 35.675Q423.2375 36.096874 424.47186 36.096874Q425.55 36.096874 426.3781 35.784374Q427.20624 35.45625 427.6125 34.89375Q428.01874 34.33125 428.01874 33.659374Q428.01874 32.9875 427.6281 32.4875Q427.2375 31.9875 426.34686 31.64375Q425.76874 31.409374 423.78436 30.940624Q421.8156 30.471874 421.03436 30.05Q420.0031 29.51875 419.5031 28.721874Q419.0031 27.925 419.0031 26.940624Q419.0031 25.846874 419.6125 24.909374Q420.22186 23.971874 421.40936 23.4875Q422.59686 22.9875 424.03436 22.9875Q425.6281 22.9875 426.84686 23.503124Q428.0656 24.01875 428.70624 25.01875Q429.3625 26.003124 429.40936 27.26875L427.59686 27.409374Q427.45624 26.05 426.6125 25.3625Q425.76874 24.659374 424.1125 24.659374Q422.39374 24.659374 421.59686 25.3Q420.8156 25.925 420.8156 26.8Q420.8156 27.58125 421.3781 28.08125Q421.925 28.58125 424.2375 29.096874Q426.55 29.6125 427.40936 30.003124Q428.65936 30.58125 429.2531 31.471874Q429.84686 32.346874 429.84686 33.503124Q429.84686 34.64375 429.1906 35.659374Q428.53436 36.675 427.3 37.2375Q426.08124 37.8 424.55 37.8Q422.6125 37.8 421.3 37.2375Q419.9875 36.659374 419.2375 35.51875Q418.4875 34.378124 418.45624 32.95625ZM438.97186 34.20625L440.78436 34.440624Q440.3625 36.01875 439.1906 36.909374Q438.03436 37.784374 436.22186 37.784374Q433.95624 37.784374 432.6125 36.39375Q431.28436 34.9875 431.28436 32.45625Q431.28436 29.83125 432.6281 28.39375Q433.97186 26.940624 436.1281 26.940624Q438.20624 26.940624 439.51874 28.3625Q440.84686 29.76875 440.84686 32.346874Q440.84686 32.503124 440.83124 32.815624L433.09686 32.815624Q433.1906 34.51875 434.0656 35.425Q434.9406 36.33125 436.2375 36.33125Q437.20624 36.33125 437.8781 35.83125Q438.5656 35.315624 438.97186 34.20625ZM433.1906 31.3625L438.9875 31.3625Q438.8781 30.065624 438.33124 29.409374Q437.4875 28.39375 436.14374 28.39375Q434.9406 28.39375 434.1125 29.20625Q433.28436 30.003124 433.1906 31.3625ZM442.83124 37.55L442.83124 23.2375L444.58124 23.2375L444.58124 37.55L442.83124 37.55ZM453.97186 34.20625L455.78436 34.440624Q455.3625 36.01875 454.1906 36.909374Q453.03436 37.784374 451.22186 37.784374Q448.95624 37.784374 447.6125 36.39375Q446.28436 34.9875 446.28436 32.45625Q446.28436 29.83125 447.6281 28.39375Q448.97186 26.940624 451.1281 26.940624Q453.20624 26.940624 454.51874 28.3625Q455.84686 29.76875 455.84686 32.346874Q455.84686 32.503124 455.83124 32.815624L448.09686 32.815624Q448.1906 34.51875 449.0656 35.425Q449.9406 36.33125 451.2375 36.33125Q452.20624 36.33125 452.8781 35.83125Q453.5656 35.315624 453.97186 34.20625ZM448.1906 31.3625L453.9875 31.3625Q453.8781 30.065624 453.33124 29.409374Q452.4875 28.39375 451.14374 28.39375Q449.9406 28.39375 449.1125 29.20625Q448.28436 30.003124 448.1906 31.3625ZM464.64374 33.753124L466.3625 33.971874Q466.08124 35.76875 464.90936 36.784374Q463.7531 37.784374 462.05 37.784374Q459.925 37.784374 458.6281 36.39375Q457.33124 35.003124 457.33124 32.409374Q457.33124 30.721874 457.8781 29.471874Q458.4406 28.20625 459.58124 27.58125Q460.72186 26.940624 462.0656 26.940624Q463.7531 26.940624 464.8156 27.8Q465.89374 28.659374 466.20624 30.221874L464.4875 30.4875Q464.2531 29.440624 463.6281 28.925Q463.0031 28.39375 462.1281 28.39375Q460.8 28.39375 459.97186 29.346874Q459.14374 30.3 459.14374 32.346874Q459.14374 34.440624 459.9406 35.39375Q460.7375 36.33125 462.03436 36.33125Q463.0656 36.33125 463.7531 35.70625Q464.45624 35.065624 464.64374 33.753124ZM471.70624 35.971874L471.95624 37.534374Q471.22186 37.690624 470.6281 37.690624Q469.675 37.690624 469.14374 37.39375Q468.6281 37.08125 468.40936 36.596874Q468.1906 36.096874 468.1906 34.51875L468.1906 28.55L466.90936 28.55L466.90936 27.175L468.1906 27.175L468.1906 24.6125L469.9406 23.55L469.9406 27.175L471.70624 27.175L471.70624 28.55L469.9406 28.55L469.9406 34.6125Q469.9406 35.3625 470.03436 35.58125Q470.1281 35.784374 470.33124 35.925Q470.55 36.05 470.9406 36.05Q471.22186 36.05 471.70624 35.971874ZM480.97186 34.20625L482.78436 34.440624Q482.3625 36.01875 481.1906 36.909374Q480.03436 37.784374 478.22186 37.784374Q475.95624 37.784374 474.6125 36.39375Q473.28436 34.9875 473.28436 32.45625Q473.28436 29.83125 474.6281 28.39375Q475.97186 26.940624 478.1281 26.940624Q480.20624 26.940624 481.51874 28.3625Q482.84686 29.76875 482.84686 32.346874Q482.84686 32.503124 482.83124 32.815624L475.09686 32.815624Q475.1906 34.51875 476.0656 35.425Q476.9406 36.33125 478.2375 36.33125Q479.20624 36.33125 479.8781 35.83125Q480.5656 35.315624 480.97186 34.20625ZM475.1906 31.3625L480.9875 31.3625Q480.8781 30.065624 480.33124 29.409374Q479.4875 28.39375 478.14374 28.39375Q476.9406 28.39375 476.1125 29.20625Q475.28436 30.003124 475.1906 31.3625ZM491.59686 37.55L491.59686 36.2375Q490.6125 37.784374 488.6906 37.784374Q487.45624 37.784374 486.40936 37.096874Q485.3781 36.409374 484.8 35.190624Q484.2375 33.971874 484.2375 32.378124Q484.2375 30.815624 484.7531 29.55Q485.26874 28.284374 486.3 27.6125Q487.34686 26.940624 488.6125 26.940624Q489.55 26.940624 490.28436 27.346874Q491.01874 27.7375 491.4875 28.3625L491.4875 23.2375L493.22186 23.2375L493.22186 37.55L491.59686 37.55ZM486.03436 32.378124Q486.03436 34.3625 486.8781 35.346874Q487.72186 36.33125 488.8625 36.33125Q490.01874 36.33125 490.8156 35.39375Q491.6281 34.45625 491.6281 32.51875Q491.6281 30.39375 490.8 29.39375Q489.9875 28.39375 488.78436 28.39375Q487.6125 28.39375 486.8156 29.3625Q486.03436 30.315624 486.03436 32.378124Z" fill-rule="nonzero"/></svg>