<svg version="1.1" viewBox="0.0 0.0 600.0 371.0" fill="none" stroke="none" stroke-linecap="square" stroke-miterlimit="10" width="600" height="371" xmlns:xlink="http://www.w3.org/1999/xlink" xmlns="http://www.w3.org/2000/svg"><path fill="#ffffff" d="M0 0L600.0 0L600.0 371.0L0 371.0L0 0Z" fill-rule="nonzero"/><path stroke="#333333" stroke-width="1.0" stroke-linecap="butt" d="M77.5 300.5L498.5 300.5" fill-rule="nonzero"/><path stroke="#cccccc" stroke-width="1.0" stroke-linecap="butt" d="M77.5 240.5L498.5 240.5" fill-rule="nonzero"/><path stroke="#cccccc" stroke-width="1.0" stroke-linecap="butt" d="M77.5 181.5L498.5 181.5" fill-rule="nonzero"/><path stroke="#cccccc" stroke-width="1.0" stroke-linecap="butt" d="M77.5 121.5L498.5 121.5" fill-rule="nonzero"/><path stroke="#cccccc" stroke-width="1.0" stroke-linecap="butt" d="M77.5 61.5L498.5 61.5" fill-rule="nonzero"/><path stroke="#e6e6e6" stroke-width="1.0" stroke-linecap="butt" d="M77.5 270.5L498.5 270.5" fill-rule="nonzero"/><path stroke="#e6e6e6" stroke-width="1.0" stroke-linecap="butt" d="M77.5 211.5L498.5 211.5" fill-rule="nonzero"/><path stroke="#e6e6e6" stroke-width="1.0" stroke-linecap="butt" d="M77.5 151.5L498.5 151.5" fill-rule="nonzero"/><path stroke="#e6e6e6" stroke-width="1.0" stroke-linecap="butt" d="M77.5 91.5L498.5 91.5" fill-rule="nonzero"/><clipPath id="id_0"><path d="M77.55 61.916668L498.61444 61.916668L498.61444 300.45L77.55 300.45L77.55 61.916668Z" clip-rule="nonzero"/></clipPath><path stroke="#000000" stroke-width="2.0" stroke-linecap="butt" stroke-opacity="0.0" clip-path="url(#id_0)" d="M91.0 300.0L86.0 300.0L86.0 279.0C86.0 277.89542 86.89543 277.0 88.0 277.0L89.0 277.0C90.10457 277.0 91.0 277.89542 91.0 279.0Z" fill-rule="nonzero"/><path fill="#4285f4" clip-path="url(#id_0)" d="M91.0 300.0L86.0 300.0L86.0 279.0C86.0 277.89542 86.89543 277.0 88.0 277.0L89.0 277.0C90.10457 277.0 91.0 277.89542 91.0 279.0Z" fill-rule="nonzero"/><path stroke="#000000" stroke-width="2.0" stroke-linecap="butt" stroke-opacity="0.0" clip-path="url(#id_0)" d="M111.0 300.0L106.0 300.0L106.0 182.0C106.0 180.89543 106.89543 180.0 108.0 180.0L109.0 180.0C110.10457 180.0 111.0 180.89543 111.0 182.0Z" fill-rule="nonzero"/><path fill="#4285f4" clip-path="url(#id_0)" d="M111.0 300.0L106.0 300.0L106.0 182.0C106.0 180.89543 106.89543 180.0 108.0 180.0L109.0 180.0C110.10457 180.0 111.0 180.89543 111.0 182.0Z" fill-rule="nonzero"/><path stroke="#000000" stroke-width="2.0" stroke-linecap="butt" stroke-opacity="0.0" clip-path="url(#id_0)" d="M132.0 300.0L127.0 300.0L127.0 151.0C127.0 149.89543 127.89543 149.0 129.0 149.0L130.0 149.0C131.10457 149.0 132.0 149.89543 132.0 151.0Z" fill-rule="nonzero"/><path fill="#4285f4" clip-path="url(#id_0)" d="M132.0 300.0L127.0 300.0L127.0 151.0C127.0 149.89543 127.89543 149.0 129.0 149.0L130.0 149.0C131.10457 149.0 132.0 149.89543 132.0 151.0Z" fill-rule="nonzero"/><path stroke="#000000" stroke-width="2.0" stroke-linecap="butt" stroke-opacity="0.0" clip-path="url(#id_0)" d="M153.0 300.0L148.0 300.0L148.0 298.5C148.0 297.67157 148.67157 297.0 149.5 297.0L151.5 297.0C152.32843 297.0 153.0 297.67157 153.0 298.5Z" fill-rule="nonzero"/><path fill="#4285f4" clip-path="url(#id_0)" d="M153.0 300.0L148.0 300.0L148.0 298.5C148.0 297.67157 148.67157 297.0 149.5 297.0L151.5 297.0C152.32843 297.0 153.0 297.67157 153.0 298.5Z" fill-rule="nonzero"/><path stroke="#000000" stroke-width="2.0" stroke-linecap="butt" stroke-opacity="0.0" clip-path="url(#id_0)" d="M173.0 300.0L168.0 300.0L168.0 271.0C168.0 269.89542 168.89543 269.0 170.0 269.0L171.0 269.0C172.10457 269.0 173.0 269.89542 173.0 271.0Z" fill-rule="nonzero"/><path fill="#4285f4" clip-path="url(#id_0)" d="M173.0 300.0L168.0 300.0L168.0 271.0C168.0 269.89542 168.89543 269.0 170.0 269.0L171.0 269.0C172.10457 269.0 173.0 269.89542 173.0 271.0Z" fill-rule="nonzero"/><path stroke="#000000" stroke-width="2.0" stroke-linecap="butt" stroke-opacity="0.0" clip-path="url(#id_0)" d="M194.0 300.0L189.0 300.0L189.0 199.0C189.0 197.89543 189.89543 197.0 191.0 197.0L192.0 197.0C193.10457 197.0 194.0 197.89543 194.0 199.0Z" fill-rule="nonzero"/><path fill="#4285f4" clip-path="url(#id_0)" d="M194.0 300.0L189.0 300.0L189.0 199.0C189.0 197.89543 189.89543 197.0 191.0 197.0L192.0 197.0C193.10457 197.0 194.0 197.89543 194.0 199.0Z" fill-rule="nonzero"/><path stroke="#000000" stroke-width="2.0" stroke-linecap="butt" stroke-opacity="0.0" clip-path="url(#id_0)" d="M215.0 300.0L210.0 300.0L210.0 285.0C210.0 283.89542 210.89543 283.0 212.0 283.0L213.0 283.0C214.10457 283.0 215.0 283.89542 215.0 285.0Z" fill-rule="nonzero"/><path fill="#4285f4" clip-path="url(#id_0)" d="M215.0 300.0L210.0 300.0L210.0 285.0C210.0 283.89542 210.89543 283.0 212.0 283.0L213.0 283.0C214.10457 283.0 215.0 283.89542 215.0 285.0Z" fill-rule="nonzero"/><path stroke="#000000" stroke-width="2.0" stroke-linecap="butt" stroke-opacity="0.0" clip-path="url(#id_0)" d="M235.0 300.0L230.0 300.0L230.0 257.0C230.0 255.89543 230.89543 255.0 232.0 255.0L233.0 255.0C234.10457 255.0 235.0 255.89543 235.0 257.0Z" fill-rule="nonzero"/><path fill="#4285f4" clip-path="url(#id_0)" d="M235.0 300.0L230.0 300.0L230.0 257.0C230.0 255.89543 230.89543 255.0 232.0 255.0L233.0 255.0C234.10457 255.0 235.0 255.89543 235.0 257.0Z" fill-rule="nonzero"/><path stroke="#000000" stroke-width="2.0" stroke-linecap="butt" stroke-opacity="0.0" clip-path="url(#id_0)" d="M256.0 300.0L251.0 300.0L251.0 285.0C251.0 283.89542 251.89543 283.0 253.0 283.0L254.0 283.0C255.10457 283.0 256.0 283.89542 256.0 285.0Z" fill-rule="nonzero"/><path fill="#4285f4" clip-path="url(#id_0)" d="M256.0 300.0L251.0 300.0L251.0 285.0C251.0 283.89542 251.89543 283.0 253.0 283.0L254.0 283.0C255.10457 283.0 256.0 283.89542 256.0 285.0Z" fill-rule="nonzero"/><path stroke="#000000" stroke-width="2.0" stroke-linecap="butt" stroke-opacity="0.0" clip-path="url(#id_0)" d="M277.0 300.0L272.0 300.0L272.0 169.0C272.0 167.89543 272.89542 167.0 274.0 167.0L275.0 167.0C276.10458 167.0 277.0 167.89543 277.0 169.0Z" fill-rule="nonzero"/><path fill="#4285f4" clip-path="url(#id_0)" d="M277.0 300.0L272.0 300.0L272.0 169.0C272.0 167.89543 272.89542 167.0 274.0 167.0L275.0 167.0C276.10458 167.0 277.0 167.89543 277.0 169.0Z" fill-rule="nonzero"/><path stroke="#000000" stroke-width="2.0" stroke-linecap="butt" stroke-opacity="0.0" clip-path="url(#id_0)" d="M297.0 300.0L292.0 300.0L292.0 184.0C292.0 182.89543 292.89542 182.0 294.0 182.0L295.0 182.0C296.10458 182.0 297.0 182.89543 297.0 184.0Z" fill-rule="nonzero"/><path fill="#4285f4" clip-path="url(#id_0)" d="M297.0 300.0L292.0 300.0L292.0 184.0C292.0 182.89543 292.89542 182.0 294.0 182.0L295.0 182.0C296.10458 182.0 297.0 182.89543 297.0 184.0Z" fill-rule="nonzero"/><path stroke="#000000" stroke-width="2.0" stroke-linecap="butt" stroke-opacity="0.0" clip-path="url(#id_0)" d="M318.0 300.0L313.0 300.0L313.0 132.0C313.0 130.89543 313.89542 130.0 315.0 130.0L316.0 130.0C317.10458 130.0 318.0 130.89543 318.0 132.0Z" fill-rule="nonzero"/><path fill="#4285f4" clip-path="url(#id_0)" d="M318.0 300.0L313.0 300.0L313.0 132.0C313.0 130.89543 313.89542 130.0 315.0 130.0L316.0 130.0C317.10458 130.0 318.0 130.89543 318.0 132.0Z" fill-rule="nonzero"/><path stroke="#000000" stroke-width="2.0" stroke-linecap="butt" stroke-opacity="0.0" clip-path="url(#id_0)" d="M339.0 300.0L334.0 300.0L334.0 116.0C334.0 114.89543 334.89542 114.0 336.0 114.0L337.0 114.0C338.10458 114.0 339.0 114.89543 339.0 116.0Z" fill-rule="nonzero"/><path fill="#4285f4" clip-path="url(#id_0)" d="M339.0 300.0L334.0 300.0L334.0 116.0C334.0 114.89543 334.89542 114.0 336.0 114.0L337.0 114.0C338.10458 114.0 339.0 114.89543 339.0 116.0Z" fill-rule="nonzero"/><path stroke="#000000" stroke-width="2.0" stroke-linecap="butt" stroke-opacity="0.0" clip-path="url(#id_0)" d="M360.0 300.0L355.0 300.0L355.0 224.0C355.0 222.89543 355.89542 222.0 357.0 222.0L358.0 222.0C359.10458 222.0 360.0 222.89543 360.0 224.0Z" fill-rule="nonzero"/><path fill="#4285f4" clip-path="url(#id_0)" d="M360.0 300.0L355.0 300.0L355.0 224.0C355.0 222.89543 355.89542 222.0 357.0 222.0L358.0 222.0C359.10458 222.0 360.0 222.89543 360.0 224.0Z" fill-rule="nonzero"/><path stroke="#000000" stroke-width="2.0" stroke-linecap="butt" stroke-opacity="0.0" clip-path="url(#id_0)" d="M380.0 300.0L375.0 300.0L375.0 275.0C375.0 273.89542 375.89542 273.0 377.0 273.0L378.0 273.0C379.10458 273.0 380.0 273.89542 380.0 275.0Z" fill-rule="nonzero"/><path fill="#4285f4" clip-path="url(#id_0)" d="M380.0 300.0L375.0 300.0L375.0 275.0C375.0 273.89542 375.89542 273.0 377.0 273.0L378.0 273.0C379.10458 273.0 380.0 273.89542 380.0 275.0Z" fill-rule="nonzero"/><path stroke="#000000" stroke-width="2.0" stroke-linecap="butt" stroke-opacity="0.0" clip-path="url(#id_0)" d="M401.0 300.0L396.0 300.0L396.0 166.0C396.0 164.89543 396.89542 164.0 398.0 164.0L399.0 164.0C400.10458 164.0 401.0 164.89543 401.0 166.0Z" fill-rule="nonzero"/><path fill="#4285f4" clip-path="url(#id_0)" d="M401.0 300.0L396.0 300.0L396.0 166.0C396.0 164.89543 396.89542 164.0 398.0 164.0L399.0 164.0C400.10458 164.0 401.0 164.89543 401.0 166.0Z" fill-rule="nonzero"/><path stroke="#000000" stroke-width="2.0" stroke-linecap="butt" stroke-opacity="0.0" clip-path="url(#id_0)" d="M422.0 300.0L417.0 300.0L417.0 296.0C417.0 294.89542 417.89542 294.0 419.0 294.0L420.0 294.0C421.10458 294.0 422.0 294.89542 422.0 296.0Z" fill-rule="nonzero"/><path fill="#4285f4" clip-path="url(#id_0)" d="M422.0 300.0L417.0 300.0L417.0 296.0C417.0 294.89542 417.89542 294.0 419.0 294.0L420.0 294.0C421.10458 294.0 422.0 294.89542 422.0 296.0Z" fill-rule="nonzero"/><path stroke="#000000" stroke-width="2.0" stroke-linecap="butt" stroke-opacity="0.0" clip-path="url(#id_0)" d="M442.0 300.0L437.0 300.0L437.0 203.0C437.0 201.89543 437.89542 201.0 439.0 201.0L440.0 201.0C441.10458 201.0 442.0 201.89543 442.0 203.0Z" fill-rule="nonzero"/><path fill="#4285f4" clip-path="url(#id_0)" d="M442.0 300.0L437.0 300.0L437.0 203.0C437.0 201.89543 437.89542 201.0 439.0 201.0L440.0 201.0C441.10458 201.0 442.0 201.89543 442.0 203.0Z" fill-rule="nonzero"/><path stroke="#000000" stroke-width="2.0" stroke-linecap="butt" stroke-opacity="0.0" clip-path="url(#id_0)" d="M463.0 300.0L458.0 300.0L458.0 269.0C458.0 267.89542 458.89542 267.0 460.0 267.0L461.0 267.0C462.10458 267.0 463.0 267.89542 463.0 269.0Z" fill-rule="nonzero"/><path fill="#4285f4" clip-path="url(#id_0)" d="M463.0 300.0L458.0 300.0L458.0 269.0C458.0 267.89542 458.89542 267.0 460.0 267.0L461.0 267.0C462.10458 267.0 463.0 267.89542 463.0 269.0Z" fill-rule="nonzero"/><path stroke="#000000" stroke-width="2.0" stroke-linecap="butt" stroke-opacity="0.0" clip-path="url(#id_0)" d="M484.0 300.0L479.0 300.0L479.0 289.0C479.0 287.89542 479.89542 287.0 481.0 287.0L482.0 287.0C483.10458 287.0 484.0 287.89542 484.0 289.0Z" fill-rule="nonzero"/><path fill="#4285f4" clip-path="url(#id_0)" d="M484.0 300.0L479.0 300.0L479.0 289.0C479.0 287.89542 479.89542 287.0 481.0 287.0L482.0 287.0C483.10458 287.0 484.0 287.89542 484.0 289.0Z" fill-rule="nonzero"/><path stroke="#000000" stroke-width="2.0" stroke-linecap="butt" stroke-opacity="0.0" clip-path="url(#id_0)" d="M98.0 300.0L93.0 300.0L93.0 283.0C93.0 281.89542 93.89543 281.0 95.0 281.0L96.0 281.0C97.10457 281.0 98.0 281.89542 98.0 283.0Z" fill-rule="nonzero"/><path fill="#ea4335" clip-path="url(#id_0)" d="M98.0 300.0L93.0 300.0L93.0 283.0C93.0 281.89542 93.89543 281.0 95.0 281.0L96.0 281.0C97.10457 281.0 98.0 281.89542 98.0 283.0Z" fill-rule="nonzero"/><path stroke="#000000" stroke-width="2.0" stroke-linecap="butt" stroke-opacity="0.0" clip-path="url(#id_0)" d="M118.0 300.0L113.0 300.0L113.0 254.0C113.0 252.89543 113.89543 252.0 115.0 252.0L116.0 252.0C117.10457 252.0 118.0 252.89543 118.0 254.0Z" fill-rule="nonzero"/><path fill="#ea4335" clip-path="url(#id_0)" d="M118.0 300.0L113.0 300.0L113.0 254.0C113.0 252.89543 113.89543 252.0 115.0 252.0L116.0 252.0C117.10457 252.0 118.0 252.89543 118.0 254.0Z" fill-rule="nonzero"/><path stroke="#000000" stroke-width="2.0" stroke-linecap="butt" stroke-opacity="0.0" clip-path="url(#id_0)" d="M139.0 300.0L134.0 300.0L134.0 282.0C134.0 280.89542 134.89543 280.0 136.0 280.0L137.0 280.0C138.10457 280.0 139.0 280.89542 139.0 282.0Z" fill-rule="nonzero"/><path fill="#ea4335" clip-path="url(#id_0)" d="M139.0 300.0L134.0 300.0L134.0 282.0C134.0 280.89542 134.89543 280.0 136.0 280.0L137.0 280.0C138.10457 280.0 139.0 280.89542 139.0 282.0Z" fill-rule="nonzero"/><path stroke="#000000" stroke-width="2.0" stroke-linecap="butt" stroke-opacity="0.0" clip-path="url(#id_0)" d="M160.0 300.0L155.0 300.0L155.0 279.0C155.0 277.89542 155.89543 277.0 157.0 277.0L158.0 277.0C159.10457 277.0 160.0 277.89542 160.0 279.0Z" fill-rule="nonzero"/><path fill="#ea4335" clip-path="url(#id_0)" d="M160.0 300.0L155.0 300.0L155.0 279.0C155.0 277.89542 155.89543 277.0 157.0 277.0L158.0 277.0C159.10457 277.0 160.0 277.89542 160.0 279.0Z" fill-rule="nonzero"/><path stroke="#000000" stroke-width="2.0" stroke-linecap="butt" stroke-opacity="0.0" clip-path="url(#id_0)" d="M180.0 300.0L175.0 300.0L175.0 115.0C175.0 113.89543 175.89543 113.0 177.0 113.0L178.0 113.0C179.10457 113.0 180.0 113.89543 180.0 115.0Z" fill-rule="nonzero"/><path fill="#ea4335" clip-path="url(#id_0)" d="M180.0 300.0L175.0 300.0L175.0 115.0C175.0 113.89543 175.89543 113.0 177.0 113.0L178.0 113.0C179.10457 113.0 180.0 113.89543 180.0 115.0Z" fill-rule="nonzero"/><path stroke="#000000" stroke-width="2.0" stroke-linecap="butt" stroke-opacity="0.0" clip-path="url(#id_0)" d="M201.0 300.0L196.0 300.0L196.0 291.0C196.0 289.89542 196.89543 289.0 198.0 289.0L199.0 289.0C200.10457 289.0 201.0 289.89542 201.0 291.0Z" fill-rule="nonzero"/><path fill="#ea4335" clip-path="url(#id_0)" d="M201.0 300.0L196.0 300.0L196.0 291.0C196.0 289.89542 196.89543 289.0 198.0 289.0L199.0 289.0C200.10457 289.0 201.0 289.89542 201.0 291.0Z" fill-rule="nonzero"/><path stroke="#000000" stroke-width="2.0" stroke-linecap="butt" stroke-opacity="0.0" clip-path="url(#id_0)" d="M222.0 300.0L217.0 300.0L217.0 220.0C217.0 218.89543 217.89543 218.0 219.0 218.0L220.0 218.0C221.10457 218.0 222.0 218.89543 222.0 220.0Z" fill-rule="nonzero"/><path fill="#ea4335" clip-path="url(#id_0)" d="M222.0 300.0L217.0 300.0L217.0 220.0C217.0 218.89543 217.89543 218.0 219.0 218.0L220.0 218.0C221.10457 218.0 222.0 218.89543 222.0 220.0Z" fill-rule="nonzero"/><path stroke="#000000" stroke-width="2.0" stroke-linecap="butt" stroke-opacity="0.0" clip-path="url(#id_0)" d="M242.0 300.0L237.0 300.0L237.0 269.0C237.0 267.89542 237.89543 267.0 239.0 267.0L240.0 267.0C241.10457 267.0 242.0 267.89542 242.0 269.0Z" fill-rule="nonzero"/><path fill="#ea4335" clip-path="url(#id_0)" d="M242.0 300.0L237.0 300.0L237.0 269.0C237.0 267.89542 237.89543 267.0 239.0 267.0L240.0 267.0C241.10457 267.0 242.0 267.89542 242.0 269.0Z" fill-rule="nonzero"/><path stroke="#000000" stroke-width="2.0" stroke-linecap="butt" stroke-opacity="0.0" clip-path="url(#id_0)" d="M263.0 300.0L258.0 300.0L258.0 265.0C258.0 263.89542 258.89542 263.0 260.0 263.0L261.0 263.0C262.10458 263.0 263.0 263.89542 263.0 265.0Z" fill-rule="nonzero"/><path fill="#ea4335" clip-path="url(#id_0)" d="M263.0 300.0L258.0 300.0L258.0 265.0C258.0 263.89542 258.89542 263.0 260.0 263.0L261.0 263.0C262.10458 263.0 263.0 263.89542 263.0 265.0Z" fill-rule="nonzero"/><path stroke="#000000" stroke-width="2.0" stroke-linecap="butt" stroke-opacity="0.0" clip-path="url(#id_0)" d="M284.0 300.0L279.0 300.0L279.0 243.0C279.0 241.89543 279.89542 241.0 281.0 241.0L282.0 241.0C283.10458 241.0 284.0 241.89543 284.0 243.0Z" fill-rule="nonzero"/><path fill="#ea4335" clip-path="url(#id_0)" d="M284.0 300.0L279.0 300.0L279.0 243.0C279.0 241.89543 279.89542 241.0 281.0 241.0L282.0 241.0C283.10458 241.0 284.0 241.89543 284.0 243.0Z" fill-rule="nonzero"/><path stroke="#000000" stroke-width="2.0" stroke-linecap="butt" stroke-opacity="0.0" clip-path="url(#id_0)" d="M304.0 300.0L299.0 300.0L299.0 265.0C299.0 263.89542 299.89542 263.0 301.0 263.0L302.0 263.0C303.10458 263.0 304.0 263.89542 304.0 265.0Z" fill-rule="nonzero"/><path fill="#ea4335" clip-path="url(#id_0)" d="M304.0 300.0L299.0 300.0L299.0 265.0C299.0 263.89542 299.89542 263.0 301.0 263.0L302.0 263.0C303.10458 263.0 304.0 263.89542 304.0 265.0Z" fill-rule="nonzero"/><path stroke="#000000" stroke-width="2.0" stroke-linecap="butt" stroke-opacity="0.0" clip-path="url(#id_0)" d="M325.0 300.0L320.0 300.0L320.0 285.0C320.0 283.89542 320.89542 283.0 322.0 283.0L323.0 283.0C324.10458 283.0 325.0 283.89542 325.0 285.0Z" fill-rule="nonzero"/><path fill="#ea4335" clip-path="url(#id_0)" d="M325.0 300.0L320.0 300.0L320.0 285.0C320.0 283.89542 320.89542 283.0 322.0 283.0L323.0 283.0C324.10458 283.0 325.0 283.89542 325.0 285.0Z" fill-rule="nonzero"/><path stroke="#000000" stroke-width="2.0" stroke-linecap="butt" stroke-opacity="0.0" clip-path="url(#id_0)" d="M346.0 300.0L341.0 300.0L341.0 231.0C341.0 229.89543 341.89542 229.0 343.0 229.0L344.0 229.0C345.10458 229.0 346.0 229.89543 346.0 231.0Z" fill-rule="nonzero"/><path fill="#ea4335" clip-path="url(#id_0)" d="M346.0 300.0L341.0 300.0L341.0 231.0C341.0 229.89543 341.89542 229.0 343.0 229.0L344.0 229.0C345.10458 229.0 346.0 229.89543 346.0 231.0Z" fill-rule="nonzero"/><path stroke="#000000" stroke-width="2.0" stroke-linecap="butt" stroke-opacity="0.0" clip-path="url(#id_0)" d="M367.0 300.0L362.0 300.0L362.0 226.0C362.0 224.89543 362.89542 224.0 364.0 224.0L365.0 224.0C366.10458 224.0 367.0 224.89543 367.0 226.0Z" fill-rule="nonzero"/><path fill="#ea4335" clip-path="url(#id_0)" d="M367.0 300.0L362.0 300.0L362.0 226.0C362.0 224.89543 362.89542 224.0 364.0 224.0L365.0 224.0C366.10458 224.0 367.0 224.89543 367.0 226.0Z" fill-rule="nonzero"/><path stroke="#000000" stroke-width="2.0" stroke-linecap="butt" stroke-opacity="0.0" clip-path="url(#id_0)" d="M387.0 300.0L382.0 300.0L382.0 227.0C382.0 225.89543 382.89542 225.0 384.0 225.0L385.0 225.0C386.10458 225.0 387.0 225.89543 387.0 227.0Z" fill-rule="nonzero"/><path fill="#ea4335" clip-path="url(#id_0)" d="M387.0 300.0L382.0 300.0L382.0 227.0C382.0 225.89543 382.89542 225.0 384.0 225.0L385.0 225.0C386.10458 225.0 387.0 225.89543 387.0 227.0Z" fill-rule="nonzero"/><path stroke="#000000" stroke-width="2.0" stroke-linecap="butt" stroke-opacity="0.0" clip-path="url(#id_0)" d="M408.0 300.0L403.0 300.0L403.0 220.0C403.0 218.89543 403.89542 218.0 405.0 218.0L406.0 218.0C407.10458 218.0 408.0 218.89543 408.0 220.0Z" fill-rule="nonzero"/><path fill="#ea4335" clip-path="url(#id_0)" d="M408.0 300.0L403.0 300.0L403.0 220.0C403.0 218.89543 403.89542 218.0 405.0 218.0L406.0 218.0C407.10458 218.0 408.0 218.89543 408.0 220.0Z" fill-rule="nonzero"/><path stroke="#000000" stroke-width="2.0" stroke-linecap="butt" stroke-opacity="0.0" clip-path="url(#id_0)" d="M429.0 300.0L424.0 300.0L424.0 254.0C424.0 252.89543 424.89542 252.0 426.0 252.0L427.0 252.0C428.10458 252.0 429.0 252.89543 429.0 254.0Z" fill-rule="nonzero"/><path fill="#ea4335" clip-path="url(#id_0)" d="M429.0 300.0L424.0 300.0L424.0 254.0C424.0 252.89543 424.89542 252.0 426.0 252.0L427.0 252.0C428.10458 252.0 429.0 252.89543 429.0 254.0Z" fill-rule="nonzero"/><path stroke="#000000" stroke-width="2.0" stroke-linecap="butt" stroke-opacity="0.0" clip-path="url(#id_0)" d="M449.0 300.0L444.0 300.0L444.0 270.0C444.0 268.89542 444.89542 268.0 446.0 268.0L447.0 268.0C448.10458 268.0 449.0 268.89542 449.0 270.0Z" fill-rule="nonzero"/><path fill="#ea4335" clip-path="url(#id_0)" d="M449.0 300.0L444.0 300.0L444.0 270.0C444.0 268.89542 444.89542 268.0 446.0 268.0L447.0 268.0C448.10458 268.0 449.0 268.89542 449.0 270.0Z" fill-rule="nonzero"/><path stroke="#000000" stroke-width="2.0" stroke-linecap="butt" stroke-opacity="0.0" clip-path="url(#id_0)" d="M470.0 300.0L465.0 300.0L465.0 221.0C465.0 219.89543 465.89542 219.0 467.0 219.0L468.0 219.0C469.10458 219.0 470.0 219.89543 470.0 221.0Z" fill-rule="nonzero"/><path fill="#ea4335" clip-path="url(#id_0)" d="M470.0 300.0L465.0 300.0L465.0 221.0C465.0 219.89543 465.89542 219.0 467.0 219.0L468.0 219.0C469.10458 219.0 470.0 219.89543 470.0 221.0Z" fill-rule="nonzero"/><path stroke="#000000" stroke-width="2.0" stroke-linecap="butt" stroke-opacity="0.0" clip-path="url(#id_0)" d="M491.0 300.0L486.0 300.0L486.0 172.0C486.0 170.89543 486.89542 170.0 488.0 170.0L489.0 170.0C490.10458 170.0 491.0 170.89543 491.0 172.0Z" fill-rule="nonzero"/><path fill="#ea4335" clip-path="url(#id_0)" d="M491.0 300.0L486.0 300.0L486.0 172.0C486.0 170.89543 486.89542 170.0 488.0 170.0L489.0 170.0C490.10458 170.0 491.0 170.89543 491.0 172.0Z" fill-rule="nonzero"/><path fill="#000000" d="M245.53535 349.45L245.53535 340.85626L251.73848 340.85626L251.73848 341.8719L246.67598 341.8719L246.67598 344.4969L251.42598 344.4969L251.42598 345.5125L246.67598 345.5125L246.67598 348.4344L251.9416 348.4344L251.9416 349.45L245.53535 349.45ZM253.3791 349.45L253.3791 343.23126L254.3166 343.23126L254.3166 344.10626Q255.0041 343.09064 256.30096 343.09064Q256.86346 343.09064 257.3322 343.29376Q257.8166 343.4969 258.05096 343.825Q258.28534 344.15314 258.3791 344.59064Q258.42596 344.8875 258.42596 345.6219L258.42596 349.45L257.3791 349.45L257.3791 345.66876Q257.3791 345.0125 257.2541 344.7Q257.1291 344.3875 256.8166 344.2Q256.5041 343.9969 256.0822 343.9969Q255.41035 343.9969 254.91035 344.4344Q254.42598 344.85626 254.42598 346.04376L254.42598 349.45L253.3791 349.45ZM262.67596 348.5125L262.8322 349.4344Q262.3791 349.52814 262.03534 349.52814Q261.4572 349.52814 261.1447 349.35626Q260.8322 349.16876 260.6916 348.8719Q260.5666 348.575 260.5666 347.6219L260.5666 344.04376L259.80096 344.04376L259.80096 343.23126L260.5666 343.23126L260.5666 341.6844L261.61346 341.0594L261.61346 343.23126L262.67596 343.23126L262.67596 344.04376L261.61346 344.04376L261.61346 347.6844Q261.61346 348.1375 261.66034 348.2625Q261.72284 348.3875 261.84784 348.46564Q261.97284 348.54376 262.2072 348.54376Q262.3947 348.54376 262.67596 348.5125ZM263.36346 349.45L263.36346 343.23126L264.3166 343.23126L264.3166 344.16876Q264.67596 343.5125 264.97284 343.3094Q265.28534 343.09064 265.66034 343.09064Q266.1916 343.09064 266.73846 343.41876L266.3791 344.40314Q265.98846 344.16876 265.61346 344.16876Q265.2541 344.16876 264.97284 344.3875Q264.7072 344.59064 264.59784 344.96564Q264.41034 345.52814 264.41034 346.1844L264.41034 349.45L263.36346 349.45ZM271.4416 348.6844Q270.84784 349.1844 270.30096 349.3875Q269.7697 349.59064 269.1447 349.59064Q268.11346 349.59064 267.5666 349.09064Q267.0197 348.59064 267.0197 347.8094Q267.0197 347.35626 267.22284 346.98126Q267.42596 346.59064 267.7697 346.3719Q268.11346 346.1375 268.53534 346.02814Q268.8322 345.9344 269.47284 345.85626Q270.73846 345.71564 271.34784 345.4969Q271.34784 345.27814 271.34784 345.23126Q271.34784 344.575 271.05096 344.3094Q270.6447 343.96564 269.84784 343.96564Q269.11346 343.96564 268.7541 344.23126Q268.3947 344.48126 268.22284 345.1375L267.1916 344.9969Q267.3322 344.34064 267.66034 343.9344Q267.98846 343.52814 268.59784 343.3094Q269.2072 343.09064 270.0041 343.09064Q270.80096 343.09064 271.30096 343.27814Q271.80096 343.46564 272.03534 343.7469Q272.2697 344.02814 272.36346 344.46564Q272.41034 344.73126 272.41034 345.4344L272.41034 346.84064Q272.41034 348.3094 272.47284 348.7Q272.55096 349.09064 272.7541 349.45L271.6447 349.45Q271.48846 349.1219 271.4416 348.6844ZM271.34784 346.325Q270.7697 346.5594 269.6291 346.73126Q268.97284 346.825 268.7072 346.95Q268.4416 347.0594 268.28534 347.27814Q268.1447 347.4969 268.1447 347.77814Q268.1447 348.2 268.4572 348.48126Q268.78534 348.7625 269.3947 348.7625Q270.0041 348.7625 270.47284 348.4969Q270.9572 348.23126 271.17596 347.7625Q271.34784 347.40314 271.34784 346.71564L271.34784 346.325ZM274.3791 349.45L274.3791 343.23126L275.3166 343.23126L275.3166 344.10626Q276.0041 343.09064 277.30096 343.09064Q277.86346 343.09064 278.3322 343.29376Q278.8166 343.4969 279.05096 343.825Q279.28534 344.15314 279.3791 344.59064Q279.42596 344.8875 279.42596 345.6219L279.42596 349.45L278.3791 349.45L278.3791 345.66876Q278.3791 345.0125 278.2541 344.7Q278.1291 344.3875 277.8166 344.2Q277.5041 343.9969 277.0822 343.9969Q276.41034 343.9969 275.91034 344.4344Q275.42596 344.85626 275.42596 346.04376L275.42596 349.45L274.3791 349.45ZM283.67596 348.5125L283.8322 349.4344Q283.3791 349.52814 283.03534 349.52814Q282.4572 349.52814 282.1447 349.35626Q281.8322 349.16876 281.6916 348.8719Q281.5666 348.575 281.5666 347.6219L281.5666 344.04376L280.80096 344.04376L280.80096 343.23126L281.5666 343.23126L281.5666 341.6844L282.61346 341.0594L282.61346 343.23126L283.67596 343.23126L283.67596 344.04376L282.61346 344.04376L282.61346 347.6844Q282.61346 348.1375 282.66034 348.2625Q282.72284 348.3875 282.84784 348.46564Q282.97284 348.54376 283.2072 348.54376Q283.3947 348.54376 283.67596 348.5125ZM287.5041 349.45L287.5041 340.85626L288.66034 340.85626L293.17596 347.60626L293.17596 340.85626L294.2697 340.85626L294.2697 349.45L293.09784 349.45L288.5822 342.7L288.5822 349.45L287.5041 349.45ZM300.4572 349.45L300.4572 348.52814Q299.72284 349.59064 298.47284 349.59064Q297.92596 349.59064 297.4416 349.3875Q296.97284 349.16876 296.73846 348.85626Q296.5041 348.52814 296.41034 348.0594Q296.34784 347.7625 296.34784 347.075L296.34784 343.23126L297.41034 343.23126L297.41034 346.6844Q297.41034 347.4969 297.47284 347.79376Q297.5666 348.2 297.8791 348.45Q298.2072 348.6844 298.6916 348.6844Q299.16034 348.6844 299.5666 348.45Q299.98846 348.2 300.16034 347.77814Q300.34784 347.35626 300.34784 346.5594L300.34784 343.23126L301.3947 343.23126L301.3947 349.45L300.4572 349.45ZM303.3791 349.45L303.3791 343.23126L304.3166 343.23126L304.3166 344.10626Q304.61346 343.6375 305.09784 343.3719Q305.5822 343.09064 306.2072 343.09064Q306.8947 343.09064 307.3322 343.3719Q307.78534 343.65314 307.9572 344.16876Q308.7072 343.09064 309.8791 343.09064Q310.8166 343.09064 311.30096 343.60626Q311.80096 344.10626 311.80096 345.1844L311.80096 349.45L310.7541 349.45L310.7541 345.52814Q310.7541 344.90314 310.6447 344.6219Q310.55096 344.34064 310.28534 344.16876Q310.0197 343.9969 309.6447 343.9969Q308.98846 343.9969 308.55096 344.4344Q308.1291 344.8719 308.1291 345.84064L308.1291 349.45L307.0666 349.45L307.0666 345.40314Q307.0666 344.7 306.80096 344.35626Q306.55096 343.9969 305.97284 343.9969Q305.5197 343.9969 305.1447 344.23126Q304.7697 344.46564 304.59784 344.91876Q304.42596 345.3719 304.42596 346.21564L304.42596 349.45L303.3791 349.45ZM315.34784 349.45L314.36346 349.45L314.36346 340.85626L315.42596 340.85626L315.42596 343.91876Q316.09784 343.09064 317.1291 343.09064Q317.7072 343.09064 318.2072 343.325Q318.72284 343.54376 319.05096 343.96564Q319.3947 344.3875 319.5822 344.98126Q319.7697 345.575 319.7697 346.2469Q319.7697 347.84064 318.97284 348.71564Q318.17596 349.59064 317.0822 349.59064Q315.97284 349.59064 315.34784 348.66876L315.34784 349.45ZM315.3322 346.29376Q315.3322 347.40314 315.6447 347.90314Q316.1447 348.71564 316.98846 348.71564Q317.67596 348.71564 318.17596 348.1219Q318.6916 347.52814 318.6916 346.325Q318.6916 345.10626 318.2072 344.52814Q317.72284 343.95 317.03534 343.95Q316.34784 343.95 315.8322 344.5594Q315.3322 345.15314 315.3322 346.29376ZM325.6291 347.45L326.72284 347.575Q326.47284 348.52814 325.7697 349.0594Q325.0666 349.59064 323.98846 349.59064Q322.6291 349.59064 321.8166 348.7469Q321.0197 347.90314 321.0197 346.3875Q321.0197 344.825 321.8322 343.96564Q322.6447 343.09064 323.92596 343.09064Q325.17596 343.09064 325.9572 343.9344Q326.7541 344.77814 326.7541 346.325Q326.7541 346.41876 326.7541 346.60626L322.11346 346.60626Q322.17596 347.6375 322.6916 348.1844Q323.2072 348.71564 323.98846 348.71564Q324.5666 348.71564 324.97284 348.41876Q325.3947 348.10626 325.6291 347.45ZM322.17596 345.7469L325.6447 345.7469Q325.5822 344.95 325.2541 344.5594Q324.73846 343.95 323.9416 343.95Q323.2072 343.95 322.7072 344.4344Q322.22284 344.91876 322.17596 345.7469ZM328.36346 349.45L328.36346 343.23126L329.3166 343.23126L329.3166 344.16876Q329.67596 343.5125 329.97284 343.3094Q330.28534 343.09064 330.66034 343.09064Q331.1916 343.09064 331.73846 343.41876L331.3791 344.40314Q330.98846 344.16876 330.61346 344.16876Q330.2541 344.16876 329.97284 344.3875Q329.7072 344.59064 329.59784 344.96564Q329.41034 345.52814 329.41034 346.1844L329.41034 349.45L328.36346 349.45Z" fill-rule="nonzero"/><path fill="#000000" d="M29.550013 251.76146L20.956263 251.76146L20.956263 248.79271Q20.956263 247.79271 21.081263 247.26146Q21.253138 246.52708 21.690638 246.01146Q22.268763 245.32396 23.175013 244.99583Q24.065638 244.65208 25.206263 244.65208Q26.190638 244.65208 26.940638 244.88646Q27.690638 245.10521 28.190638 245.46458Q28.690638 245.82396 28.971888 246.26146Q29.253138 246.68333 29.409388 247.27708Q29.550013 247.87083 29.550013 248.65208L29.550013 251.76146ZM28.534388 250.62083L28.534388 248.79271Q28.534388 247.93333 28.378138 247.44896Q28.221888 246.96458 27.925013 246.68333Q27.534388 246.27708 26.846888 246.05833Q26.159388 245.82396 25.190638 245.82396Q23.846888 245.82396 23.128138 246.27708Q22.393763 246.71458 22.143763 247.33958Q21.971888 247.80833 21.971888 248.80833L21.971888 250.62083L28.534388 250.62083ZM27.550013 238.63646L27.675013 237.54271Q28.628138 237.79271 29.159388 238.49583Q29.690638 239.19896 29.690638 240.27708Q29.690638 241.63646 28.846888 242.44896Q28.003138 243.24583 26.487513 243.24583Q24.925013 243.24583 24.065638 242.43333Q23.190638 241.62083 23.190638 240.33958Q23.190638 239.08958 24.034388 238.30833Q24.878138 237.51146 26.425013 237.51146Q26.518763 237.51146 26.706263 237.51146L26.706263 242.15208Q27.737513 242.08958 28.284388 241.57396Q28.815638 241.05833 28.815638 240.27708Q28.815638 239.69896 28.518763 239.29271Q28.206263 238.87083 27.550013 238.63646ZM25.846888 242.08958L25.846888 238.62083Q25.050013 238.68333 24.659388 239.01146Q24.050013 239.52708 24.050013 240.32396Q24.050013 241.05833 24.534388 241.55833Q25.018763 242.04271 25.846888 242.08958ZM29.550013 234.16771L23.331263 236.52708L23.331263 235.41771L27.050013 234.07396Q27.659388 233.87083 28.300013 233.68333Q27.815638 233.54271 27.128138 233.29271L23.331263 231.90208L23.331263 230.82396L29.550013 233.18333L29.550013 234.16771ZM22.175013 230.88646L20.956263 230.88646L20.956263 229.82396L22.175013 229.82396L22.175013 230.88646ZM29.550013 230.88646L23.331263 230.88646L23.331263 229.82396L29.550013 229.82396L29.550013 230.88646ZM28.784388 223.82396Q29.284388 224.41771 29.487513 224.96458Q29.690638 225.49583 29.690638 226.12083Q29.690638 227.15208 29.190638 227.69896Q28.690638 228.24583 27.909388 228.24583Q27.456263 228.24583 27.081263 228.04271Q26.690638 227.83958 26.471888 227.49583Q26.237513 227.15208 26.128138 226.73021Q26.034388 226.43333 25.956263 225.79271Q25.815638 224.52708 25.596888 223.91771Q25.378138 223.91771 25.331263 223.91771Q24.675013 223.91771 24.409388 224.21458Q24.065638 224.62083 24.065638 225.41771Q24.065638 226.15208 24.331263 226.51146Q24.581263 226.87083 25.237513 227.04271L25.096888 228.07396Q24.440638 227.93333 24.034388 227.60521Q23.628138 227.27708 23.409388 226.66771Q23.190638 226.05833 23.190638 225.26146Q23.190638 224.46458 23.378138 223.96458Q23.565638 223.46458 23.846888 223.23021Q24.128138 222.99583 24.565638 222.90208Q24.831263 222.85521 25.534388 222.85521L26.940638 222.85521Q28.409388 222.85521 28.800013 222.79271Q29.190638 222.71458 29.550013 222.51146L29.550013 223.62083Q29.221888 223.77708 28.784388 223.82396ZM26.425013 223.91771Q26.659388 224.49583 26.831263 225.63646Q26.925013 226.29271 27.050013 226.55833Q27.159388 226.82396 27.378138 226.98021Q27.596888 227.12083 27.878138 227.12083Q28.300013 227.12083 28.581263 226.80833Q28.862513 226.48021 28.862513 225.87083Q28.862513 225.26146 28.596888 224.79271Q28.331263 224.30833 27.862513 224.08958Q27.503138 223.91771 26.815638 223.91771L26.425013 223.91771ZM28.612513 218.58958L29.534388 218.43333Q29.628138 218.88646 29.628138 219.23021Q29.628138 219.80833 29.456263 220.12083Q29.268763 220.43333 28.971888 220.57396Q28.675013 220.69896 27.721888 220.69896L24.143763 220.69896L24.143763 221.46458L23.331263 221.46458L23.331263 220.69896L21.784388 220.69896L21.159388 219.65208L23.331263 219.65208L23.331263 218.58958L24.143763 218.58958L24.143763 219.65208L27.784388 219.65208Q28.237513 219.65208 28.362513 219.60521Q28.487513 219.54271 28.565638 219.41771Q28.643763 219.29271 28.643763 219.05833Q28.643763 218.87083 28.612513 218.58958ZM22.175013 217.88646L20.956263 217.88646L20.956263 216.82396L22.175013 216.82396L22.175013 217.88646ZM29.550013 217.88646L23.331263 217.88646L23.331263 216.82396L29.550013 216.82396L29.550013 217.88646ZM26.440638 215.27708Q24.706263 215.27708 23.878138 214.32396Q23.190638 213.52708 23.190638 212.37083Q23.190638 211.08958 24.034388 210.27708Q24.862513 209.44896 26.346888 209.44896Q27.550013 209.44896 28.237513 209.80833Q28.925013 210.16771 29.315638 210.87083Q29.690638 211.55833 29.690638 212.37083Q29.690638 213.66771 28.862513 214.48021Q28.018763 215.27708 26.440638 215.27708ZM26.440638 214.19896Q27.628138 214.19896 28.221888 213.68333Q28.815638 213.15208 28.815638 212.37083Q28.815638 211.57396 28.221888 211.05833Q27.628138 210.54271 26.409388 210.54271Q25.253138 210.54271 24.659388 211.07396Q24.065638 211.58958 24.065638 212.37083Q24.065638 213.15208 24.659388 213.68333Q25.237513 214.19896 26.440638 214.19896ZM29.550013 207.88646L23.331263 207.88646L23.331263 206.94896L24.206263 206.94896Q23.190638 206.26146 23.190638 204.96458Q23.190638 204.40208 23.393763 203.93333Q23.596888 203.44896 23.925013 203.21458Q24.253138 202.98021 24.690638 202.88646Q24.987513 202.83958 25.721888 202.83958L29.550013 202.83958L29.550013 203.88646L25.768763 203.88646Q25.112513 203.88646 24.800013 204.01146Q24.487513 204.13646 24.300013 204.44896Q24.096888 204.76146 24.096888 205.18333Q24.096888 205.85521 24.534388 206.35521Q24.956263 206.83958 26.143763 206.83958L29.550013 206.83958L29.550013 207.88646ZM29.550013 197.69896L20.956263 197.69896L20.956263 191.90208L21.971888 191.90208L21.971888 196.55833L24.628138 196.55833L24.628138 192.52708L25.643763 192.52708L25.643763 196.55833L29.550013 196.55833L29.550013 197.69896ZM29.550013 190.90208L23.331263 190.90208L23.331263 189.94896L24.268763 189.94896Q23.612513 189.58958 23.409388 189.29271Q23.190638 188.98021 23.190638 188.60521Q23.190638 188.07396 23.518763 187.52708L24.503138 187.88646Q24.268763 188.27708 24.268763 188.65208Q24.268763 189.01146 24.487513 189.29271Q24.690638 189.55833 25.065638 189.66771Q25.628138 189.85521 26.284388 189.85521L29.550013 189.85521L29.550013 190.90208ZM26.440638 187.27708Q24.706263 187.27708 23.878138 186.32396Q23.190638 185.52708 23.190638 184.37083Q23.190638 183.08958 24.034388 182.27708Q24.862513 181.44896 26.346888 181.44896Q27.550013 181.44896 28.237513 181.80833Q28.925013 182.16771 29.315638 182.87083Q29.690638 183.55833 29.690638 184.37083Q29.690638 185.66771 28.862513 186.48021Q28.018763 187.27708 26.440638 187.27708ZM26.440638 186.19896Q27.628138 186.19896 28.221888 185.68333Q28.815638 185.15208 28.815638 184.37083Q28.815638 183.57396 28.221888 183.05833Q27.628138 182.54271 26.409388 182.54271Q25.253138 182.54271 24.659388 183.07396Q24.065638 183.58958 24.065638 184.37083Q24.065638 185.15208 24.659388 185.68333Q25.237513 186.19896 26.440638 186.19896ZM29.550013 179.88646L23.331263 179.88646L23.331263 178.94896L24.206263 178.94896Q23.737513 178.65208 23.471888 178.16771Q23.190638 177.68333 23.190638 177.05833Q23.190638 176.37083 23.471888 175.93333Q23.753138 175.48021 24.268763 175.30833Q23.190638 174.55833 23.190638 173.38646Q23.190638 172.44896 23.706263 171.96458Q24.206263 171.46458 25.284388 171.46458L29.550013 171.46458L29.550013 172.51146L25.628138 172.51146Q25.003138 172.51146 24.721888 172.62083Q24.440638 172.71458 24.268763 172.98021Q24.096888 173.24583 24.096888 173.62083Q24.096888 174.27708 24.534388 174.71458Q24.971888 175.13646 25.940638 175.13646L29.550013 175.13646L29.550013 176.19896L25.503138 176.19896Q24.800013 176.19896 24.456263 176.46458Q24.096888 176.71458 24.096888 177.29271Q24.096888 177.74583 24.331263 178.12083Q24.565638 178.49583 25.018763 178.66771Q25.471888 178.83958 26.315638 178.83958L29.550013 178.83958L29.550013 179.88646ZM29.550013 166.69896L20.956263 163.40208L20.956263 162.18333L29.550013 158.66771L29.550013 159.94896L26.940638 160.96458L26.940638 164.54271L29.550013 165.49583L29.550013 166.69896ZM26.018763 164.21458L26.018763 161.30833L23.643763 162.19896Q22.565638 162.62083 21.862513 162.80833Q22.690638 162.98021 23.503138 163.27708L26.018763 164.21458ZM29.550013 157.16771L23.331263 159.52708L23.331263 158.41771L27.050013 157.07396Q27.659388 156.87083 28.300013 156.68333Q27.815638 156.54271 27.128138 156.29271L23.331263 154.90208L23.331263 153.82396L29.550013 156.18333L29.550013 157.16771ZM27.550013 149.63646L27.675013 148.54271Q28.628138 148.79271 29.159388 149.49583Q29.690638 150.19896 29.690638 151.27708Q29.690638 152.63646 28.846888 153.44896Q28.003138 154.24583 26.487513 154.24583Q24.925013 154.24583 24.065638 153.43333Q23.190638 152.62083 23.190638 151.33958Q23.190638 150.08958 24.034388 149.30833Q24.878138 148.51146 26.425013 148.51146Q26.518763 148.51146 26.706263 148.51146L26.706263 153.15208Q27.737513 153.08958 28.284388 152.57396Q28.815638 152.05833 28.815638 151.27708Q28.815638 150.69896 28.518763 150.29271Q28.206263 149.87083 27.550013 149.63646ZM25.846888 153.08958L25.846888 149.62083Q25.050013 149.68333 24.659388 150.01146Q24.050013 150.52708 24.050013 151.32396Q24.050013 152.05833 24.534388 152.55833Q25.018763 153.04271 25.846888 153.08958ZM29.550013 146.90208L23.331263 146.90208L23.331263 145.94896L24.268763 145.94896Q23.612513 145.58958 23.409388 145.29271Q23.190638 144.98021 23.190638 144.60521Q23.190638 144.07396 23.518763 143.52708L24.503138 143.88646Q24.268763 144.27708 24.268763 144.65208Q24.268763 145.01146 24.487513 145.29271Q24.690638 145.55833 25.065638 145.66771Q25.628138 145.85521 26.284388 145.85521L29.550013 145.85521L29.550013 146.90208ZM28.784388 138.82396Q29.284388 139.41771 29.487513 139.96458Q29.690638 140.49583 29.690638 141.12083Q29.690638 142.15208 29.190638 142.69896Q28.690638 143.24583 27.909388 143.24583Q27.456263 143.24583 27.081263 143.04271Q26.690638 142.83958 26.471888 142.49583Q26.237513 142.15208 26.128138 141.73021Q26.034388 141.43333 25.956263 140.79271Q25.815638 139.52708 25.596888 138.91771Q25.378138 138.91771 25.331263 138.91771Q24.675013 138.91771 24.409388 139.21458Q24.065638 139.62083 24.065638 140.41771Q24.065638 141.15208 24.331263 141.51146Q24.581263 141.87083 25.237513 142.04271L25.096888 143.07396Q24.440638 142.93333 24.034388 142.60521Q23.628138 142.27708 23.409388 141.66771Q23.190638 141.05833 23.190638 140.26146Q23.190638 139.46458 23.378138 138.96458Q23.565638 138.46458 23.846888 138.23021Q24.128138 137.99583 24.565638 137.90208Q24.831263 137.85521 25.534388 137.85521L26.940638 137.85521Q28.409388 137.85521 28.800013 137.79271Q29.190638 137.71458 29.550013 137.51146L29.550013 138.62083Q29.221888 138.77708 28.784388 138.82396ZM26.425013 138.91771Q26.659388 139.49583 26.831263 140.63646Q26.925013 141.29271 27.050013 141.55833Q27.159388 141.82396 27.378138 141.98021Q27.596888 142.12083 27.878138 142.12083Q28.300013 142.12083 28.581263 141.80833Q28.862513 141.48021 28.862513 140.87083Q28.862513 140.26146 28.596888 139.79271Q28.331263 139.30833 27.862513 139.08958Q27.503138 138.91771 26.815638 138.91771L26.425013 138.91771ZM30.065638 136.08958L30.221888 135.05833Q30.690638 134.99583 30.909388 134.69896Q31.206263 134.30833 31.206263 133.63646Q31.206263 132.90208 30.909388 132.51146Q30.612513 132.10521 30.096888 131.96458Q29.768763 131.87083 28.737513 131.88646Q29.550013 132.57396 29.550013 133.60521Q29.550013 134.88646 28.628138 135.58958Q27.690638 136.29271 26.409388 136.29271Q25.518763 136.29271 24.768763 135.98021Q24.003138 135.65208 23.596888 135.04271Q23.190638 134.43333 23.190638 133.60521Q23.190638 132.49583 24.081263 131.77708L23.331263 131.77708L23.331263 130.80833L28.706263 130.80833Q30.159388 130.80833 30.768763 131.10521Q31.378138 131.40208 31.721888 132.04271Q32.08126 132.68333 32.08126 133.62083Q32.08126 134.73021 31.581263 135.41771Q31.081263 136.10521 30.065638 136.08958ZM26.331263 135.21458Q27.550013 135.21458 28.112513 134.73021Q28.675013 134.24583 28.675013 133.51146Q28.675013 132.77708 28.112513 132.29271Q27.550013 131.79271 26.362513 131.79271Q25.221888 131.79271 24.643763 132.30833Q24.065638 132.80833 24.065638 133.52708Q24.065638 134.23021 24.643763 134.73021Q25.206263 135.21458 26.331263 135.21458ZM27.550013 124.63646L27.675013 123.54271Q28.628138 123.79271 29.159388 124.495834Q29.690638 125.19896 29.690638 126.277084Q29.690638 127.63646 28.846888 128.44896Q28.003138 129.24583 26.487513 129.24583Q24.925013 129.24583 24.065638 128.43333Q23.190638 127.620834 23.190638 126.339584Q23.190638 125.089584 24.034388 124.308334Q24.878138 123.51146 26.425013 123.51146Q26.518763 123.51146 26.706263 123.51146L26.706263 128.15208Q27.737513 128.08958 28.284388 127.57396Q28.815638 127.058334 28.815638 126.277084Q28.815638 125.69896 28.518763 125.29271Q28.206263 124.870834 27.550013 124.63646ZM25.846888 128.08958L25.846888 124.620834Q25.050013 124.683334 24.659388 125.01146Q24.050013 125.527084 24.050013 126.32396Q24.050013 127.058334 24.534388 127.558334Q25.018763 128.04271 25.846888 128.08958Z" fill-rule="nonzero"/><path fill="#000000" d="M65.05 300.21564Q65.05 298.6844 65.3625 297.7625Q65.675 296.825 66.28438 296.325Q66.90938 295.825 67.84688 295.825Q68.53438 295.825 69.05 296.10626Q69.58125 296.3875 69.925 296.91876Q70.26875 297.4344 70.45625 298.1844Q70.64375 298.9344 70.64375 300.21564Q70.64375 301.73126 70.33125 302.65314Q70.03438 303.575 69.40938 304.09064Q68.8 304.59064 67.84688 304.59064Q66.6125 304.59064 65.89375 303.7Q65.05 302.6375 65.05 300.21564ZM66.12813 300.21564Q66.12813 302.325 66.62813 303.02814Q67.12813 303.73126 67.84688 303.73126Q68.58125 303.73126 69.06563 303.02814Q69.56563 302.325 69.56563 300.21564Q69.56563 298.09064 69.06563 297.40314Q68.58125 296.7 67.83125 296.7Q67.1125 296.7 66.675 297.3094Q66.12813 298.09064 66.12813 300.21564Z" fill-rule="nonzero"/><path fill="#000000" d="M58.05 242.56667L59.159374 242.47292Q59.284374 243.28542 59.721874 243.69167Q60.175 244.09792 60.815624 244.09792Q61.565624 244.09792 62.096874 243.51979Q62.628124 242.94167 62.628124 242.00417Q62.628124 241.09792 62.1125 240.58229Q61.6125 240.05104 60.784374 240.05104Q60.284374 240.05104 59.8625 240.28542Q59.45625 240.51979 59.221874 240.87917L58.2375 240.75417L59.065624 236.34792L63.346874 236.34792L63.346874 237.34792L59.909374 237.34792L59.45625 239.66042Q60.221874 239.11354 61.065624 239.11354Q62.190624 239.11354 62.95625 239.89479Q63.7375 240.67604 63.7375 241.91042Q63.7375 243.06667 63.065624 243.92604Q62.2375 244.95729 60.815624 244.95729Q59.64375 244.95729 58.89375 244.30104Q58.159374 243.64479 58.05 242.56667ZM65.05 240.58229Q65.05 239.05104 65.3625 238.12917Q65.675 237.19167 66.28438 236.69167Q66.90938 236.19167 67.84688 236.19167Q68.53438 236.19167 69.05 236.47292Q69.58125 236.75417 69.925 237.28542Q70.26875 237.80104 70.45625 238.55104Q70.64375 239.30104 70.64375 240.58229Q70.64375 242.09792 70.33125 243.01979Q70.03438 243.94167 69.40938 244.45729Q68.8 244.95729 67.84688 244.95729Q66.6125 244.95729 65.89375 244.06667Q65.05 243.00417 65.05 240.58229ZM66.12813 240.58229Q66.12813 242.69167 66.62813 243.39479Q67.12813 244.09792 67.84688 244.09792Q68.58125 244.09792 69.06563 243.39479Q69.56563 242.69167 69.56563 240.58229Q69.56563 238.45729 69.06563 237.76979Q68.58125 237.06667 67.83125 237.06667Q67.1125 237.06667 66.675 237.67604Q66.12813 238.45729 66.12813 240.58229Z" fill-rule="nonzero"/><path fill="#000000" d="M55.01875 185.18333L53.971874 185.18333L53.971874 178.46458Q53.58125 178.82396 52.95625 179.19896Q52.346874 179.55833 51.8625 179.73021L51.8625 178.71458Q52.7375 178.29271 53.39375 177.71458Q54.065624 177.12083 54.346874 176.55833L55.01875 176.55833L55.01875 185.18333ZM58.05 180.94896Q58.05 179.41771 58.3625 178.49583Q58.675 177.55833 59.284374 177.05833Q59.909374 176.55833 60.846874 176.55833Q61.534374 176.55833 62.05 176.83958Q62.58125 177.12083 62.925 177.65208Q63.26875 178.16771 63.45625 178.91771Q63.64375 179.66771 63.64375 180.94896Q63.64375 182.46458 63.33125 183.38646Q63.034374 184.30833 62.409374 184.82396Q61.8 185.32396 60.846874 185.32396Q59.6125 185.32396 58.89375 184.43333Q58.05 183.37083 58.05 180.94896ZM59.128124 180.94896Q59.128124 183.05833 59.628124 183.76146Q60.128124 184.46458 60.846874 184.46458Q61.58125 184.46458 62.065624 183.76146Q62.565624 183.05833 62.565624 180.94896Q62.565624 178.82396 62.065624 178.13646Q61.58125 177.43333 60.83125 177.43333Q60.1125 177.43333 59.675 178.04271Q59.128124 178.82396 59.128124 180.94896ZM65.05 180.94896Q65.05 179.41771 65.3625 178.49583Q65.675 177.55833 66.28438 177.05833Q66.90938 176.55833 67.84688 176.55833Q68.53438 176.55833 69.05 176.83958Q69.58125 177.12083 69.925 177.65208Q70.26875 178.16771 70.45625 178.91771Q70.64375 179.66771 70.64375 180.94896Q70.64375 182.46458 70.33125 183.38646Q70.03438 184.30833 69.40938 184.82396Q68.8 185.32396 67.84688 185.32396Q66.6125 185.32396 65.89375 184.43333Q65.05 183.37083 65.05 180.94896ZM66.12813 180.94896Q66.12813 183.05833 66.62813 183.76146Q67.12813 184.46458 67.84688 184.46458Q68.58125 184.46458 69.06563 183.76146Q69.56563 183.05833 69.56563 180.94896Q69.56563 178.82396 69.06563 178.13646Q68.58125 177.43333 67.83125 177.43333Q67.1125 177.43333 66.675 178.04271Q66.12813 178.82396 66.12813 180.94896Z" fill-rule="nonzero"/><path fill="#000000" d="M55.01875 125.55L53.971874 125.55L53.971874 118.83125Q53.58125 119.19063 52.95625 119.56563Q52.346874 119.925 51.8625 120.09688L51.8625 119.08125Q52.7375 118.65938 53.39375 118.08125Q54.065624 117.4875 54.346874 116.925L55.01875 116.925L55.01875 125.55ZM58.05 123.3L59.159374 123.20625Q59.284374 124.01875 59.721874 124.425Q60.175 124.83125 60.815624 124.83125Q61.565624 124.83125 62.096874 124.25313Q62.628124 123.675 62.628124 122.7375Q62.628124 121.83125 62.1125 121.31563Q61.6125 120.78438 60.784374 120.78438Q60.284374 120.78438 59.8625 121.01875Q59.45625 121.25313 59.221874 121.6125L58.2375 121.4875L59.065624 117.08125L63.346874 117.08125L63.346874 118.08125L59.909374 118.08125L59.45625 120.39375Q60.221874 119.84688 61.065624 119.84688Q62.190624 119.84688 62.95625 120.62813Q63.7375 121.40938 63.7375 122.64375Q63.7375 123.8 63.065624 124.65938Q62.2375 125.69063 60.815624 125.69063Q59.64375 125.69063 58.89375 125.03438Q58.159374 124.37813 58.05 123.3ZM65.05 121.31563Q65.05 119.78438 65.3625 118.8625Q65.675 117.925 66.28438 117.425Q66.90938 116.925 67.84688 116.925Q68.53438 116.925 69.05 117.20625Q69.58125 117.4875 69.925 118.01875Q70.26875 118.53438 70.45625 119.28438Q70.64375 120.03438 70.64375 121.31563Q70.64375 122.83125 70.33125 123.75313Q70.03438 124.675 69.40938 125.19063Q68.8 125.69063 67.84688 125.69063Q66.6125 125.69063 65.89375 124.8Q65.05 123.7375 65.05 121.31563ZM66.12813 121.31563Q66.12813 123.425 66.62813 124.12813Q67.12813 124.83125 67.84688 124.83125Q68.58125 124.83125 69.06563 124.12813Q69.56563 123.425 69.56563 121.31563Q69.56563 119.19063 69.06563 118.50313Q68.58125 117.8 67.83125 117.8Q67.1125 117.8 66.675 118.40938Q66.12813 119.19063 66.12813 121.31563Z" fill-rule="nonzero"/><path fill="#000000" d="M56.596874 64.90104L56.596874 65.916664L50.909374 65.916664Q50.909374 65.541664 51.034374 65.18229Q51.253124 64.604164 51.721874 64.041664Q52.20625 63.479164 53.1125 62.74479Q54.51875 61.58854 55.003124 60.916664Q55.503124 60.24479 55.503124 59.65104Q55.503124 59.02604 55.05 58.604164Q54.596874 58.166664 53.878124 58.166664Q53.1125 58.166664 52.659374 58.61979Q52.20625 59.072914 52.190624 59.885414L51.1125 59.77604Q51.221874 58.55729 51.940624 57.93229Q52.675 57.291664 53.909374 57.291664Q55.14375 57.291664 55.8625 57.979164Q56.58125 58.666664 56.58125 59.68229Q56.58125 60.197914 56.3625 60.697914Q56.159374 61.18229 55.659374 61.74479Q55.175 62.291664 54.05 63.24479Q53.096874 64.041664 52.815624 64.33854Q52.55 64.61979 52.378124 64.90104L56.596874 64.90104ZM58.05 61.68229Q58.05 60.15104 58.3625 59.229164Q58.675 58.291664 59.284374 57.791664Q59.909374 57.291664 60.846874 57.291664Q61.534374 57.291664 62.05 57.572914Q62.58125 57.854164 62.925 58.385414Q63.26875 58.90104 63.45625 59.65104Q63.64375 60.40104 63.64375 61.68229Q63.64375 63.197914 63.33125 64.11979Q63.034374 65.041664 62.409374 65.55729Q61.8 66.05729 60.846874 66.05729Q59.6125 66.05729 58.89375 65.166664Q58.05 64.104164 58.05 61.68229ZM59.128124 61.68229Q59.128124 63.791664 59.628124 64.49479Q60.128124 65.197914 60.846874 65.197914Q61.58125 65.197914 62.065624 64.49479Q62.565624 63.791664 62.565624 61.68229Q62.565624 59.55729 62.065624 58.86979Q61.58125 58.166664 60.83125 58.166664Q60.1125 58.166664 59.675 58.77604Q59.128124 59.55729 59.128124 61.68229ZM65.05 61.68229Q65.05 60.15104 65.3625 59.229164Q65.675 58.291664 66.28438 57.791664Q66.90938 57.291664 67.84688 57.291664Q68.53438 57.291664 69.05 57.572914Q69.58125 57.854164 69.925 58.385414Q70.26875 58.90104 70.45625 59.65104Q70.64375 60.40104 70.64375 61.68229Q70.64375 63.197914 70.33125 64.11979Q70.03438 65.041664 69.40938 65.55729Q68.8 66.05729 67.84688 66.05729Q66.6125 66.05729 65.89375 65.166664Q65.05 64.104164 65.05 61.68229ZM66.12813 61.68229Q66.12813 63.791664 66.62813 64.49479Q67.12813 65.197914 67.84688 65.197914Q68.58125 65.197914 69.06563 64.49479Q69.56563 63.791664 69.56563 61.68229Q69.56563 59.55729 69.06563 58.86979Q68.58125 58.166664 67.83125 58.166664Q67.1125 58.166664 66.675 58.77604Q66.12813 59.55729 66.12813 61.68229Z" fill-rule="nonzero"/><path fill="#000000" d="M94.063385 316.4344L94.063385 317.45L88.375885 317.45Q88.375885 317.075 88.500885 316.71564Q88.719635 316.1375 89.188385 315.575Q89.67276 315.0125 90.57901 314.27814Q91.98526 313.1219 92.469635 312.45Q92.969635 311.77814 92.969635 311.1844Q92.969635 310.5594 92.51651 310.1375Q92.063385 309.7 91.344635 309.7Q90.57901 309.7 90.125885 310.15314Q89.67276 310.60626 89.657135 311.41876L88.57901 311.3094Q88.688385 310.09064 89.407135 309.46564Q90.14151 308.825 91.375885 308.825Q92.61026 308.825 93.32901 309.5125Q94.04776 310.2 94.04776 311.21564Q94.04776 311.73126 93.82901 312.23126Q93.625885 312.71564 93.125885 313.27814Q92.64151 313.825 91.51651 314.77814Q90.563385 315.575 90.282135 315.8719Q90.01651 316.15314 89.844635 316.4344L94.063385 316.4344Z" fill-rule="nonzero"/><path fill="#000000" d="M109.20764 315.1844L110.27014 315.04376Q110.44202 315.9344 110.87952 316.34064Q111.31702 316.73126 111.94202 316.73126Q112.69202 316.73126 113.20764 316.21564Q113.72327 315.7 113.72327 314.9344Q113.72327 314.21564 113.23889 313.7469Q112.77014 313.2625 112.03577 313.2625Q111.73889 313.2625 111.28577 313.3875L111.41077 312.45Q111.52014 312.46564 111.58264 312.46564Q112.25452 312.46564 112.78577 312.1219Q113.33264 311.7625 113.33264 311.02814Q113.33264 310.45 112.94202 310.075Q112.55139 309.6844 111.92639 309.6844Q111.31702 309.6844 110.89514 310.075Q110.48889 310.46564 110.37952 311.23126L109.31702 311.04376Q109.50452 309.9969 110.19202 309.41876Q110.87952 308.825 111.89514 308.825Q112.59827 308.825 113.19202 309.1375Q113.78577 309.4344 114.09827 309.95Q114.41077 310.46564 114.41077 311.0594Q114.41077 311.60626 114.11389 312.075Q113.81702 312.52814 113.23889 312.79376Q113.98889 312.96564 114.41077 313.52814Q114.83264 314.075 114.83264 314.91876Q114.83264 316.04376 114.00452 316.825Q113.19202 317.60626 111.94202 317.60626Q110.81702 317.60626 110.06702 316.9344Q109.31702 316.2469 109.20764 315.1844Z" fill-rule="nonzero"/><path fill="#000000" d="M133.27377 317.45L133.27377 315.3875L129.55502 315.3875L129.55502 314.41876L133.4769 308.85626L134.33627 308.85626L134.33627 314.41876L135.49252 314.41876L135.49252 315.3875L134.33627 315.3875L134.33627 317.45L133.27377 317.45ZM133.27377 314.41876L133.27377 310.5594L130.58627 314.41876L133.27377 314.41876Z" fill-rule="nonzero"/><path fill="#000000" d="M150.58989 315.2L151.69926 315.10626Q151.82426 315.91876 152.26176 316.325Q152.71489 316.73126 153.35551 316.73126Q154.10551 316.73126 154.63676 316.15314Q155.16801 315.575 155.16801 314.6375Q155.16801 313.73126 154.65239 313.21564Q154.15239 312.6844 153.32426 312.6844Q152.82426 312.6844 152.40239 312.91876Q151.99614 313.15314 151.76176 313.5125L150.77739 313.3875L151.60551 308.98126L155.88676 308.98126L155.88676 309.98126L152.44926 309.98126L151.99614 312.29376Q152.76176 311.7469 153.60551 311.7469Q154.73051 311.7469 155.49614 312.52814Q156.27739 313.3094 156.27739 314.54376Q156.27739 315.7 155.60551 316.5594Q154.77739 317.59064 153.35551 317.59064Q152.18364 317.59064 151.43364 316.9344Q150.69926 316.27814 150.58989 315.2Z" fill-rule="nonzero"/><path fill="#000000" d="M176.74977 310.96564L175.7029 311.04376Q175.56227 310.41876 175.31227 310.1375Q174.87477 309.6844 174.24977 309.6844Q173.74977 309.6844 173.35915 309.96564Q172.87477 310.34064 172.5779 311.04376Q172.29665 311.73126 172.28102 313.0125Q172.65602 312.4344 173.2029 312.15314Q173.7654 311.8719 174.37477 311.8719Q175.42165 311.8719 176.15602 312.65314Q176.90602 313.4344 176.90602 314.65314Q176.90602 315.46564 176.54665 316.16876Q176.2029 316.85626 175.59352 317.23126Q174.98415 317.59064 174.21852 317.59064Q172.8904 317.59064 172.06227 316.6219Q171.23415 315.65314 171.23415 313.4344Q171.23415 310.9344 172.15602 309.8094Q172.9529 308.825 174.31227 308.825Q175.3279 308.825 175.96852 309.40314Q176.62477 309.96564 176.74977 310.96564ZM172.4529 314.66876Q172.4529 315.21564 172.67165 315.71564Q172.90602 316.2 173.31227 316.46564Q173.73415 316.73126 174.2029 316.73126Q174.85915 316.73126 175.34352 316.2Q175.8279 315.65314 175.8279 314.73126Q175.8279 313.84064 175.34352 313.325Q174.87477 312.8094 174.15602 312.8094Q173.43727 312.8094 172.93727 313.325Q172.4529 313.84064 172.4529 314.66876Z" fill-rule="nonzero"/><path fill="#000000" d="M192.03465 309.98126L192.03465 308.96564L197.59715 308.96564L197.59715 309.79376Q196.78465 310.66876 195.97215 312.1219Q195.17528 313.5594 194.73778 315.09064Q194.40965 316.16876 194.33153 317.45L193.23778 317.45Q193.2534 316.4344 193.6284 314.9969Q194.01903 313.5594 194.72215 312.23126Q195.4409 310.90314 196.2534 309.98126L192.03465 309.98126Z" fill-rule="nonzero"/><path fill="#000000" d="M214.28827 312.79376Q213.63202 312.54376 213.3039 312.10626Q212.9914 311.65314 212.9914 311.04376Q212.9914 310.10626 213.66327 309.46564Q214.35077 308.825 215.46014 308.825Q216.58514 308.825 217.27264 309.48126Q217.96014 310.1375 217.96014 311.075Q217.96014 311.66876 217.64764 312.10626Q217.33514 312.54376 216.69452 312.79376Q217.4914 313.04376 217.89764 313.6219Q218.3039 314.2 218.3039 314.9969Q218.3039 316.09064 217.52264 316.84064Q216.75702 317.59064 215.47577 317.59064Q214.21014 317.59064 213.4289 316.84064Q212.64764 316.09064 212.64764 314.96564Q212.64764 314.1219 213.06952 313.5594Q213.50702 312.9969 214.28827 312.79376ZM214.06952 310.9969Q214.06952 311.60626 214.46014 311.9969Q214.8664 312.3875 215.4914 312.3875Q216.10077 312.3875 216.4914 312.0125Q216.88202 311.6219 216.88202 311.0594Q216.88202 310.48126 216.47577 310.09064Q216.06952 309.6844 215.47577 309.6844Q214.8664 309.6844 214.46014 310.075Q214.06952 310.46564 214.06952 310.9969ZM213.7414 314.96564Q213.7414 315.41876 213.94452 315.84064Q214.16327 316.2625 214.58514 316.4969Q215.00702 316.73126 215.4914 316.73126Q216.2414 316.73126 216.72577 316.2469Q217.22577 315.7625 217.22577 315.0125Q217.22577 314.2469 216.72577 313.7469Q216.22577 313.2469 215.46014 313.2469Q214.71014 313.2469 214.22577 313.7469Q213.7414 314.23126 213.7414 314.96564Z" fill-rule="nonzero"/><path fill="#000000" d="M233.51065 315.46564L234.52628 315.3719Q234.65128 316.09064 235.01065 316.41876Q235.38565 316.73126 235.94815 316.73126Q236.43253 316.73126 236.7919 316.5125Q237.1669 316.27814 237.40128 315.91876Q237.63565 315.54376 237.7919 314.91876Q237.94815 314.27814 237.94815 313.6219Q237.94815 313.54376 237.94815 313.40314Q237.63565 313.90314 237.08878 314.23126Q236.5419 314.54376 235.90128 314.54376Q234.82315 314.54376 234.08878 313.77814Q233.3544 312.9969 233.3544 311.73126Q233.3544 310.41876 234.12003 309.6219Q234.90128 308.825 236.05753 308.825Q236.88565 308.825 237.57315 309.27814Q238.27628 309.73126 238.63565 310.575Q238.99503 311.40314 238.99503 312.98126Q238.99503 314.6219 238.63565 315.60626Q238.2919 316.575 237.57315 317.09064Q236.87003 317.59064 235.93253 317.59064Q234.9169 317.59064 234.27628 317.04376Q233.63565 316.48126 233.51065 315.46564ZM237.82315 311.66876Q237.82315 310.7625 237.33878 310.23126Q236.87003 309.7 236.18253 309.7Q235.4794 309.7 234.94815 310.27814Q234.43253 310.84064 234.43253 311.7625Q234.43253 312.575 234.93253 313.09064Q235.43253 313.60626 236.15128 313.60626Q236.88565 313.60626 237.3544 313.09064Q237.82315 312.575 237.82315 311.66876Z" fill-rule="nonzero"/><path fill="#000000" d="M254.51428 317.45L253.4674 317.45L253.4674 310.73126Q253.07678 311.09064 252.45178 311.46564Q251.8424 311.825 251.35803 311.9969L251.35803 310.98126Q252.23303 310.5594 252.88928 309.98126Q253.56116 309.3875 253.8424 308.825L254.51428 308.825L254.51428 317.45ZM257.54553 313.21564Q257.54553 311.6844 257.85803 310.7625Q258.17053 309.825 258.7799 309.325Q259.4049 308.825 260.3424 308.825Q261.0299 308.825 261.54553 309.10626Q262.07678 309.3875 262.42053 309.91876Q262.76428 310.4344 262.95178 311.1844Q263.13928 311.9344 263.13928 313.21564Q263.13928 314.73126 262.82678 315.65314Q262.5299 316.575 261.9049 317.09064Q261.29553 317.59064 260.3424 317.59064Q259.10803 317.59064 258.38928 316.7Q257.54553 315.6375 257.54553 313.21564ZM258.62366 313.21564Q258.62366 315.325 259.12366 316.02814Q259.62366 316.73126 260.3424 316.73126Q261.07678 316.73126 261.56116 316.02814Q262.06116 315.325 262.06116 313.21564Q262.06116 311.09064 261.56116 310.40314Q261.07678 309.7 260.32678 309.7Q259.60803 309.7 259.17053 310.3094Q258.62366 311.09064 258.62366 313.21564Z" fill-rule="nonzero"/><path fill="#000000" d="M275.2054 317.45L274.15854 317.45L274.15854 310.73126Q273.7679 311.09064 273.1429 311.46564Q272.53354 311.825 272.04916 311.9969L272.04916 310.98126Q272.92416 310.5594 273.5804 309.98126Q274.2523 309.3875 274.53354 308.825L275.2054 308.825L275.2054 317.45ZM282.2054 317.45L281.15854 317.45L281.15854 310.73126Q280.7679 311.09064 280.1429 311.46564Q279.53354 311.825 279.04916 311.9969L279.04916 310.98126Q279.92416 310.5594 280.5804 309.98126Q281.2523 309.3875 281.53354 308.825L282.2054 308.825L282.2054 317.45Z" fill-rule="nonzero"/><path fill="#000000" d="M295.89655 317.45L294.84967 317.45L294.84967 310.73126Q294.45905 311.09064 293.83405 311.46564Q293.22467 311.825 292.7403 311.9969L292.7403 310.98126Q293.6153 310.5594 294.27155 309.98126Q294.94342 309.3875 295.22467 308.825L295.89655 308.825L295.89655 317.45ZM304.47467 316.4344L304.47467 317.45L298.78717 317.45Q298.78717 317.075 298.91217 316.71564Q299.13092 316.1375 299.59967 315.575Q300.08405 315.0125 300.9903 314.27814Q302.39655 313.1219 302.88092 312.45Q303.38092 311.77814 303.38092 311.1844Q303.38092 310.5594 302.9278 310.1375Q302.47467 309.7 301.75592 309.7Q300.9903 309.7 300.53717 310.15314Q300.08405 310.60626 300.06842 311.41876L298.9903 311.3094Q299.09967 310.09064 299.81842 309.46564Q300.5528 308.825 301.78717 308.825Q303.02155 308.825 303.7403 309.5125Q304.45905 310.2 304.45905 311.21564Q304.45905 311.73126 304.2403 312.23126Q304.03717 312.71564 303.53717 313.27814Q303.0528 313.825 301.9278 314.77814Q300.97467 315.575 300.69342 315.8719Q300.4278 316.15314 300.25592 316.4344L304.47467 316.4344Z" fill-rule="nonzero"/><path fill="#000000" d="M316.58768 317.45L315.5408 317.45L315.5408 310.73126Q315.15018 311.09064 314.52518 311.46564Q313.9158 311.825 313.43143 311.9969L313.43143 310.98126Q314.30643 310.5594 314.96268 309.98126Q315.63455 309.3875 315.9158 308.825L316.58768 308.825L316.58768 317.45ZM319.61893 315.1844L320.68143 315.04376Q320.8533 315.9344 321.2908 316.34064Q321.7283 316.73126 322.3533 316.73126Q323.1033 316.73126 323.61893 316.21564Q324.13455 315.7 324.13455 314.9344Q324.13455 314.21564 323.65018 313.7469Q323.18143 313.2625 322.44705 313.2625Q322.15018 313.2625 321.69705 313.3875L321.82205 312.45Q321.93143 312.46564 321.99393 312.46564Q322.6658 312.46564 323.19705 312.1219Q323.74393 311.7625 323.74393 311.02814Q323.74393 310.45 323.3533 310.075Q322.96268 309.6844 322.33768 309.6844Q321.7283 309.6844 321.30643 310.075Q320.90018 310.46564 320.7908 311.23126L319.7283 311.04376Q319.9158 309.9969 320.6033 309.41876Q321.2908 308.825 322.30643 308.825Q323.00955 308.825 323.6033 309.1375Q324.19705 309.4344 324.50955 309.95Q324.82205 310.46564 324.82205 311.0594Q324.82205 311.60626 324.52518 312.075Q324.2283 312.52814 323.65018 312.79376Q324.40018 312.96564 324.82205 313.52814Q325.24393 314.075 325.24393 314.91876Q325.24393 316.04376 324.4158 316.825Q323.6033 317.60626 322.3533 317.60626Q321.2283 317.60626 320.4783 316.9344Q319.7283 316.2469 319.61893 315.1844Z" fill-rule="nonzero"/><path fill="#000000" d="M337.27878 317.45L336.2319 317.45L336.2319 310.73126Q335.84128 311.09064 335.21628 311.46564Q334.6069 311.825 334.12253 311.9969L334.12253 310.98126Q334.99753 310.5594 335.65378 309.98126Q336.32565 309.3875 336.6069 308.825L337.27878 308.825L337.27878 317.45ZM343.68503 317.45L343.68503 315.3875L339.96628 315.3875L339.96628 314.41876L343.88815 308.85626L344.74753 308.85626L344.74753 314.41876L345.90378 314.41876L345.90378 315.3875L344.74753 315.3875L344.74753 317.45L343.68503 317.45ZM343.68503 314.41876L343.68503 310.5594L340.99753 314.41876L343.68503 314.41876Z" fill-rule="nonzero"/><path fill="#000000" d="M357.9699 317.45L356.92303 317.45L356.92303 310.73126Q356.5324 311.09064 355.9074 311.46564Q355.29803 311.825 354.81366 311.9969L354.81366 310.98126Q355.68866 310.5594 356.3449 309.98126Q357.01678 309.3875 357.29803 308.825L357.9699 308.825L357.9699 317.45ZM361.00116 315.2L362.11053 315.10626Q362.23553 315.91876 362.67303 316.325Q363.12616 316.73126 363.76678 316.73126Q364.51678 316.73126 365.04803 316.15314Q365.57928 315.575 365.57928 314.6375Q365.57928 313.73126 365.06366 313.21564Q364.56366 312.6844 363.73553 312.6844Q363.23553 312.6844 362.81366 312.91876Q362.4074 313.15314 362.17303 313.5125L361.18866 313.3875L362.01678 308.98126L366.29803 308.98126L366.29803 309.98126L362.86053 309.98126L362.4074 312.29376Q363.17303 311.7469 364.01678 311.7469Q365.14178 311.7469 365.9074 312.52814Q366.68866 313.3094 366.68866 314.54376Q366.68866 315.7 366.01678 316.5594Q365.18866 317.59064 363.76678 317.59064Q362.5949 317.59064 361.8449 316.9344Q361.11053 316.27814 361.00116 315.2Z" fill-rule="nonzero"/><path fill="#000000" d="M378.66104 317.45L377.61417 317.45L377.61417 310.73126Q377.22354 311.09064 376.59854 311.46564Q375.98917 311.825 375.5048 311.9969L375.5048 310.98126Q376.3798 310.5594 377.03604 309.98126Q377.70792 309.3875 377.98917 308.825L378.66104 308.825L378.66104 317.45ZM387.16104 310.96564L386.11417 311.04376Q385.97354 310.41876 385.72354 310.1375Q385.28604 309.6844 384.66104 309.6844Q384.16104 309.6844 383.77042 309.96564Q383.28604 310.34064 382.98917 311.04376Q382.70792 311.73126 382.6923 313.0125Q383.0673 312.4344 383.61417 312.15314Q384.17667 311.8719 384.78604 311.8719Q385.83292 311.8719 386.5673 312.65314Q387.3173 313.4344 387.3173 314.65314Q387.3173 315.46564 386.95792 316.16876Q386.61417 316.85626 386.0048 317.23126Q385.39542 317.59064 384.6298 317.59064Q383.30167 317.59064 382.47354 316.6219Q381.64542 315.65314 381.64542 313.4344Q381.64542 310.9344 382.5673 309.8094Q383.36417 308.825 384.72354 308.825Q385.73917 308.825 386.3798 309.40314Q387.03604 309.96564 387.16104 310.96564ZM382.86417 314.66876Q382.86417 315.21564 383.08292 315.71564Q383.3173 316.2 383.72354 316.46564Q384.14542 316.73126 384.61417 316.73126Q385.27042 316.73126 385.7548 316.2Q386.23917 315.65314 386.23917 314.73126Q386.23917 313.84064 385.7548 313.325Q385.28604 312.8094 384.5673 312.8094Q383.84854 312.8094 383.34854 313.325Q382.86417 313.84064 382.86417 314.66876Z" fill-rule="nonzero"/><path fill="#000000" d="M399.35217 317.45L398.3053 317.45L398.3053 310.73126Q397.91467 311.09064 397.28967 311.46564Q396.6803 311.825 396.19592 311.9969L396.19592 310.98126Q397.07092 310.5594 397.72717 309.98126Q398.39905 309.3875 398.6803 308.825L399.35217 308.825L399.35217 317.45ZM402.44592 309.98126L402.44592 308.96564L408.00842 308.96564L408.00842 309.79376Q407.19592 310.66876 406.38342 312.1219Q405.58655 313.5594 405.14905 315.09064Q404.82092 316.16876 404.7428 317.45L403.64905 317.45Q403.66467 316.4344 404.03967 314.9969Q404.4303 313.5594 405.13342 312.23126Q405.85217 310.90314 406.66467 309.98126L402.44592 309.98126Z" fill-rule="nonzero"/><path fill="#000000" d="M420.0433 317.45L418.99643 317.45L418.99643 310.73126Q418.6058 311.09064 417.9808 311.46564Q417.37143 311.825 416.88705 311.9969L416.88705 310.98126Q417.76205 310.5594 418.4183 309.98126Q419.09018 309.3875 419.37143 308.825L420.0433 308.825L420.0433 317.45ZM424.69955 312.79376Q424.0433 312.54376 423.71518 312.10626Q423.40268 311.65314 423.40268 311.04376Q423.40268 310.10626 424.07455 309.46564Q424.76205 308.825 425.87143 308.825Q426.99643 308.825 427.68393 309.48126Q428.37143 310.1375 428.37143 311.075Q428.37143 311.66876 428.05893 312.10626Q427.74643 312.54376 427.1058 312.79376Q427.90268 313.04376 428.30893 313.6219Q428.71518 314.2 428.71518 314.9969Q428.71518 316.09064 427.93393 316.84064Q427.1683 317.59064 425.88705 317.59064Q424.62143 317.59064 423.84018 316.84064Q423.05893 316.09064 423.05893 314.96564Q423.05893 314.1219 423.4808 313.5594Q423.9183 312.9969 424.69955 312.79376ZM424.4808 310.9969Q424.4808 311.60626 424.87143 311.9969Q425.27768 312.3875 425.90268 312.3875Q426.51205 312.3875 426.90268 312.0125Q427.2933 311.6219 427.2933 311.0594Q427.2933 310.48126 426.88705 310.09064Q426.4808 309.6844 425.88705 309.6844Q425.27768 309.6844 424.87143 310.075Q424.4808 310.46564 424.4808 310.9969ZM424.15268 314.96564Q424.15268 315.41876 424.3558 315.84064Q424.57455 316.2625 424.99643 316.4969Q425.4183 316.73126 425.90268 316.73126Q426.65268 316.73126 427.13705 316.2469Q427.63705 315.7625 427.63705 315.0125Q427.63705 314.2469 427.13705 313.7469Q426.63705 313.2469 425.87143 313.2469Q425.12143 313.2469 424.63705 313.7469Q424.15268 314.23126 424.15268 314.96564Z" fill-rule="nonzero"/><path fill="#000000" d="M440.73444 317.45L439.68756 317.45L439.68756 310.73126Q439.29694 311.09064 438.67194 311.46564Q438.06256 311.825 437.5782 311.9969L437.5782 310.98126Q438.4532 310.5594 439.10944 309.98126Q439.7813 309.3875 440.06256 308.825L440.73444 308.825L440.73444 317.45ZM443.92194 315.46564L444.93756 315.3719Q445.06256 316.09064 445.42194 316.41876Q445.79694 316.73126 446.35944 316.73126Q446.8438 316.73126 447.2032 316.5125Q447.5782 316.27814 447.81256 315.91876Q448.04694 315.54376 448.2032 314.91876Q448.35944 314.27814 448.35944 313.6219Q448.35944 313.54376 448.35944 313.40314Q448.04694 313.90314 447.50006 314.23126Q446.9532 314.54376 446.31256 314.54376Q445.23444 314.54376 444.50006 313.77814Q443.7657 312.9969 443.7657 311.73126Q443.7657 310.41876 444.5313 309.6219Q445.31256 308.825 446.4688 308.825Q447.29694 308.825 447.98444 309.27814Q448.68756 309.73126 449.04694 310.575Q449.4063 311.40314 449.4063 312.98126Q449.4063 314.6219 449.04694 315.60626Q448.7032 316.575 447.98444 317.09064Q447.2813 317.59064 446.3438 317.59064Q445.3282 317.59064 444.68756 317.04376Q444.04694 316.48126 443.92194 315.46564ZM448.23444 311.66876Q448.23444 310.7625 447.75006 310.23126Q447.2813 309.7 446.5938 309.7Q445.8907 309.7 445.35944 310.27814Q444.8438 310.84064 444.8438 311.7625Q444.8438 312.575 445.3438 313.09064Q445.8438 313.60626 446.56256 313.60626Q447.29694 313.60626 447.7657 313.09064Q448.23444 312.575 448.23444 311.66876Z" fill-rule="nonzero"/><path fill="#000000" d="M463.0037 316.4344L463.0037 317.45L457.3162 317.45Q457.3162 317.075 457.4412 316.71564Q457.65994 316.1375 458.1287 315.575Q458.61307 315.0125 459.51932 314.27814Q460.92557 313.1219 461.40994 312.45Q461.90994 311.77814 461.90994 311.1844Q461.90994 310.5594 461.45682 310.1375Q461.0037 309.7 460.28494 309.7Q459.51932 309.7 459.0662 310.15314Q458.61307 310.60626 458.59744 311.41876L457.51932 311.3094Q457.6287 310.09064 458.34744 309.46564Q459.08182 308.825 460.3162 308.825Q461.55057 308.825 462.26932 309.5125Q462.98807 310.2 462.98807 311.21564Q462.98807 311.73126 462.76932 312.23126Q462.5662 312.71564 462.0662 313.27814Q461.58182 313.825 460.45682 314.77814Q459.5037 315.575 459.22244 315.8719Q458.95682 316.15314 458.78494 316.4344L463.0037 316.4344ZM464.45682 313.21564Q464.45682 311.6844 464.76932 310.7625Q465.08182 309.825 465.6912 309.325Q466.3162 308.825 467.2537 308.825Q467.9412 308.825 468.45682 309.10626Q468.98807 309.3875 469.33182 309.91876Q469.67557 310.4344 469.86307 311.1844Q470.05057 311.9344 470.05057 313.21564Q470.05057 314.73126 469.73807 315.65314Q469.4412 316.575 468.8162 317.09064Q468.20682 317.59064 467.2537 317.59064Q466.01932 317.59064 465.30057 316.7Q464.45682 315.6375 464.45682 313.21564ZM465.53494 313.21564Q465.53494 315.325 466.03494 316.02814Q466.53494 316.73126 467.2537 316.73126Q467.98807 316.73126 468.47244 316.02814Q468.97244 315.325 468.97244 313.21564Q468.97244 311.09064 468.47244 310.40314Q467.98807 309.7 467.23807 309.7Q466.51932 309.7 466.08182 310.3094Q465.53494 311.09064 465.53494 313.21564Z" fill-rule="nonzero"/><path fill="#4285f4" d="M518.45 56.916668C518.45 56.364384 518.8977 55.916668 519.45 55.916668L529.45 55.916668C530.00226 55.916668 530.45 56.364384 530.45 56.916668L530.45 66.916664C530.45 67.46895 530.00226 67.916664 529.45 67.916664L519.45 67.916664C518.8977 67.916664 518.45 67.46895 518.45 66.916664Z" fill-rule="nonzero"/><path fill="#1a1a1a" d="M539.23126 65.916664L539.23126 59.697914L540.1844 59.697914L540.1844 60.635414Q540.54376 59.979164 540.84064 59.77604Q541.15314 59.55729 541.52814 59.55729Q542.0594 59.55729 542.60626 59.885414L542.2469 60.86979Q541.85626 60.635414 541.48126 60.635414Q541.1219 60.635414 540.84064 60.854164Q540.575 61.05729 540.46564 61.43229Q540.27814 61.99479 540.27814 62.65104L540.27814 65.916664L539.23126 65.916664ZM547.3094 65.15104Q546.71564 65.65104 546.16876 65.854164Q545.6375 66.05729 545.0125 66.05729Q543.98126 66.05729 543.4344 65.55729Q542.8875 65.05729 542.8875 64.27604Q542.8875 63.822914 543.09064 63.447914Q543.29376 63.05729 543.6375 62.83854Q543.98126 62.604164 544.40314 62.49479Q544.7 62.40104 545.34064 62.322914Q546.60626 62.18229 547.21564 61.96354Q547.21564 61.74479 547.21564 61.697914Q547.21564 61.041664 546.91876 60.77604Q546.5125 60.43229 545.71564 60.43229Q544.98126 60.43229 544.6219 60.697914Q544.2625 60.947914 544.09064 61.604164L543.0594 61.46354Q543.2 60.80729 543.52814 60.40104Q543.85626 59.99479 544.46564 59.77604Q545.075 59.55729 545.8719 59.55729Q546.66876 59.55729 547.16876 59.74479Q547.66876 59.93229 547.90314 60.21354Q548.1375 60.49479 548.23126 60.93229Q548.27814 61.197914 548.27814 61.90104L548.27814 63.30729Q548.27814 64.77604 548.34064 65.166664Q548.41876 65.55729 548.6219 65.916664L547.5125 65.916664Q547.35626 65.58854 547.3094 65.15104ZM547.21564 62.791664Q546.6375 63.02604 545.4969 63.197914Q544.84064 63.291664 544.575 63.416664Q544.3094 63.52604 544.15314 63.74479Q544.0125 63.96354 544.0125 64.24479Q544.0125 64.666664 544.325 64.947914Q544.65314 65.229164 545.2625 65.229164Q545.8719 65.229164 546.34064 64.96354Q546.825 64.697914 547.04376 64.229164Q547.21564 63.86979 547.21564 63.18229L547.21564 62.791664ZM550.2469 65.916664L550.2469 59.697914L551.1844 59.697914L551.1844 60.572914Q551.8719 59.55729 553.16876 59.55729Q553.73126 59.55729 554.2 59.760414Q554.6844 59.96354 554.91876 60.291664Q555.15314 60.61979 555.2469 61.05729Q555.29376 61.354164 555.29376 62.08854L555.29376 65.916664L554.2469 65.916664L554.2469 62.135414Q554.2469 61.479164 554.1219 61.166664Q553.9969 60.854164 553.6844 60.666664Q553.3719 60.46354 552.95 60.46354Q552.27814 60.46354 551.77814 60.90104Q551.29376 61.322914 551.29376 62.510414L551.29376 65.916664L550.2469 65.916664ZM561.27814 65.916664L561.27814 65.135414Q560.6844 66.05729 559.54376 66.05729Q558.79376 66.05729 558.16876 65.65104Q557.54376 65.229164 557.2 64.49479Q556.85626 63.760414 556.85626 62.80729Q556.85626 61.885414 557.16876 61.11979Q557.48126 60.354164 558.10626 59.96354Q558.73126 59.55729 559.4969 59.55729Q560.0594 59.55729 560.4969 59.791664Q560.9344 60.02604 561.21564 60.40104L561.21564 57.322914L562.2625 57.322914L562.2625 65.916664L561.27814 65.916664ZM557.95 62.80729Q557.95 64.010414 558.45 64.604164Q558.95 65.18229 559.6375 65.18229Q560.325 65.18229 560.8094 64.61979Q561.29376 64.05729 561.29376 62.90104Q561.29376 61.61979 560.79376 61.02604Q560.3094 60.43229 559.59064 60.43229Q558.8875 60.43229 558.41876 61.010414Q557.95 61.572914 557.95 62.80729ZM563.85626 62.80729Q563.85626 61.072914 564.8094 60.24479Q565.60626 59.55729 566.7625 59.55729Q568.04376 59.55729 568.85626 60.40104Q569.6844 61.229164 569.6844 62.71354Q569.6844 63.916664 569.325 64.604164Q568.96564 65.291664 568.2625 65.68229Q567.575 66.05729 566.7625 66.05729Q565.46564 66.05729 564.65314 65.229164Q563.85626 64.385414 563.85626 62.80729ZM564.9344 62.80729Q564.9344 63.99479 565.45 64.58854Q565.98126 65.18229 566.7625 65.18229Q567.5594 65.18229 568.075 64.58854Q568.59064 63.99479 568.59064 62.77604Q568.59064 61.61979 568.0594 61.02604Q567.54376 60.43229 566.7625 60.43229Q565.98126 60.43229 565.45 61.02604Q564.9344 61.604164 564.9344 62.80729ZM571.2469 65.916664L571.2469 59.697914L572.1844 59.697914L572.1844 60.572914Q572.48126 60.104164 572.96564 59.83854Q573.45 59.55729 574.075 59.55729Q574.7625 59.55729 575.2 59.83854Q575.65314 60.11979 575.825 60.635414Q576.575 59.55729 577.7469 59.55729Q578.6844 59.55729 579.16876 60.072914Q579.66876 60.572914 579.66876 61.65104L579.66876 65.916664L578.6219 65.916664L578.6219 61.99479Q578.6219 61.36979 578.5125 61.08854Q578.41876 60.80729 578.15314 60.635414Q577.8875 60.46354 577.5125 60.46354Q576.85626 60.46354 576.41876 60.90104Q575.9969 61.33854 575.9969 62.30729L575.9969 65.916664L574.9344 65.916664L574.9344 61.86979Q574.9344 61.166664 574.66876 60.822914Q574.41876 60.46354 573.84064 60.46354Q573.3875 60.46354 573.0125 60.697914Q572.6375 60.93229 572.46564 61.385414Q572.29376 61.83854 572.29376 62.68229L572.29376 65.916664L571.2469 65.916664Z" fill-rule="nonzero"/><path fill="#ea4335" d="M518.45 80.916664C518.45 80.36438 518.8977 79.916664 519.45 79.916664L529.45 79.916664C530.00226 79.916664 530.45 80.36438 530.45 80.916664L530.45 90.916664C530.45 91.46895 530.00226 91.916664 529.45 91.916664L519.45 91.916664C518.8977 91.916664 518.45 91.46895 518.45 90.916664Z" fill-rule="nonzero"/><path fill="#1a1a1a" d="M539.2469 89.916664L539.2469 83.697914L540.1844 83.697914L540.1844 84.572914Q540.48126 84.104164 540.96564 83.83854Q541.45 83.55729 542.075 83.55729Q542.7625 83.55729 543.2 83.83854Q543.65314 84.11979 543.825 84.635414Q544.575 83.55729 545.7469 83.55729Q546.6844 83.55729 547.16876 84.072914Q547.66876 84.572914 547.66876 85.65104L547.66876 89.916664L546.6219 89.916664L546.6219 85.99479Q546.6219 85.36979 546.5125 85.08854Q546.41876 84.80729 546.15314 84.635414Q545.8875 84.46354 545.5125 84.46354Q544.85626 84.46354 544.41876 84.90104Q543.9969 85.33854 543.9969 86.30729L543.9969 89.916664L542.9344 89.916664L542.9344 85.86979Q542.9344 85.166664 542.66876 84.822914Q542.41876 84.46354 541.84064 84.46354Q541.3875 84.46354 541.0125 84.697914Q540.6375 84.93229 540.46564 85.385414Q540.29376 85.83854 540.29376 86.68229L540.29376 89.916664L539.2469 89.916664ZM549.85626 86.80729Q549.85626 85.072914 550.8094 84.24479Q551.60626 83.55729 552.7625 83.55729Q554.04376 83.55729 554.85626 84.40104Q555.6844 85.229164 555.6844 86.71354Q555.6844 87.916664 555.325 88.604164Q554.96564 89.291664 554.2625 89.68229Q553.575 90.05729 552.7625 90.05729Q551.46564 90.05729 550.65314 89.229164Q549.85626 88.385414 549.85626 86.80729ZM550.9344 86.80729Q550.9344 87.99479 551.45 88.58854Q551.98126 89.18229 552.7625 89.18229Q553.5594 89.18229 554.075 88.58854Q554.59064 87.99479 554.59064 86.77604Q554.59064 85.61979 554.0594 85.02604Q553.54376 84.43229 552.7625 84.43229Q551.98126 84.43229 551.45 85.02604Q550.9344 85.604164 550.9344 86.80729ZM561.27814 89.916664L561.27814 89.135414Q560.6844 90.05729 559.54376 90.05729Q558.79376 90.05729 558.16876 89.65104Q557.54376 89.229164 557.2 88.49479Q556.85626 87.760414 556.85626 86.80729Q556.85626 85.885414 557.16876 85.11979Q557.48126 84.354164 558.10626 83.96354Q558.73126 83.55729 559.4969 83.55729Q560.0594 83.55729 560.4969 83.791664Q560.9344 84.02604 561.21564 84.40104L561.21564 81.322914L562.2625 81.322914L562.2625 89.916664L561.27814 89.916664ZM557.95 86.80729Q557.95 88.010414 558.45 88.604164Q558.95 89.18229 559.6375 89.18229Q560.325 89.18229 560.8094 88.61979Q561.29376 88.05729 561.29376 86.90104Q561.29376 85.61979 560.79376 85.02604Q560.3094 84.43229 559.59064 84.43229Q558.8875 84.43229 558.41876 85.010414Q557.95 85.572914 557.95 86.80729Z" fill-rule="nonzero"/><path fill="#757575" d="M20.096874 37.55L20.096874 23.2375L25.01875 23.2375Q26.690624 23.2375 27.58125 23.440624Q28.8 23.721874 29.675 24.45625Q30.8 25.425 31.3625 26.909374Q31.925 28.39375 31.925 30.315624Q31.925 31.940624 31.55 33.20625Q31.175 34.45625 30.565624 35.284374Q29.971874 36.1125 29.26875 36.596874Q28.565624 37.065624 27.565624 37.315624Q26.565624 37.55 25.253124 37.55L20.096874 37.55ZM21.9875 35.8625L25.05 35.8625Q26.45625 35.8625 27.253124 35.596874Q28.065624 35.33125 28.55 34.846874Q29.221874 34.175 29.596874 33.05Q29.971874 31.909374 29.971874 30.284374Q29.971874 28.034374 29.2375 26.83125Q28.503124 25.628124 27.440624 25.221874Q26.690624 24.925 25.003124 24.925L21.9875 24.925L21.9875 35.8625ZM40.971874 34.20625L42.784374 34.440624Q42.3625 36.01875 41.190624 36.909374Q40.034374 37.784374 38.221874 37.784374Q35.95625 37.784374 34.6125 36.39375Q33.284374 34.9875 33.284374 32.45625Q33.284374 29.83125 34.628124 28.39375Q35.971874 26.940624 38.128124 26.940624Q40.20625 26.940624 41.51875 28.3625Q42.846874 29.76875 42.846874 32.346874Q42.846874 32.503124 42.83125 32.815624L35.096874 32.815624Q35.190624 34.51875 36.065624 35.425Q36.940624 36.33125 38.2375 36.33125Q39.20625 36.33125 39.878124 35.83125Q40.565624 35.315624 40.971874 34.20625ZM35.190624 31.3625L40.9875 31.3625Q40.878124 30.065624 40.33125 29.409374Q39.4875 28.39375 38.14375 28.39375Q36.940624 28.39375 36.1125 29.20625Q35.284374 30.003124 35.190624 31.3625ZM47.753124 37.55L43.8 27.175L45.659374 27.175L47.89375 33.39375Q48.253124 34.39375 48.55 35.471874Q48.784374 34.659374 49.20625 33.503124L51.503124 27.175L53.315624 27.175L49.39375 37.55L47.753124 37.55ZM53.878124 25.253124L53.878124 23.2375L55.64375 23.2375L55.64375 25.253124L53.878124 25.253124ZM53.878124 37.55L53.878124 27.175L55.64375 27.175L55.64375 37.55L53.878124 37.55ZM64.64375 36.26875Q63.659374 37.096874 62.753124 37.440624Q61.846874 37.784374 60.815624 37.784374Q59.1125 37.784374 58.190624 36.95625Q57.26875 36.1125 57.26875 34.815624Q57.26875 34.05 57.6125 33.425Q57.971874 32.8 58.534374 32.425Q59.096874 32.034374 59.8 31.83125Q60.315624 31.70625 61.3625 31.565624Q63.4875 31.315624 64.4875 30.971874Q64.50313 30.6125 64.50313 30.503124Q64.50313 29.440624 64.00313 28.9875Q63.33125 28.39375 62.003124 28.39375Q60.753124 28.39375 60.159374 28.83125Q59.58125 29.26875 59.3 30.378124L57.58125 30.14375Q57.815624 29.034374 58.346874 28.3625Q58.878124 27.675 59.89375 27.315624Q60.909374 26.940624 62.253124 26.940624Q63.58125 26.940624 64.40938 27.253124Q65.2375 27.565624 65.62813 28.05Q66.01875 28.51875 66.175 29.2375Q66.26875 29.690624 66.26875 30.8625L66.26875 33.20625Q66.26875 35.659374 66.37813 36.315624Q66.4875 36.95625 66.83125 37.55L64.9875 37.55Q64.72188 37.003124 64.64375 36.26875ZM64.4875 32.346874Q63.534374 32.7375 61.6125 33.003124Q60.534374 33.159374 60.08125 33.3625Q59.64375 33.55 59.39375 33.925Q59.14375 34.3 59.14375 34.76875Q59.14375 35.471874 59.675 35.940624Q60.20625 36.409374 61.2375 36.409374Q62.253124 36.409374 63.034374 35.971874Q63.83125 35.51875 64.20625 34.753124Q64.4875 34.14375 64.4875 32.9875L64.4875 32.346874ZM72.70625 35.971874L72.95625 37.534374Q72.22188 37.690624 71.62813 37.690624Q70.675 37.690624 70.14375 37.39375Q69.62813 37.08125 69.40938 36.596874Q69.19063 36.096874 69.19063 34.51875L69.19063 28.55L67.90938 28.55L67.90938 27.175L69.19063 27.175L69.19063 24.6125L70.94063 23.55L70.94063 27.175L72.70625 27.175L72.70625 28.55L70.94063 28.55L70.94063 34.6125Q70.94063 35.3625 71.03438 35.58125Q71.12813 35.784374 71.33125 35.925Q71.55 36.05 71.94063 36.05Q72.22188 36.05 72.70625 35.971874ZM74.87813 25.253124L74.87813 23.2375L76.64375 23.2375L76.64375 25.253124L74.87813 25.253124ZM74.87813 37.55L74.87813 27.175L76.64375 27.175L76.64375 37.55L74.87813 37.55ZM78.22188 32.3625Q78.22188 29.4875 79.81563 28.096874Q81.15938 26.940624 83.08125 26.940624Q85.22188 26.940624 86.56563 28.346874Q87.925 29.753124 87.925 32.221874Q87.925 34.221874 87.33125 35.378124Q86.7375 36.51875 85.58125 37.159374Q84.44063 37.784374 83.08125 37.784374Q80.89375 37.784374 79.55 36.39375Q78.22188 34.9875 78.22188 32.3625ZM80.01875 32.3625Q80.01875 34.3625 80.87813 35.346874Q81.75313 36.33125 83.08125 36.33125Q84.39375 36.33125 85.25313 35.346874Q86.12813 34.346874 86.12813 32.3Q86.12813 30.378124 85.25313 29.39375Q84.37813 28.39375 83.08125 28.39375Q81.75313 28.39375 80.87813 29.39375Q80.01875 30.378124 80.01875 32.3625ZM89.8625 37.55L89.8625 27.175L91.45625 27.175L91.45625 28.659374Q92.59688 26.940624 94.75313 26.940624Q95.69063 26.940624 96.47188 27.284374Q97.26875 27.6125 97.65938 28.159374Q98.05 28.70625 98.20625 29.45625Q98.3 29.95625 98.3 31.175L98.3 37.55L96.53438 37.55L96.53438 31.2375Q96.53438 30.159374 96.33125 29.628124Q96.12813 29.096874 95.59688 28.784374Q95.08125 28.471874 94.37813 28.471874Q93.25313 28.471874 92.44063 29.190624Q91.62813 29.89375 91.62813 31.878124L91.62813 37.55L89.8625 37.55ZM106.19063 37.55L106.19063 23.2375L115.84688 23.2375L115.84688 24.925L108.08125 24.925L108.08125 29.3625L114.8 29.3625L114.8 31.05L108.08125 31.05L108.08125 37.55L106.19063 37.55ZM117.84688 37.55L117.84688 27.175L119.425 27.175L119.425 28.753124Q120.03438 27.64375 120.55 27.3Q121.06563 26.940624 121.675 26.940624Q122.56563 26.940624 123.4875 27.503124L122.87813 29.14375Q122.2375 28.753124 121.59688 28.753124Q121.01875 28.753124 120.55 29.1125Q120.09688 29.45625 119.89375 30.065624Q119.6125 31.003124 119.6125 32.1125L119.6125 37.55L117.84688 37.55ZM124.22188 32.3625Q124.22188 29.4875 125.81563 28.096874Q127.15938 26.940624 129.08125 26.940624Q131.22188 26.940624 132.56563 28.346874Q133.925 29.753124 133.925 32.221874Q133.925 34.221874 133.33125 35.378124Q132.7375 36.51875 131.58125 37.159374Q130.44063 37.784374 129.08125 37.784374Q126.89375 37.784374 125.55 36.39375Q124.22188 34.9875 124.22188 32.3625ZM126.01875 32.3625Q126.01875 34.3625 126.87813 35.346874Q127.75313 36.33125 129.08125 36.33125Q130.39375 36.33125 131.25313 35.346874Q132.12813 34.346874 132.12813 32.3Q132.12813 30.378124 131.25313 29.39375Q130.37813 28.39375 129.08125 28.39375Q127.75313 28.39375 126.87813 29.39375Q126.01875 30.378124 126.01875 32.3625ZM135.8625 37.55L135.8625 27.175L137.44063 27.175L137.44063 28.628124Q137.925 27.878124 138.7375 27.409374Q139.55 26.940624 140.58125 26.940624Q141.7375 26.940624 142.47188 27.425Q143.20625 27.89375 143.51875 28.753124Q144.75313 26.940624 146.72188 26.940624Q148.26875 26.940624 149.09688 27.8Q149.925 28.659374 149.925 30.425L149.925 37.55L148.175 37.55L148.175 31.01875Q148.175 29.95625 148.00313 29.503124Q147.83125 29.034374 147.37813 28.753124Q146.94063 28.471874 146.33125 28.471874Q145.2375 28.471874 144.50313 29.20625Q143.78438 29.925 143.78438 31.51875L143.78438 37.55L142.03438 37.55L142.03438 30.815624Q142.03438 29.64375 141.59688 29.065624Q141.175 28.471874 140.19063 28.471874Q139.45625 28.471874 138.81563 28.8625Q138.19063 29.253124 137.90938 30.003124Q137.62813 30.753124 137.62813 32.175L137.62813 37.55L135.8625 37.55ZM156.51875 37.55L162.01875 23.2375L164.06563 23.2375L169.925 37.55L167.76875 37.55L166.09688 33.20625L160.1125 33.20625L158.53438 37.55L156.51875 37.55ZM160.65938 31.675L165.50313 31.675L164.01875 27.70625Q163.33125 25.89375 163.00313 24.7375Q162.72188 26.1125 162.22188 27.471874L160.65938 31.675ZM173.75313 37.55L169.8 27.175L171.65938 27.175L173.89375 33.39375Q174.25313 34.39375 174.55 35.471874Q174.78438 34.659374 175.20625 33.503124L177.50313 27.175L179.31563 27.175L175.39375 37.55L173.75313 37.55ZM186.97188 34.20625L188.78438 34.440624Q188.3625 36.01875 187.19063 36.909374Q186.03438 37.784374 184.22188 37.784374Q181.95625 37.784374 180.6125 36.39375Q179.28438 34.9875 179.28438 32.45625Q179.28438 29.83125 180.62813 28.39375Q181.97188 26.940624 184.12813 26.940624Q186.20625 26.940624 187.51875 28.3625Q188.84688 29.76875 188.84688 32.346874Q188.84688 32.503124 188.83125 32.815624L181.09688 32.815624Q181.19063 34.51875 182.06563 35.425Q182.94063 36.33125 184.2375 36.33125Q185.20625 36.33125 185.87813 35.83125Q186.56563 35.315624 186.97188 34.20625ZM181.19063 31.3625L186.9875 31.3625Q186.87813 30.065624 186.33125 29.409374Q185.4875 28.39375 184.14375 28.39375Q182.94063 28.39375 182.1125 29.20625Q181.28438 30.003124 181.19063 31.3625ZM190.84688 37.55L190.84688 27.175L192.425 27.175L192.425 28.753124Q193.03438 27.64375 193.55 27.3Q194.06563 26.940624 194.675 26.940624Q195.56563 26.940624 196.4875 27.503124L195.87813 29.14375Q195.2375 28.753124 194.59688 28.753124Q194.01875 28.753124 193.55 29.1125Q193.09688 29.45625 192.89375 30.065624Q192.6125 31.003124 192.6125 32.1125L192.6125 37.55L190.84688 37.55ZM204.64375 36.26875Q203.65938 37.096874 202.75313 37.440624Q201.84688 37.784374 200.81563 37.784374Q199.1125 37.784374 198.19063 36.95625Q197.26875 36.1125 197.26875 34.815624Q197.26875 34.05 197.6125 33.425Q197.97188 32.8 198.53438 32.425Q199.09688 32.034374 199.8 31.83125Q200.31563 31.70625 201.3625 31.565624Q203.4875 31.315624 204.4875 30.971874Q204.50313 30.6125 204.50313 30.503124Q204.50313 29.440624 204.00313 28.9875Q203.33125 28.39375 202.00313 28.39375Q200.75313 28.39375 200.15938 28.83125Q199.58125 29.26875 199.3 30.378124L197.58125 30.14375Q197.81563 29.034374 198.34688 28.3625Q198.87813 27.675 199.89375 27.315624Q200.90938 26.940624 202.25313 26.940624Q203.58125 26.940624 204.40938 27.253124Q205.2375 27.565624 205.62813 28.05Q206.01875 28.51875 206.175 29.2375Q206.26875 29.690624 206.26875 30.8625L206.26875 33.20625Q206.26875 35.659374 206.37813 36.315624Q206.4875 36.95625 206.83125 37.55L204.9875 37.55Q204.72188 37.003124 204.64375 36.26875ZM204.4875 32.346874Q203.53438 32.7375 201.6125 33.003124Q200.53438 33.159374 200.08125 33.3625Q199.64375 33.55 199.39375 33.925Q199.14375 34.3 199.14375 34.76875Q199.14375 35.471874 199.675 35.940624Q200.20625 36.409374 201.2375 36.409374Q202.25313 36.409374 203.03438 35.971874Q203.83125 35.51875 204.20625 34.753124Q204.4875 34.14375 204.4875 32.9875L204.4875 32.346874ZM208.55 38.409374L210.25313 38.659374Q210.3625 39.45625 210.84688 39.815624Q211.50313 40.3 212.64375 40.3Q213.8625 40.3 214.51875 39.815624Q215.19063 39.33125 215.425 38.45625Q215.56563 37.909374 215.55 36.190624Q214.39375 37.55 212.675 37.55Q210.53438 37.55 209.3625 36.003124Q208.19063 34.45625 208.19063 32.3Q208.19063 30.815624 208.72188 29.565624Q209.26875 28.315624 210.28438 27.628124Q211.31563 26.940624 212.69063 26.940624Q214.51875 26.940624 215.72188 28.425L215.72188 27.175L217.33125 27.175L217.33125 36.14375Q217.33125 38.565624 216.83125 39.565624Q216.34688 40.58125 215.26875 41.159374Q214.20625 41.753124 212.64375 41.753124Q210.8 41.753124 209.64375 40.925Q208.50313 40.096874 208.55 38.409374ZM210.00313 32.175Q210.00313 34.221874 210.81563 35.159374Q211.62813 36.096874 212.84688 36.096874Q214.05 36.096874 214.8625 35.159374Q215.69063 34.221874 215.69063 32.2375Q215.69063 30.33125 214.84688 29.3625Q214.00313 28.39375 212.81563 28.39375Q211.64375 28.39375 210.81563 29.346874Q210.00313 30.3 210.00313 32.175ZM226.97188 34.20625L228.78438 34.440624Q228.3625 36.01875 227.19063 36.909374Q226.03438 37.784374 224.22188 37.784374Q221.95625 37.784374 220.6125 36.39375Q219.28438 34.9875 219.28438 32.45625Q219.28438 29.83125 220.62813 28.39375Q221.97188 26.940624 224.12813 26.940624Q226.20625 26.940624 227.51875 28.3625Q228.84688 29.76875 228.84688 32.346874Q228.84688 32.503124 228.83125 32.815624L221.09688 32.815624Q221.19063 34.51875 222.06563 35.425Q222.94063 36.33125 224.2375 36.33125Q225.20625 36.33125 225.87813 35.83125Q226.56563 35.315624 226.97188 34.20625ZM221.19063 31.3625L226.9875 31.3625Q226.87813 30.065624 226.33125 29.409374Q225.4875 28.39375 224.14375 28.39375Q222.94063 28.39375 222.1125 29.20625Q221.28438 30.003124 221.19063 31.3625ZM237.09688 37.55L237.09688 23.2375L242.4875 23.2375Q243.925 23.2375 244.675 23.3625Q245.72188 23.55 246.44063 24.05Q247.15938 24.534374 247.58125 25.425Q248.01875 26.315624 248.01875 27.378124Q248.01875 29.20625 246.84688 30.471874Q245.69063 31.721874 242.65938 31.721874L238.9875 31.721874L238.9875 37.55L237.09688 37.55ZM238.9875 30.034374L242.69063 30.034374Q244.51875 30.034374 245.28438 29.3625Q246.06563 28.675 246.06563 27.425Q246.06563 26.534374 245.6125 25.89375Q245.15938 25.253124 244.425 25.05Q243.94063 24.925 242.64375 24.925L238.9875 24.925L238.9875 30.034374ZM256.97186 34.20625L258.78436 34.440624Q258.3625 36.01875 257.1906 36.909374Q256.03436 37.784374 254.22188 37.784374Q251.95625 37.784374 250.6125 36.39375Q249.28438 34.9875 249.28438 32.45625Q249.28438 29.83125 250.62813 28.39375Q251.97188 26.940624 254.12813 26.940624Q256.20624 26.940624 257.51874 28.3625Q258.84686 29.76875 258.84686 32.346874Q258.84686 32.503124 258.83124 32.815624L251.09688 32.815624Q251.19063 34.51875 252.06563 35.425Q252.94063 36.33125 254.2375 36.33125Q255.20625 36.33125 255.87813 35.83125Q256.5656 35.315624 256.97186 34.20625ZM251.19063 31.3625L256.9875 31.3625Q256.8781 30.065624 256.33124 29.409374Q255.4875 28.39375 254.14375 28.39375Q252.94063 28.39375 252.1125 29.20625Q251.28438 30.003124 251.19063 31.3625ZM260.84686 37.55L260.84686 27.175L262.425 27.175L262.425 28.753124Q263.03436 27.64375 263.55 27.3Q264.0656 26.940624 264.675 26.940624Q265.5656 26.940624 266.4875 27.503124L265.8781 29.14375Q265.2375 28.753124 264.59686 28.753124Q264.01874 28.753124 263.55 29.1125Q263.09686 29.45625 262.89374 30.065624Q262.6125 31.003124 262.6125 32.1125L262.6125 37.55L260.84686 37.55ZM274.1281 37.55L274.1281 23.2375L284.4875 23.2375L284.4875 24.925L276.03436 24.925L276.03436 29.3L283.9406 29.3L283.9406 30.9875L276.03436 30.9875L276.03436 35.8625L284.8156 35.8625L284.8156 37.55L274.1281 37.55ZM286.8625 37.55L286.8625 27.175L288.45624 27.175L288.45624 28.659374Q289.59686 26.940624 291.7531 26.940624Q292.6906 26.940624 293.47186 27.284374Q294.26874 27.6125 294.65936 28.159374Q295.05 28.70625 295.20624 29.45625Q295.3 29.95625 295.3 31.175L295.3 37.55L293.53436 37.55L293.53436 31.2375Q293.53436 30.159374 293.33124 29.628124Q293.1281 29.096874 292.59686 28.784374Q292.08124 28.471874 291.3781 28.471874Q290.2531 28.471874 289.4406 29.190624Q288.6281 29.89375 288.6281 31.878124L288.6281 37.55L286.8625 37.55ZM300.70624 35.971874L300.95624 37.534374Q300.22186 37.690624 299.6281 37.690624Q298.675 37.690624 298.14374 37.39375Q297.6281 37.08125 297.40936 36.596874Q297.1906 36.096874 297.1906 34.51875L297.1906 28.55L295.90936 28.55L295.90936 27.175L297.1906 27.175L297.1906 24.6125L298.9406 23.55L298.9406 27.175L300.70624 27.175L300.70624 28.55L298.9406 28.55L298.9406 34.6125Q298.9406 35.3625 299.03436 35.58125Q299.1281 35.784374 299.33124 35.925Q299.55 36.05 299.9406 36.05Q300.22186 36.05 300.70624 35.971874ZM302.84686 37.55L302.84686 27.175L304.425 27.175L304.425 28.753124Q305.03436 27.64375 305.55 27.3Q306.0656 26.940624 306.675 26.940624Q307.5656 26.940624 308.4875 27.503124L307.8781 29.14375Q307.2375 28.753124 306.59686 28.753124Q306.01874 28.753124 305.55 29.1125Q305.09686 29.45625 304.89374 30.065624Q304.6125 31.003124 304.6125 32.1125L304.6125 37.55L302.84686 37.55ZM316.64374 36.26875Q315.65936 37.096874 314.7531 37.440624Q313.84686 37.784374 312.8156 37.784374Q311.1125 37.784374 310.1906 36.95625Q309.26874 36.1125 309.26874 34.815624Q309.26874 34.05 309.6125 33.425Q309.97186 32.8 310.53436 32.425Q311.09686 32.034374 311.8 31.83125Q312.3156 31.70625 313.3625 31.565624Q315.4875 31.315624 316.4875 30.971874Q316.5031 30.6125 316.5031 30.503124Q316.5031 29.440624 316.0031 28.9875Q315.33124 28.39375 314.0031 28.39375Q312.7531 28.39375 312.15936 28.83125Q311.58124 29.26875 311.3 30.378124L309.58124 30.14375Q309.8156 29.034374 310.34686 28.3625Q310.8781 27.675 311.89374 27.315624Q312.90936 26.940624 314.2531 26.940624Q315.58124 26.940624 316.40936 27.253124Q317.2375 27.565624 317.6281 28.05Q318.01874 28.51875 318.175 29.2375Q318.26874 29.690624 318.26874 30.8625L318.26874 33.20625Q318.26874 35.659374 318.3781 36.315624Q318.4875 36.95625 318.83124 37.55L316.9875 37.55Q316.72186 37.003124 316.64374 36.26875ZM316.4875 32.346874Q315.53436 32.7375 313.6125 33.003124Q312.53436 33.159374 312.08124 33.3625Q311.64374 33.55 311.39374 33.925Q311.14374 34.3 311.14374 34.76875Q311.14374 35.471874 311.675 35.940624Q312.20624 36.409374 313.2375 36.409374Q314.2531 36.409374 315.03436 35.971874Q315.83124 35.51875 316.20624 34.753124Q316.4875 34.14375 316.4875 32.9875L316.4875 32.346874ZM320.8625 37.55L320.8625 27.175L322.45624 27.175L322.45624 28.659374Q323.59686 26.940624 325.7531 26.940624Q326.6906 26.940624 327.47186 27.284374Q328.26874 27.6125 328.65936 28.159374Q329.05 28.70625 329.20624 29.45625Q329.3 29.95625 329.3 31.175L329.3 37.55L327.53436 37.55L327.53436 31.2375Q327.53436 30.159374 327.33124 29.628124Q327.1281 29.096874 326.59686 28.784374Q326.08124 28.471874 325.3781 28.471874Q324.2531 28.471874 323.4406 29.190624Q322.6281 29.89375 322.6281 31.878124L322.6281 37.55L320.8625 37.55ZM334.70624 35.971874L334.95624 37.534374Q334.22186 37.690624 333.6281 37.690624Q332.675 37.690624 332.14374 37.39375Q331.6281 37.08125 331.40936 36.596874Q331.1906 36.096874 331.1906 34.51875L331.1906 28.55L329.90936 28.55L329.90936 27.175L331.1906 27.175L331.1906 24.6125L332.9406 23.55L332.9406 27.175L334.70624 27.175L334.70624 28.55L332.9406 28.55L332.9406 34.6125Q332.9406 35.3625 333.03436 35.58125Q333.1281 35.784374 333.33124 35.925Q333.55 36.05 333.9406 36.05Q334.22186 36.05 334.70624 35.971874Z" fill-rule="nonzero"/></svg>